<svg version="1.1" id="Layer_1" xmlns="http://www.w3.org/2000/svg" xmlns:xlink="http://www.w3.org/1999/xlink" x="0px" y="0px"
	 width="100%" viewBox="0 0 1024 1024" enable-background="new 0 0 1024 1024" xml:space="preserve">
<path fill="#000000" opacity="1.000000" stroke="none" 
	d="
M564.000000,1025.000000 
	C376.000000,1025.000000 188.500000,1025.000000 1.000000,1025.000000 
	C1.000000,683.666687 1.000000,342.333344 1.000000,1.000000 
	C342.333344,1.000000 683.666687,1.000000 1025.000000,1.000000 
	C1025.000000,342.333344 1025.000000,683.666687 1025.000000,1025.000000 
	C871.500000,1025.000000 718.000000,1025.000000 564.000000,1025.000000 
M62.477943,707.014160 
	C59.674431,709.854614 56.239159,712.298889 54.169674,715.599548 
	C40.510490,737.384521 38.887768,759.705750 51.869236,782.519287 
	C52.581730,783.771362 52.704353,786.053955 52.042568,787.289795 
	C40.977402,807.951843 42.545219,828.042480 54.991875,847.383545 
	C65.502525,863.716248 81.200104,874.315247 98.055374,882.817322 
	C114.248505,890.985474 130.898575,898.466736 147.900299,904.756470 
	C168.369431,912.328979 189.173248,919.291504 210.294113,924.721252 
	C229.773605,929.729004 249.806946,932.717651 269.706848,935.905701 
	C282.306000,937.924194 295.081146,939.342712 307.824432,939.850891 
	C329.252106,940.705322 350.605927,939.751587 371.720795,935.085205 
	C398.037903,929.269104 422.080811,919.252380 440.971832,899.328857 
	C444.081787,896.048889 447.372406,895.681885 451.212250,896.085510 
	C463.262177,897.352112 475.287537,899.567200 487.353821,899.802429 
	C507.432922,900.193726 527.543091,899.538086 547.626099,898.887939 
	C554.611328,898.661804 561.584839,897.324585 568.509033,896.168030 
	C575.658936,894.973816 581.471375,895.007019 587.369934,901.305115 
	C594.057129,908.445129 602.459656,914.397522 611.018677,919.286804 
	C636.214905,933.679688 664.073120,938.910095 692.662170,939.798584 
	C707.817322,940.269592 723.059204,938.983582 738.219788,937.900574 
	C749.297424,937.109192 760.454895,936.085571 771.314941,933.877686 
	C793.869568,929.292358 816.653931,925.171692 838.609680,918.458984 
	C873.479614,907.797974 907.964539,895.660278 939.269836,876.275696 
	C955.463989,866.248108 969.709167,854.301636 977.006897,835.923889 
	C983.613586,819.286560 982.413513,803.148743 974.057068,787.367065 
	C973.359985,786.050659 973.618835,783.622742 974.382263,782.231934 
	C982.138733,768.100708 984.874695,753.431030 981.239014,737.423584 
	C978.330444,724.617798 972.135132,714.145142 962.206055,705.895020 
	C986.015015,662.144226 955.140869,610.599426 906.158936,613.608337 
	C906.158936,612.952820 906.030762,612.271484 906.177429,611.655701 
	C910.115723,595.121948 914.808350,578.726624 917.836853,562.029236 
	C920.777100,545.819153 923.045044,529.344299 923.749146,512.906128 
	C924.717957,490.287872 924.678284,467.562164 921.008850,445.061371 
	C918.649231,430.592438 917.128296,415.924774 913.754883,401.696259 
	C907.124695,373.731293 897.760620,346.614990 885.249817,320.660889 
	C875.414673,300.257324 864.663818,280.367188 850.986755,262.246368 
	C840.739868,248.670181 830.860107,234.683167 819.371033,222.210953 
	C803.721802,205.222656 787.046265,189.200256 768.683655,174.929001 
	C749.203125,159.788849 728.976807,145.783752 706.982117,134.820984 
	C686.987244,124.855003 666.319092,116.027374 645.374939,108.238205 
	C624.395874,100.436043 602.620544,94.851898 580.303406,91.995911 
	C563.597778,89.858025 546.902954,87.159843 530.119690,86.244881 
	C514.929382,85.416763 499.591675,86.145393 484.381714,87.143631 
	C469.054688,88.149544 453.629700,89.401604 438.565735,92.236313 
	C419.817047,95.764412 401.148529,100.210655 382.886841,105.722870 
	C353.412720,114.619514 325.554993,127.477562 298.900604,142.969101 
	C270.971283,159.201630 245.116165,178.294449 222.079971,200.810410 
	C207.375778,215.182526 193.767136,230.827057 180.892319,246.883408 
	C161.955826,270.499298 146.557327,296.434326 133.902649,324.020508 
	C125.152145,343.095856 117.339958,362.520355 112.147179,382.808655 
	C107.683212,400.249481 104.152176,417.970734 101.130043,435.724823 
	C98.965431,448.441254 97.331848,461.408569 97.226112,474.278473 
	C97.054924,495.115723 98.099716,515.976257 99.111053,536.803650 
	C99.529411,545.419189 100.646942,554.086426 102.394882,562.533875 
	C105.941254,579.672913 110.133720,596.678284 114.056953,613.726074 
	C112.214859,614.079895 109.840286,614.802429 107.429504,614.955750 
	C91.720139,615.954895 78.912704,623.365295 69.583015,635.183411 
	C53.168697,655.975708 51.302910,679.059143 62.559315,703.131531 
	C63.017929,704.112305 62.854927,705.383789 62.477943,707.014160 
z"/>
<path fill="#FF9D0B" opacity="1.000000" stroke="none" 
	d="
M62.729736,706.766968 
	C62.854927,705.383789 63.017929,704.112305 62.559315,703.131531 
	C51.302910,679.059143 53.168697,655.975708 69.583015,635.183411 
	C78.912704,623.365295 91.720139,615.954895 107.429504,614.955750 
	C109.840286,614.802429 112.214859,614.079895 114.056953,613.726074 
	C110.133720,596.678284 105.941254,579.672913 102.394882,562.533875 
	C100.646942,554.086426 99.529411,545.419189 99.111053,536.803650 
	C98.099716,515.976257 97.054924,495.115723 97.226112,474.278473 
	C97.331848,461.408569 98.965431,448.441254 101.130043,435.724823 
	C104.152176,417.970734 107.683212,400.249481 112.147179,382.808655 
	C117.339958,362.520355 125.152145,343.095856 133.902649,324.020508 
	C146.557327,296.434326 161.955826,270.499298 180.892319,246.883408 
	C193.767136,230.827057 207.375778,215.182526 222.079971,200.810410 
	C245.116165,178.294449 270.971283,159.201630 298.900604,142.969101 
	C325.554993,127.477562 353.412720,114.619514 382.886841,105.722870 
	C401.148529,100.210655 419.817047,95.764412 438.565735,92.236313 
	C453.629700,89.401604 469.054688,88.149544 484.381714,87.143631 
	C499.591675,86.145393 514.929382,85.416763 530.119690,86.244881 
	C546.902954,87.159843 563.597778,89.858025 580.303406,91.995911 
	C602.620544,94.851898 624.395874,100.436043 645.374939,108.238205 
	C666.319092,116.027374 686.987244,124.855003 706.982117,134.820984 
	C728.976807,145.783752 749.203125,159.788849 768.683655,174.929001 
	C787.046265,189.200256 803.721802,205.222656 819.371033,222.210953 
	C830.860107,234.683167 840.739868,248.670181 850.986755,262.246368 
	C864.663818,280.367188 875.414673,300.257324 885.249817,320.660889 
	C897.760620,346.614990 907.124695,373.731293 913.754883,401.696259 
	C917.128296,415.924774 918.649231,430.592438 921.008850,445.061371 
	C924.678284,467.562164 924.717957,490.287872 923.749146,512.906128 
	C923.045044,529.344299 920.777100,545.819153 917.836853,562.029236 
	C914.808350,578.726624 910.115723,595.121948 906.177429,611.655701 
	C906.030762,612.271484 906.158936,612.952820 906.158936,613.608337 
	C955.140869,610.599426 986.015015,662.144226 962.206055,705.895020 
	C972.135132,714.145142 978.330444,724.617798 981.239014,737.423584 
	C984.874695,753.431030 982.138733,768.100708 974.382263,782.231934 
	C973.618835,783.622742 973.359985,786.050659 974.057068,787.367065 
	C982.413513,803.148743 983.613586,819.286560 977.006897,835.923889 
	C969.709167,854.301636 955.463989,866.248108 939.269836,876.275696 
	C907.964539,895.660278 873.479614,907.797974 838.609680,918.458984 
	C816.653931,925.171692 793.869568,929.292358 771.314941,933.877686 
	C760.454895,936.085571 749.297424,937.109192 738.219788,937.900574 
	C723.059204,938.983582 707.817322,940.269592 692.662170,939.798584 
	C664.073120,938.910095 636.214905,933.679688 611.018677,919.286804 
	C602.459656,914.397522 594.057129,908.445129 587.369934,901.305115 
	C581.471375,895.007019 575.658936,894.973816 568.509033,896.168030 
	C561.584839,897.324585 554.611328,898.661804 547.626099,898.887939 
	C527.543091,899.538086 507.432922,900.193726 487.353821,899.802429 
	C475.287537,899.567200 463.262177,897.352112 451.212250,896.085510 
	C447.372406,895.681885 444.081787,896.048889 440.971832,899.328857 
	C422.080811,919.252380 398.037903,929.269104 371.720795,935.085205 
	C350.605927,939.751587 329.252106,940.705322 307.824432,939.850891 
	C295.081146,939.342712 282.306000,937.924194 269.706848,935.905701 
	C249.806946,932.717651 229.773605,929.729004 210.294113,924.721252 
	C189.173248,919.291504 168.369431,912.328979 147.900299,904.756470 
	C130.898575,898.466736 114.248505,890.985474 98.055374,882.817322 
	C81.200104,874.315247 65.502525,863.716248 54.991875,847.383545 
	C42.545219,828.042480 40.977402,807.951843 52.042568,787.289795 
	C52.704353,786.053955 52.581730,783.771362 51.869236,782.519287 
	C38.887768,759.705750 40.510490,737.384521 54.169674,715.599548 
	C56.239159,712.298889 59.674431,709.854614 62.729736,706.766968 
M865.091187,387.389130 
	C858.791077,371.088379 853.438660,354.341736 846.016235,338.569122 
	C822.162903,287.881073 787.938354,245.064743 744.254272,210.083130 
	C702.472290,176.624680 655.502502,153.045410 603.522095,140.012466 
	C568.683899,131.277557 533.271973,126.466881 497.255737,129.026016 
	C478.707581,130.343964 460.047028,131.630341 441.763336,134.807571 
	C399.720459,142.113586 360.244812,156.897247 323.220825,178.274445 
	C287.106781,199.126282 255.334610,225.208374 228.063782,256.679047 
	C203.245407,285.319580 183.366638,317.121399 168.440933,352.019165 
	C151.832550,390.851105 142.344437,431.382111 140.177185,473.470673 
	C138.754333,501.102539 140.025879,528.729492 145.125610,556.040649 
	C146.453659,563.152893 148.044403,570.216187 149.511627,577.288086 
	C150.668533,577.048767 151.044205,577.067932 151.293427,576.899658 
	C151.840454,576.530518 152.359344,576.102478 152.827408,575.635925 
	C168.697571,559.818420 187.743240,556.242004 209.055939,560.734314 
	C230.375961,565.228149 246.138092,578.058777 259.974823,593.941528 
	C261.994965,596.260437 264.125122,598.483459 266.483856,601.055603 
	C268.500977,598.912109 269.945679,597.333191 271.436615,595.799194 
	C288.124664,578.629456 308.223145,571.750122 331.448303,578.179138 
	C356.410492,585.088928 370.333862,603.951233 379.380524,626.858276 
	C392.492859,660.060120 410.456268,690.032837 435.177429,716.038391 
	C445.333588,726.722229 454.980042,738.201355 463.027222,750.515320 
	C480.457764,777.187744 485.799194,806.297668 476.413177,837.365417 
	C474.604126,843.353333 472.508026,849.254395 470.337891,855.820251 
	C480.133453,856.562195 489.388458,857.906921 498.630432,857.822327 
	C515.252808,857.670227 531.867493,856.667603 548.484924,856.006104 
	C555.463745,855.728394 555.923096,855.090637 553.289795,848.691284 
	C548.226135,836.385620 545.412720,823.531067 545.119019,810.304993 
	C544.523499,783.486694 554.282715,759.993591 570.512512,739.293152 
	C580.551025,726.489563 592.386108,715.111145 602.814819,702.593201 
	C621.182251,680.545898 635.402771,655.942932 645.743408,629.170654 
	C652.748047,611.035217 662.714355,595.351685 679.511841,584.607361 
	C700.841492,570.964050 732.173401,573.924072 750.256897,591.756104 
	C753.280762,594.737915 755.707214,598.325623 758.498596,601.742126 
	C761.690186,598.571106 763.610107,596.958069 765.178894,595.055542 
	C773.297180,585.210144 782.418762,576.426514 793.515625,570.078491 
	C812.711487,559.097412 832.955750,554.770447 854.318298,563.090332 
	C860.398254,565.458191 865.860901,569.411316 871.588379,572.627258 
	C886.417297,539.037292 883.273315,445.260040 865.091187,387.389130 
M651.282593,890.249084 
	C653.356873,890.865417 655.412537,891.555176 657.508240,892.087158 
	C687.545654,899.711243 717.980652,899.149536 748.162598,894.404053 
	C772.931580,890.509644 797.615723,885.306030 821.814941,878.752991 
	C851.567200,870.696289 880.632324,860.141357 907.643555,844.980347 
	C916.540405,839.986633 924.678589,833.416382 932.465210,826.751038 
	C937.435730,822.496277 939.931824,816.359985 936.781555,809.593445 
	C933.755493,803.093628 928.300659,800.112610 921.323608,801.087341 
	C915.445984,801.908447 909.254822,802.730469 903.979126,805.206787 
	C886.194946,813.554321 868.823303,822.775940 851.146667,831.360168 
	C845.793030,833.960022 840.060303,835.929749 834.317688,837.528870 
	C829.996826,838.732178 825.344421,838.300354 823.011169,833.629517 
	C820.807495,829.217957 821.379333,824.639343 825.249451,821.318420 
	C829.131226,817.987427 833.082031,814.309082 837.667358,812.300964 
	C856.116028,804.221252 874.878784,796.862671 893.414917,788.977661 
	C908.113281,782.725159 923.086914,776.874146 934.159180,764.473450 
	C939.991150,757.941772 941.412659,749.186707 937.377991,741.866760 
	C934.425903,736.510803 927.072876,734.102966 918.786682,735.536438 
	C905.129944,737.899048 892.577332,743.382385 880.594971,749.918701 
	C861.594543,760.283325 843.051086,771.482361 824.191162,782.109802 
	C817.674377,785.781982 810.929321,789.134705 804.031921,792.019958 
	C798.048462,794.522949 794.914124,792.266296 794.042847,785.772705 
	C793.375305,780.797913 794.743958,776.363770 798.489502,773.093262 
	C804.744385,767.631653 810.798340,761.737000 817.761536,757.326538 
	C841.396973,742.356018 865.452332,728.050354 889.227661,713.297913 
	C901.247742,705.839417 913.200623,698.194885 922.370605,687.103088 
	C928.174255,680.083252 929.025818,672.424866 924.922607,665.424988 
	C920.508911,657.895386 914.511292,655.344666 904.827942,657.362915 
	C900.775024,658.207642 896.761719,659.503662 892.922119,661.065796 
	C873.919373,668.797607 857.091736,680.313599 841.034058,692.737366 
	C822.759827,706.876160 805.509644,722.331421 787.467957,736.781860 
	C781.434387,741.614441 774.527039,745.483398 767.646667,749.080505 
	C763.917053,751.030396 759.151550,751.146667 756.193115,747.272095 
	C753.368591,743.573059 754.993530,739.425781 757.369019,736.120605 
	C761.731567,730.050903 766.094299,723.883911 771.215210,718.475403 
	C785.299377,703.600220 799.864624,689.181885 814.058960,674.409302 
	C820.856812,667.334534 827.373901,659.977539 833.790100,652.551331 
	C842.914734,641.990112 848.662354,630.227783 847.080688,615.636475 
	C846.073975,606.348816 840.327332,600.508545 831.036377,601.047180 
	C821.822998,601.581238 814.179443,605.992065 807.492798,612.013000 
	C794.633057,623.592529 784.457947,637.487427 775.213806,651.918457 
	C759.766724,676.032837 744.988708,700.578369 730.104980,725.049438 
	C725.341187,732.881836 718.617249,737.348694 709.708252,738.739441 
	C703.055359,739.778015 694.392212,736.269104 691.681763,731.342041 
	C688.030151,724.704163 690.152893,718.734680 694.335571,713.266785 
	C696.233215,710.786133 698.548706,708.599609 700.826721,706.440125 
	C707.087158,700.505493 714.080017,695.206421 719.608032,688.663147 
	C733.093811,672.700684 737.388428,648.502563 726.741211,629.351257 
	C719.155762,615.707214 705.890259,613.855530 695.953796,625.837952 
	C691.796387,630.851318 688.730164,637.034241 686.242554,643.124390 
	C670.591125,681.442261 649.761292,716.361389 620.609436,746.081604 
	C613.986877,752.833313 607.774353,760.082092 602.095947,767.644775 
	C591.187683,782.172607 584.652100,798.834656 588.550293,816.819580 
	C596.129639,851.788513 614.679077,878.484192 651.282593,890.249084 
M206.011841,668.472107 
	C222.211105,685.019836 238.646179,701.346252 254.490097,718.227478 
	C260.576385,724.712280 265.830902,732.145691 270.488068,739.745178 
	C273.629852,744.871887 270.138519,749.948608 264.041992,749.850159 
	C260.678192,749.795837 256.799835,749.116577 254.087708,747.313660 
	C246.081375,741.991455 238.026382,736.538269 230.913223,730.114502 
	C208.738190,710.089111 185.331726,691.719666 160.227066,675.535400 
	C148.297562,667.844788 136.062881,660.593445 121.975960,657.577393 
	C114.979599,656.079407 108.062248,655.985168 102.907936,662.641785 
	C96.677917,670.687622 96.600967,679.971985 104.160622,687.464722 
	C110.986069,694.229797 118.117378,701.011292 126.151009,706.170471 
	C148.711319,720.658752 172.032990,733.961304 194.596680,748.444580 
	C206.025879,755.780945 216.574020,764.519592 227.299393,772.906982 
	C231.185913,775.946350 232.575790,780.479065 231.994629,785.485535 
	C231.212875,792.219910 228.092316,794.302917 221.741165,792.013428 
	C218.775635,790.944458 215.866974,789.609070 213.118439,788.063843 
	C191.196701,775.738953 169.404648,763.180969 147.396347,751.013611 
	C134.538773,743.905334 121.148285,737.936768 106.497795,735.393799 
	C95.467323,733.479126 87.656578,738.690125 86.306656,749.194885 
	C85.506142,755.424377 88.364296,760.431946 92.369881,764.989319 
	C101.362389,775.220520 113.358986,780.763916 125.477066,785.887329 
	C142.196198,792.955811 159.193924,799.362488 176.010757,806.204041 
	C185.126434,809.912476 194.120728,813.895020 200.987762,821.386353 
	C204.447311,825.160461 205.136322,829.419617 202.928192,833.826355 
	C200.667450,838.337952 196.209122,838.768982 192.052780,837.616333 
	C186.306305,836.022705 180.537918,834.132568 175.200317,831.511292 
	C159.947647,824.020813 144.988510,815.933655 129.752548,808.407898 
	C121.237381,804.201904 112.471237,800.548096 102.575241,800.931274 
	C96.652710,801.160645 92.414337,803.771484 89.601288,808.810669 
	C86.870064,813.703308 87.696587,818.411682 90.623596,822.957947 
	C95.932388,831.203430 103.715912,836.660950 111.952309,841.441345 
	C144.056152,860.074707 178.816879,872.390442 214.448914,881.737854 
	C238.516495,888.051514 263.324341,891.715149 287.943939,895.676270 
	C299.378082,897.515869 311.159882,897.882629 322.769836,897.741943 
	C333.704315,897.609436 344.695251,896.436462 355.526794,894.819702 
	C372.688599,892.258118 388.869995,886.713013 402.882843,876.047913 
	C413.851044,867.700195 421.160858,856.435364 427.967102,844.666382 
	C442.901733,818.842285 441.715973,790.550781 423.325287,767.003235 
	C414.130005,755.229614 403.473694,744.607483 393.703247,733.270569 
	C370.428345,706.263977 352.796112,675.878479 339.651093,642.780884 
	C337.460144,637.264343 334.689880,631.772034 331.161926,627.031616 
	C321.301849,613.782715 306.932373,615.165710 299.101715,629.688416 
	C286.953735,652.218140 295.089478,679.687439 313.631775,696.781982 
	C320.435822,703.054749 327.900879,708.906189 333.429749,716.190552 
	C340.124969,725.011536 335.621185,734.902283 324.879822,737.822998 
	C313.944153,740.796448 302.499268,735.803528 296.255585,725.632019 
	C280.485870,699.941833 265.194458,673.929199 248.540161,648.822693 
	C239.857513,635.733643 229.360687,623.641357 218.368729,612.382141 
	C213.223526,607.111755 205.300812,603.788879 198.031357,601.546265 
	C188.557327,598.623657 180.445892,604.267517 179.294296,613.559570 
	C178.024002,623.809692 178.581635,634.038879 185.202393,642.697021 
	C191.764801,651.278931 198.726303,659.555603 206.011841,668.472107 
z"/>
<path fill="#FFD21E" opacity="1.000000" stroke="none" 
	d="
M865.190063,387.778076 
	C883.273315,445.260040 886.417297,539.037292 871.588379,572.627258 
	C865.860901,569.411316 860.398254,565.458191 854.318298,563.090332 
	C832.955750,554.770447 812.711487,559.097412 793.515625,570.078491 
	C782.418762,576.426514 773.297180,585.210144 765.178894,595.055542 
	C763.610107,596.958069 761.690186,598.571106 758.498596,601.742126 
	C755.707214,598.325623 753.280762,594.737915 750.256897,591.756104 
	C732.173401,573.924072 700.841492,570.964050 679.511841,584.607361 
	C662.714355,595.351685 652.748047,611.035217 645.743408,629.170654 
	C635.402771,655.942932 621.182251,680.545898 602.814819,702.593201 
	C592.386108,715.111145 580.551025,726.489563 570.512512,739.293152 
	C554.282715,759.993591 544.523499,783.486694 545.119019,810.304993 
	C545.412720,823.531067 548.226135,836.385620 553.289795,848.691284 
	C555.923096,855.090637 555.463745,855.728394 548.484924,856.006104 
	C531.867493,856.667603 515.252808,857.670227 498.630432,857.822327 
	C489.388458,857.906921 480.133453,856.562195 470.337891,855.820251 
	C472.508026,849.254395 474.604126,843.353333 476.413177,837.365417 
	C485.799194,806.297668 480.457764,777.187744 463.027222,750.515320 
	C454.980042,738.201355 445.333588,726.722229 435.177429,716.038391 
	C410.456268,690.032837 392.492859,660.060120 379.380524,626.858276 
	C370.333862,603.951233 356.410492,585.088928 331.448303,578.179138 
	C308.223145,571.750122 288.124664,578.629456 271.436615,595.799194 
	C269.945679,597.333191 268.500977,598.912109 266.483856,601.055603 
	C264.125122,598.483459 261.994965,596.260437 259.974823,593.941528 
	C246.138092,578.058777 230.375961,565.228149 209.055939,560.734314 
	C187.743240,556.242004 168.697571,559.818420 152.827408,575.635925 
	C152.359344,576.102478 151.840454,576.530518 151.293427,576.899658 
	C151.044205,577.067932 150.668533,577.048767 149.511627,577.288086 
	C148.044403,570.216187 146.453659,563.152893 145.125610,556.040649 
	C140.025879,528.729492 138.754333,501.102539 140.177185,473.470673 
	C142.344437,431.382111 151.832550,390.851105 168.440933,352.019165 
	C183.366638,317.121399 203.245407,285.319580 228.063782,256.679047 
	C255.334610,225.208374 287.106781,199.126282 323.220825,178.274445 
	C360.244812,156.897247 399.720459,142.113586 441.763336,134.807571 
	C460.047028,131.630341 478.707581,130.343964 497.255737,129.026016 
	C533.271973,126.466881 568.683899,131.277557 603.522095,140.012466 
	C655.502502,153.045410 702.472290,176.624680 744.254272,210.083130 
	C787.938354,245.064743 822.162903,287.881073 846.016235,338.569122 
	C853.438660,354.341736 858.791077,371.088379 865.190063,387.778076 
M592.199219,618.530762 
	C600.809021,609.556519 610.274902,601.244751 617.843567,591.464783 
	C631.963074,573.219910 639.845886,551.906738 643.858948,529.323120 
	C645.438965,520.431885 645.671936,511.249695 645.894958,502.184662 
	C646.089722,494.263519 642.341675,490.315521 634.710876,491.213440 
	C628.437805,491.951569 622.121338,493.978516 616.292358,496.511627 
	C601.040344,503.139557 586.192200,510.701416 570.910339,517.254883 
	C550.867859,525.849915 529.965149,531.547791 508.021484,531.892822 
	C493.242279,532.125183 478.553650,529.804871 464.822418,524.437805 
	C444.255493,516.398865 424.140625,507.205841 403.807800,498.564087 
	C397.999451,496.095428 392.236084,493.390564 386.215393,491.581787 
	C376.676147,488.715942 369.443634,492.605133 369.182037,500.847748 
	C368.914856,509.267822 368.899597,517.863342 370.273163,526.132996 
	C373.092590,543.108154 378.696625,559.303528 386.848541,574.533813 
	C396.892059,593.298157 409.769653,609.625671 428.039062,622.137939 
	C428.704956,622.633606 429.339539,623.179382 430.041229,623.617737 
	C471.810608,649.715332 515.909607,651.957764 561.570923,636.018799 
	C572.555298,632.184448 582.821777,626.630798 592.199219,618.530762 
M334.044189,335.538910 
	C322.007996,348.122009 316.367615,362.961395 319.122009,380.341583 
	C321.774506,397.079132 330.744904,409.719269 345.503265,418.128143 
	C350.823761,421.159607 354.256104,420.840179 358.433136,416.352905 
	C361.816803,412.717896 364.784149,408.659668 367.657959,404.592590 
	C375.499054,393.495605 381.687592,391.149109 395.964630,396.365845 
	C399.864319,397.790741 403.717224,399.405609 407.710724,400.497803 
	C414.340576,402.311035 417.233032,400.850525 420.097900,394.726410 
	C425.502045,383.174133 426.544159,371.166901 423.197113,358.915375 
	C412.640656,320.275024 364.909027,307.459747 334.044189,335.538910 
M623.817383,322.089935 
	C592.820190,330.832581 575.799133,365.777588 589.988647,394.400116 
	C593.220398,400.919220 596.096436,402.440948 603.137817,400.276581 
	C608.645508,398.583557 613.949646,396.181305 619.507019,394.708405 
	C626.995422,392.723816 634.037720,393.388824 639.186829,400.267853 
	C642.777039,405.064178 646.231201,409.978943 650.077087,414.563141 
	C655.551697,421.088593 659.326233,421.692535 666.438293,417.159088 
	C687.004395,404.049469 694.873718,385.002930 689.943237,361.066101 
	C683.025940,327.483093 651.004272,315.897064 623.817383,322.089935 
M288.511841,434.031128 
	C303.372742,420.358185 302.881653,398.950928 290.218781,385.780060 
	C277.033997,372.066406 255.116150,371.367126 241.470993,384.068420 
	C228.145981,396.471741 226.578552,417.748169 238.047485,430.540192 
	C251.882416,445.971222 272.759918,447.640625 288.511841,434.031128 
M732.787109,389.354187 
	C727.887573,396.465210 725.174744,404.364227 726.598999,412.914307 
	C730.012878,433.408508 745.610901,445.362762 766.260254,442.825500 
	C784.749634,440.553680 797.238770,423.502197 795.569092,406.422302 
	C794.094116,391.334076 785.510071,380.765778 770.651184,376.496826 
	C755.614441,372.176788 743.151489,376.954346 732.787109,389.354187 
z"/>
<path fill="#FFD21E" opacity="1.000000" stroke="none" 
	d="
M650.904053,890.130005 
	C614.679077,878.484192 596.129639,851.788513 588.550293,816.819580 
	C584.652100,798.834656 591.187683,782.172607 602.095947,767.644775 
	C607.774353,760.082092 613.986877,752.833313 620.609436,746.081604 
	C649.761292,716.361389 670.591125,681.442261 686.242554,643.124390 
	C688.730164,637.034241 691.796387,630.851318 695.953796,625.837952 
	C705.890259,613.855530 719.155762,615.707214 726.741211,629.351257 
	C737.388428,648.502563 733.093811,672.700684 719.608032,688.663147 
	C714.080017,695.206421 707.087158,700.505493 700.826721,706.440125 
	C698.548706,708.599609 696.233215,710.786133 694.335571,713.266785 
	C690.152893,718.734680 688.030151,724.704163 691.681763,731.342041 
	C694.392212,736.269104 703.055359,739.778015 709.708252,738.739441 
	C718.617249,737.348694 725.341187,732.881836 730.104980,725.049438 
	C744.988708,700.578369 759.766724,676.032837 775.213806,651.918457 
	C784.457947,637.487427 794.633057,623.592529 807.492798,612.013000 
	C814.179443,605.992065 821.822998,601.581238 831.036377,601.047180 
	C840.327332,600.508545 846.073975,606.348816 847.080688,615.636475 
	C848.662354,630.227783 842.914734,641.990112 833.790100,652.551331 
	C827.373901,659.977539 820.856812,667.334534 814.058960,674.409302 
	C799.864624,689.181885 785.299377,703.600220 771.215210,718.475403 
	C766.094299,723.883911 761.731567,730.050903 757.369019,736.120605 
	C754.993530,739.425781 753.368591,743.573059 756.193115,747.272095 
	C759.151550,751.146667 763.917053,751.030396 767.646667,749.080505 
	C774.527039,745.483398 781.434387,741.614441 787.467957,736.781860 
	C805.509644,722.331421 822.759827,706.876160 841.034058,692.737366 
	C857.091736,680.313599 873.919373,668.797607 892.922119,661.065796 
	C896.761719,659.503662 900.775024,658.207642 904.827942,657.362915 
	C914.511292,655.344666 920.508911,657.895386 924.922607,665.424988 
	C929.025818,672.424866 928.174255,680.083252 922.370605,687.103088 
	C913.200623,698.194885 901.247742,705.839417 889.227661,713.297913 
	C865.452332,728.050354 841.396973,742.356018 817.761536,757.326538 
	C810.798340,761.737000 804.744385,767.631653 798.489502,773.093262 
	C794.743958,776.363770 793.375305,780.797913 794.042847,785.772705 
	C794.914124,792.266296 798.048462,794.522949 804.031921,792.019958 
	C810.929321,789.134705 817.674377,785.781982 824.191162,782.109802 
	C843.051086,771.482361 861.594543,760.283325 880.594971,749.918701 
	C892.577332,743.382385 905.129944,737.899048 918.786682,735.536438 
	C927.072876,734.102966 934.425903,736.510803 937.377991,741.866760 
	C941.412659,749.186707 939.991150,757.941772 934.159180,764.473450 
	C923.086914,776.874146 908.113281,782.725159 893.414917,788.977661 
	C874.878784,796.862671 856.116028,804.221252 837.667358,812.300964 
	C833.082031,814.309082 829.131226,817.987427 825.249451,821.318420 
	C821.379333,824.639343 820.807495,829.217957 823.011169,833.629517 
	C825.344421,838.300354 829.996826,838.732178 834.317688,837.528870 
	C840.060303,835.929749 845.793030,833.960022 851.146667,831.360168 
	C868.823303,822.775940 886.194946,813.554321 903.979126,805.206787 
	C909.254822,802.730469 915.445984,801.908447 921.323608,801.087341 
	C928.300659,800.112610 933.755493,803.093628 936.781555,809.593445 
	C939.931824,816.359985 937.435730,822.496277 932.465210,826.751038 
	C924.678589,833.416382 916.540405,839.986633 907.643555,844.980347 
	C880.632324,860.141357 851.567200,870.696289 821.814941,878.752991 
	C797.615723,885.306030 772.931580,890.509644 748.162598,894.404053 
	C717.980652,899.149536 687.545654,899.711243 657.508240,892.087158 
	C655.412537,891.555176 653.356873,890.865417 650.904053,890.130005 
z"/>
<path fill="#FFD21E" opacity="1.000000" stroke="none" 
	d="
M205.762299,668.219116 
	C198.726303,659.555603 191.764801,651.278931 185.202393,642.697021 
	C178.581635,634.038879 178.024002,623.809692 179.294296,613.559570 
	C180.445892,604.267517 188.557327,598.623657 198.031357,601.546265 
	C205.300812,603.788879 213.223526,607.111755 218.368729,612.382141 
	C229.360687,623.641357 239.857513,635.733643 248.540161,648.822693 
	C265.194458,673.929199 280.485870,699.941833 296.255585,725.632019 
	C302.499268,735.803528 313.944153,740.796448 324.879822,737.822998 
	C335.621185,734.902283 340.124969,725.011536 333.429749,716.190552 
	C327.900879,708.906189 320.435822,703.054749 313.631775,696.781982 
	C295.089478,679.687439 286.953735,652.218140 299.101715,629.688416 
	C306.932373,615.165710 321.301849,613.782715 331.161926,627.031616 
	C334.689880,631.772034 337.460144,637.264343 339.651093,642.780884 
	C352.796112,675.878479 370.428345,706.263977 393.703247,733.270569 
	C403.473694,744.607483 414.130005,755.229614 423.325287,767.003235 
	C441.715973,790.550781 442.901733,818.842285 427.967102,844.666382 
	C421.160858,856.435364 413.851044,867.700195 402.882843,876.047913 
	C388.869995,886.713013 372.688599,892.258118 355.526794,894.819702 
	C344.695251,896.436462 333.704315,897.609436 322.769836,897.741943 
	C311.159882,897.882629 299.378082,897.515869 287.943939,895.676270 
	C263.324341,891.715149 238.516495,888.051514 214.448914,881.737854 
	C178.816879,872.390442 144.056152,860.074707 111.952309,841.441345 
	C103.715912,836.660950 95.932388,831.203430 90.623596,822.957947 
	C87.696587,818.411682 86.870064,813.703308 89.601288,808.810669 
	C92.414337,803.771484 96.652710,801.160645 102.575241,800.931274 
	C112.471237,800.548096 121.237381,804.201904 129.752548,808.407898 
	C144.988510,815.933655 159.947647,824.020813 175.200317,831.511292 
	C180.537918,834.132568 186.306305,836.022705 192.052780,837.616333 
	C196.209122,838.768982 200.667450,838.337952 202.928192,833.826355 
	C205.136322,829.419617 204.447311,825.160461 200.987762,821.386353 
	C194.120728,813.895020 185.126434,809.912476 176.010757,806.204041 
	C159.193924,799.362488 142.196198,792.955811 125.477066,785.887329 
	C113.358986,780.763916 101.362389,775.220520 92.369881,764.989319 
	C88.364296,760.431946 85.506142,755.424377 86.306656,749.194885 
	C87.656578,738.690125 95.467323,733.479126 106.497795,735.393799 
	C121.148285,737.936768 134.538773,743.905334 147.396347,751.013611 
	C169.404648,763.180969 191.196701,775.738953 213.118439,788.063843 
	C215.866974,789.609070 218.775635,790.944458 221.741165,792.013428 
	C228.092316,794.302917 231.212875,792.219910 231.994629,785.485535 
	C232.575790,780.479065 231.185913,775.946350 227.299393,772.906982 
	C216.574020,764.519592 206.025879,755.780945 194.596680,748.444580 
	C172.032990,733.961304 148.711319,720.658752 126.151009,706.170471 
	C118.117378,701.011292 110.986069,694.229797 104.160622,687.464722 
	C96.600967,679.971985 96.677917,670.687622 102.907936,662.641785 
	C108.062248,655.985168 114.979599,656.079407 121.975960,657.577393 
	C136.062881,660.593445 148.297562,667.844788 160.227066,675.535400 
	C185.331726,691.719666 208.738190,710.089111 230.913223,730.114502 
	C238.026382,736.538269 246.081375,741.991455 254.087708,747.313660 
	C256.799835,749.116577 260.678192,749.795837 264.041992,749.850159 
	C270.138519,749.948608 273.629852,744.871887 270.488068,739.745178 
	C265.830902,732.145691 260.576385,724.712280 254.490097,718.227478 
	C238.646179,701.346252 222.211105,685.019836 205.762299,668.219116 
z"/>
<path fill="#3B3B45" opacity="1.000000" stroke="none" 
	d="
M427.588776,621.676392 
	C409.769653,609.625671 396.892059,593.298157 386.848541,574.533813 
	C378.696625,559.303528 373.092590,543.108154 370.273163,526.132996 
	C368.899597,517.863342 368.914856,509.267822 369.182037,500.847748 
	C369.443634,492.605133 376.676147,488.715942 386.215393,491.581787 
	C392.236084,493.390564 397.999451,496.095428 403.807800,498.564087 
	C424.140625,507.205841 444.255493,516.398865 464.822418,524.437805 
	C478.553650,529.804871 493.242279,532.125183 508.021484,531.892822 
	C529.965149,531.547791 550.867859,525.849915 570.910339,517.254883 
	C586.192200,510.701416 601.040344,503.139557 616.292358,496.511627 
	C622.121338,493.978516 628.437805,491.951569 634.710876,491.213440 
	C642.341675,490.315521 646.089722,494.263519 645.894958,502.184662 
	C645.671936,511.249695 645.438965,520.431885 643.858948,529.323120 
	C639.845886,551.906738 631.963074,573.219910 617.843567,591.464783 
	C610.274902,601.244751 600.809021,609.556519 591.704224,618.188354 
	C580.487244,598.574097 564.611633,585.232971 544.222839,577.134766 
	C536.186829,573.942993 534.413879,574.450562 529.157898,581.568909 
	C525.300964,586.792419 521.938965,592.401733 517.856567,597.433472 
	C512.412354,604.143555 508.214783,603.955322 503.067535,597.051392 
	C500.187103,593.187927 497.784454,588.970154 495.124115,584.940002 
	C493.657166,582.717712 492.145660,580.521912 490.577484,578.370056 
	C488.121094,574.999329 485.091705,574.059937 480.974365,575.503906 
	C457.080566,583.883179 439.077881,598.993958 427.588776,621.676392 
z"/>
<path fill="#FE323D" opacity="1.000000" stroke="none" 
	d="
M427.813904,621.907166 
	C439.077881,598.993958 457.080566,583.883179 480.974365,575.503906 
	C485.091705,574.059937 488.121094,574.999329 490.577484,578.370056 
	C492.145660,580.521912 493.657166,582.717712 495.124115,584.940002 
	C497.784454,588.970154 500.187103,593.187927 503.067535,597.051392 
	C508.214783,603.955322 512.412354,604.143555 517.856567,597.433472 
	C521.938965,592.401733 525.300964,586.792419 529.157898,581.568909 
	C534.413879,574.450562 536.186829,573.942993 544.222839,577.134766 
	C564.611633,585.232971 580.487244,598.574097 591.357910,618.224854 
	C582.821777,626.630798 572.555298,632.184448 561.570923,636.018799 
	C515.909607,651.957764 471.810608,649.715332 430.041229,623.617737 
	C429.339539,623.179382 428.704956,622.633606 427.813904,621.907166 
z"/>
<path fill="#3B3C45" opacity="1.000000" stroke="none" 
	d="
M334.295929,335.291199 
	C364.909027,307.459747 412.640656,320.275024 423.197113,358.915375 
	C426.544159,371.166901 425.502045,383.174133 420.097900,394.726410 
	C417.233032,400.850525 414.340576,402.311035 407.710724,400.497803 
	C403.717224,399.405609 399.864319,397.790741 395.964630,396.365845 
	C381.687592,391.149109 375.499054,393.495605 367.657959,404.592590 
	C364.784149,408.659668 361.816803,412.717896 358.433136,416.352905 
	C354.256104,420.840179 350.823761,421.159607 345.503265,418.128143 
	C330.744904,409.719269 321.774506,397.079132 319.122009,380.341583 
	C316.367615,362.961395 322.007996,348.122009 334.295929,335.291199 
z"/>
<path fill="#3B3C45" opacity="1.000000" stroke="none" 
	d="
M624.234741,322.024261 
	C651.004272,315.897064 683.025940,327.483093 689.943237,361.066101 
	C694.873718,385.002930 687.004395,404.049469 666.438293,417.159088 
	C659.326233,421.692535 655.551697,421.088593 650.077087,414.563141 
	C646.231201,409.978943 642.777039,405.064178 639.186829,400.267853 
	C634.037720,393.388824 626.995422,392.723816 619.507019,394.708405 
	C613.949646,396.181305 608.645508,398.583557 603.137817,400.276581 
	C596.096436,402.440948 593.220398,400.919220 589.988647,394.400116 
	C575.799133,365.777588 592.820190,330.832581 624.234741,322.024261 
z"/>
<path fill="#FF9D0B" opacity="1.000000" stroke="none" 
	d="
M288.256714,434.282867 
	C272.759918,447.640625 251.882416,445.971222 238.047485,430.540192 
	C226.578552,417.748169 228.145981,396.471741 241.470993,384.068420 
	C255.116150,371.367126 277.033997,372.066406 290.218781,385.780060 
	C302.881653,398.950928 303.372742,420.358185 288.256714,434.282867 
z"/>
<path fill="#FF9D0B" opacity="1.000000" stroke="none" 
	d="
M732.984985,389.052856 
	C743.151489,376.954346 755.614441,372.176788 770.651184,376.496826 
	C785.510071,380.765778 794.094116,391.334076 795.569092,406.422302 
	C797.238770,423.502197 784.749634,440.553680 766.260254,442.825500 
	C745.610901,445.362762 730.012878,433.408508 726.598999,412.914307 
	C725.174744,404.364227 727.887573,396.465210 732.984985,389.052856 
z"/>
</svg>