<svg version="1.1" id="Layer_1" xmlns="http://www.w3.org/2000/svg" xmlns:xlink="http://www.w3.org/1999/xlink" x="0px" y="0px"
	 width="100%" viewBox="0 0 512 512" enable-background="new 0 0 512 512" xml:space="preserve">
<path fill="#000000" opacity="1.000000" stroke="none" 
	d="
M347.000000,513.000000 
	C231.361435,513.000000 116.222862,513.000000 1.042144,513.000000 
	C1.042144,342.403076 1.042144,171.806137 1.042144,1.104599 
	C171.555237,1.104599 342.110565,1.104599 512.832947,1.104599 
	C512.832947,171.666534 512.832947,342.333252 512.832947,513.000000 
	C457.806061,513.000000 402.653046,513.000000 347.000000,513.000000 
M275.785736,293.978516 
	C286.343506,288.025818 295.729248,280.598969 302.713135,270.648682 
	C310.388367,259.713440 313.448517,247.724228 306.553040,235.328918 
	C301.908051,226.979172 296.047485,219.309875 290.809326,211.284866 
	C283.377045,199.898407 281.571869,188.001160 289.455261,176.265747 
	C296.262299,166.132645 305.285339,157.887558 315.309387,150.977570 
	C330.118164,140.769272 345.218140,130.983429 360.104248,121.077461 
	C359.326721,121.147064 358.213348,121.067108 357.210968,121.363129 
	C339.140228,126.699783 321.585815,133.225739 305.008789,142.385529 
	C290.481049,150.412994 277.293823,159.928528 267.280640,173.291565 
	C258.456757,185.067490 255.672348,198.218994 258.860901,212.740479 
	C261.823547,226.233047 269.214203,237.157196 277.920593,247.401062 
	C285.318512,256.105408 288.797394,265.914093 284.378113,276.840607 
	C281.997375,282.726868 277.729858,287.850037 273.838806,293.731079 
	C273.303162,294.352509 272.767517,294.973969 272.231842,295.595398 
	C272.786072,296.116577 273.340271,296.637787 273.894501,297.158966 
	C274.288239,296.133148 274.681976,295.107361 275.785736,293.978516 
M256.697357,279.118073 
	C257.036865,279.286255 257.376373,279.454468 257.715881,279.622650 
	C257.503204,279.058014 257.290527,278.493408 256.997253,277.197052 
	C253.913330,271.876587 250.963409,266.472839 247.718369,261.252533 
	C240.351044,249.400742 232.496140,237.837723 225.501678,225.773376 
	C220.579727,217.283768 219.622391,207.403519 221.272263,198.020309 
	C224.004929,182.478836 233.629303,170.393524 244.777206,159.976944 
	C259.408783,146.305237 276.218506,135.047104 289.158478,119.445450 
	C299.433136,107.057358 308.494049,94.178780 313.110657,78.423805 
	C317.501526,63.439262 316.103088,49.171898 309.565643,35.295692 
	C308.095886,32.175945 305.468903,29.601395 303.374603,26.775867 
	C302.755615,28.504713 302.772491,29.640812 303.028381,30.720234 
	C307.854462,51.076088 304.174438,69.709587 292.501526,87.103722 
	C280.724579,104.652908 264.205475,117.140381 247.972580,129.920212 
	C233.072006,141.651138 218.281219,153.423615 206.244690,168.247543 
	C196.220840,180.592651 193.318726,194.130692 198.700592,209.365448 
	C203.469299,222.864441 211.667053,234.250000 221.224548,244.457367 
	C232.379791,256.371124 244.572220,267.313721 256.697357,279.118073 
M128.813599,426.081329 
	C139.271027,423.327454 149.728455,420.573547 161.226074,417.545746 
	C157.946533,416.945831 155.381012,416.266846 152.775711,416.034912 
	C138.826523,414.793121 125.547615,418.361511 112.865044,423.291351 
	C104.772758,426.436920 97.182434,431.412659 90.181229,436.655121 
	C84.620514,440.819000 85.767113,446.954285 92.238487,449.937531 
	C97.219154,452.233521 102.640610,454.050262 108.048248,454.853516 
	C124.101357,457.238007 140.211975,459.345581 156.361343,460.941956 
	C173.742279,462.660126 191.186325,464.663239 208.614044,464.773865 
	C236.477783,464.950745 264.354156,463.779022 292.217896,462.935699 
	C300.772247,462.676819 309.368591,462.077240 317.828796,460.836395 
	C330.921600,458.915985 344.043823,456.865509 356.915497,453.852936 
	C372.455536,450.215881 388.402557,447.059265 401.459900,436.976715 
	C404.077148,434.955719 406.818634,430.777649 406.537964,427.881470 
	C406.146729,423.844208 402.518036,420.626678 397.493469,420.011597 
	C401.311798,427.069183 401.161774,429.474548 394.149139,433.110840 
	C387.587494,436.513245 380.440887,439.467194 373.217773,440.776947 
	C356.631531,443.784424 339.887634,446.097626 323.122192,447.893646 
	C305.759583,449.753662 288.308167,451.571167 270.873901,451.807556 
	C237.385620,452.261597 203.826859,453.215698 170.460068,448.970276 
	C159.092468,447.523926 147.674713,446.144501 136.480667,443.782867 
	C129.635880,442.338745 122.116638,441.443390 116.951668,435.390625 
	C118.702866,429.780151 124.098366,428.951538 128.813599,426.081329 
M323.610535,311.022003 
	C335.495697,310.370361 343.833313,301.850586 354.118683,297.517365 
	C352.369293,297.066162 350.725220,296.848053 349.157501,297.101776 
	C339.473175,298.669067 329.852081,300.725342 320.122925,301.895142 
	C303.645966,303.876312 287.131012,305.687897 270.582397,306.884064 
	C254.583481,308.040558 238.522293,308.842102 222.487778,308.853790 
	C207.121689,308.865021 191.723465,308.046722 176.403030,306.806610 
	C170.030624,306.290833 163.026886,306.028381 157.163040,300.145233 
	C170.559372,287.514191 188.425171,286.569092 204.918259,280.217773 
	C189.585175,279.109070 175.613953,281.653229 161.926376,285.618500 
	C149.858521,289.114563 137.796127,292.844696 127.173752,299.946747 
	C122.719513,302.924835 122.533157,306.586823 126.920975,309.388489 
	C129.223312,310.858612 131.761765,312.133270 134.367035,312.926880 
	C154.538528,319.071564 175.485062,320.020874 196.273300,320.767181 
	C216.827133,321.505066 237.449478,320.334229 258.041748,319.998688 
	C258.707703,319.987854 259.378082,319.998535 260.038422,319.926239 
	C271.942352,318.624115 283.877655,317.548065 295.737549,315.922760 
	C304.792816,314.681793 313.752350,312.742157 323.610535,311.022003 
M326.944489,406.544128 
	C327.934509,406.158264 328.924530,405.772430 330.691315,405.083862 
	C323.426483,401.513000 316.558685,398.806458 310.437195,394.923401 
	C305.241394,391.627686 300.412537,392.611603 295.063538,393.381012 
	C282.739685,395.153778 270.373444,397.498413 257.986328,397.752045 
	C241.490967,398.089813 224.931366,397.033752 208.458755,395.789886 
	C202.726379,395.356995 196.051529,395.339081 191.908707,388.999695 
	C193.025513,387.214417 194.242462,385.269073 195.974487,382.500366 
	C188.431030,384.643402 181.899673,386.621948 176.879669,391.678375 
	C173.640518,394.941071 172.147186,398.862854 175.976852,402.482483 
	C179.342407,405.663391 182.997955,408.992432 187.157852,410.803131 
	C211.693726,421.483093 237.769073,421.697021 263.836487,420.843658 
	C272.295563,420.566803 280.847504,419.248596 289.095245,417.299347 
	C301.604004,414.343140 313.884064,410.419159 326.944489,406.544128 
M182.668472,345.913757 
	C175.633453,339.786011 183.305099,336.544647 186.102219,331.555176 
	C177.407837,334.637268 169.643616,337.410797 163.314392,343.157959 
	C158.185364,347.815308 159.680176,351.813721 163.936050,356.226410 
	C165.655365,358.009094 168.346878,358.941956 170.713409,359.998505 
	C187.686096,367.575958 205.967529,369.002594 224.053177,369.717255 
	C240.699402,370.375031 257.501373,369.351288 274.118683,367.814087 
	C289.237244,366.415527 304.229462,363.502075 319.217072,360.907990 
	C325.499939,359.820526 331.627380,357.834961 338.246368,356.150574 
	C331.998657,352.270477 326.597473,348.692841 320.957764,345.542267 
	C319.136108,344.524597 316.611969,344.042999 314.537903,344.311340 
	C295.706085,346.747711 276.966095,350.732819 258.073822,351.633179 
	C238.127029,352.583771 218.031738,350.870758 198.026932,349.829285 
	C193.111801,349.573395 188.296310,347.403473 182.668472,345.913757 
M425.480194,444.041260 
	C417.084259,453.094177 405.745453,456.938446 394.583191,460.578339 
	C371.668274,468.050629 347.888641,471.829010 324.059082,474.851166 
	C308.069550,476.879028 291.936920,478.512726 275.841278,478.798096 
	C251.429459,479.230896 226.979889,478.736206 202.574066,477.862030 
	C187.641907,477.327179 172.761017,475.351746 157.858444,474.008362 
	C154.803024,473.732910 151.753616,473.390961 148.701431,473.079651 
	C148.596756,473.552856 148.492081,474.026062 148.387405,474.499298 
	C152.952286,476.001526 157.462646,477.702515 162.091400,478.971832 
	C182.848404,484.663940 204.264984,486.042419 225.540909,486.726532 
	C250.922806,487.542603 276.383209,486.726562 301.783417,485.854340 
	C316.559937,485.346924 331.298279,483.473053 346.030090,481.980347 
	C364.142914,480.145050 381.858429,476.251129 398.887787,469.841309 
	C406.982849,466.794312 414.995941,463.165985 421.062958,456.472595 
	C425.254883,451.847839 427.221527,447.104492 425.480194,444.041260 
M406.924652,312.014069 
	C404.698792,321.928223 399.567749,330.158112 392.333649,337.165802 
	C382.372406,346.815308 371.244537,354.798645 358.818817,361.013733 
	C356.548370,362.149323 354.717621,364.163910 352.683899,365.772766 
	C352.966705,366.221283 353.249512,366.669769 353.532318,367.118286 
	C361.680969,364.389069 370.041412,362.160767 377.933350,358.824310 
	C393.402985,352.284149 408.283661,344.783569 418.805328,330.779510 
	C431.379303,314.043945 429.234436,293.236664 411.425171,281.792816 
	C400.931244,275.049622 389.590240,274.028595 377.609100,276.670319 
	C372.023193,277.902008 366.493469,278.883575 363.185120,285.381592 
	C373.589783,281.730713 383.217529,279.916229 392.939545,285.873016 
	C402.565918,291.771179 407.379822,299.894012 406.924652,312.014069 
z"/>
<path fill="#F8981D" opacity="1.000000" stroke="none" 
	d="
M256.314636,278.677673 
	C244.572220,267.313721 232.379791,256.371124 221.224548,244.457367 
	C211.667053,234.250000 203.469299,222.864441 198.700592,209.365448 
	C193.318726,194.130692 196.220840,180.592651 206.244690,168.247543 
	C218.281219,153.423615 233.072006,141.651138 247.972580,129.920212 
	C264.205475,117.140381 280.724579,104.652908 292.501526,87.103722 
	C304.174438,69.709587 307.854462,51.076088 303.028381,30.720234 
	C302.772491,29.640812 302.755615,28.504713 303.374603,26.775867 
	C305.468903,29.601395 308.095886,32.175945 309.565643,35.295692 
	C316.103088,49.171898 317.501526,63.439262 313.110657,78.423805 
	C308.494049,94.178780 299.433136,107.057358 289.158478,119.445450 
	C276.218506,135.047104 259.408783,146.305237 244.777206,159.976944 
	C233.629303,170.393524 224.004929,182.478836 221.272263,198.020309 
	C219.622391,207.403519 220.579727,217.283768 225.501678,225.773376 
	C232.496140,237.837723 240.351044,249.400742 247.718369,261.252533 
	C250.963409,266.472839 253.913330,271.876587 256.845245,277.748596 
	C256.567047,278.425995 256.440826,278.551849 256.314636,278.677673 
z"/>
<path fill="#5382A1" opacity="1.000000" stroke="none" 
	d="
M128.460663,426.247894 
	C124.098366,428.951538 118.702866,429.780151 116.951668,435.390625 
	C122.116638,441.443390 129.635880,442.338745 136.480667,443.782867 
	C147.674713,446.144501 159.092468,447.523926 170.460068,448.970276 
	C203.826859,453.215698 237.385620,452.261597 270.873901,451.807556 
	C288.308167,451.571167 305.759583,449.753662 323.122192,447.893646 
	C339.887634,446.097626 356.631531,443.784424 373.217773,440.776947 
	C380.440887,439.467194 387.587494,436.513245 394.149139,433.110840 
	C401.161774,429.474548 401.311798,427.069183 397.493469,420.011597 
	C402.518036,420.626678 406.146729,423.844208 406.537964,427.881470 
	C406.818634,430.777649 404.077148,434.955719 401.459900,436.976715 
	C388.402557,447.059265 372.455536,450.215881 356.915497,453.852936 
	C344.043823,456.865509 330.921600,458.915985 317.828796,460.836395 
	C309.368591,462.077240 300.772247,462.676819 292.217896,462.935699 
	C264.354156,463.779022 236.477783,464.950745 208.614044,464.773865 
	C191.186325,464.663239 173.742279,462.660126 156.361343,460.941956 
	C140.211975,459.345581 124.101357,457.238007 108.048248,454.853516 
	C102.640610,454.050262 97.219154,452.233521 92.238487,449.937531 
	C85.767113,446.954285 84.620514,440.819000 90.181229,436.655121 
	C97.182434,431.412659 104.772758,426.436920 112.865044,423.291351 
	C125.547615,418.361511 138.826523,414.793121 152.775711,416.034912 
	C155.381012,416.266846 157.946533,416.945831 161.226074,417.545746 
	C149.728455,420.573547 139.271027,423.327454 128.460663,426.247894 
z"/>
<path fill="#F8981D" opacity="1.000000" stroke="none" 
	d="
M274.313599,293.317505 
	C277.729858,287.850037 281.997375,282.726868 284.378113,276.840607 
	C288.797394,265.914093 285.318512,256.105408 277.920593,247.401062 
	C269.214203,237.157196 261.823547,226.233047 258.860901,212.740479 
	C255.672348,198.218994 258.456757,185.067490 267.280640,173.291565 
	C277.293823,159.928528 290.481049,150.412994 305.008789,142.385529 
	C321.585815,133.225739 339.140228,126.699783 357.210968,121.363129 
	C358.213348,121.067108 359.326721,121.147064 360.104248,121.077461 
	C345.218140,130.983429 330.118164,140.769272 315.309387,150.977570 
	C305.285339,157.887558 296.262299,166.132645 289.455261,176.265747 
	C281.571869,188.001160 283.377045,199.898407 290.809326,211.284866 
	C296.047485,219.309875 301.908051,226.979172 306.553040,235.328918 
	C313.448517,247.724228 310.388367,259.713440 302.713135,270.648682 
	C295.729248,280.598969 286.343506,288.025818 275.241211,293.838013 
	C274.569000,293.570831 274.441315,293.444183 274.313599,293.317505 
z"/>
<path fill="#5382A1" opacity="1.000000" stroke="none" 
	d="
M323.182495,311.067688 
	C313.752350,312.742157 304.792816,314.681793 295.737549,315.922760 
	C283.877655,317.548065 271.942352,318.624115 260.038422,319.926239 
	C259.378082,319.998535 258.707703,319.987854 258.041748,319.998688 
	C237.449478,320.334229 216.827133,321.505066 196.273300,320.767181 
	C175.485062,320.020874 154.538528,319.071564 134.367035,312.926880 
	C131.761765,312.133270 129.223312,310.858612 126.920975,309.388489 
	C122.533157,306.586823 122.719513,302.924835 127.173752,299.946747 
	C137.796127,292.844696 149.858521,289.114563 161.926376,285.618500 
	C175.613953,281.653229 189.585175,279.109070 204.918259,280.217773 
	C188.425171,286.569092 170.559372,287.514191 157.163040,300.145233 
	C163.026886,306.028381 170.030624,306.290833 176.403030,306.806610 
	C191.723465,308.046722 207.121689,308.865021 222.487778,308.853790 
	C238.522293,308.842102 254.583481,308.040558 270.582397,306.884064 
	C287.131012,305.687897 303.645966,303.876312 320.122925,301.895142 
	C329.852081,300.725342 339.473175,298.669067 349.157501,297.101776 
	C350.725220,296.848053 352.369293,297.066162 354.118683,297.517365 
	C343.833313,301.850586 335.495697,310.370361 323.182495,311.067688 
z"/>
<path fill="#5382A1" opacity="1.000000" stroke="none" 
	d="
M326.602875,406.725220 
	C313.884064,410.419159 301.604004,414.343140 289.095245,417.299347 
	C280.847504,419.248596 272.295563,420.566803 263.836487,420.843658 
	C237.769073,421.697021 211.693726,421.483093 187.157852,410.803131 
	C182.997955,408.992432 179.342407,405.663391 175.976852,402.482483 
	C172.147186,398.862854 173.640518,394.941071 176.879669,391.678375 
	C181.899673,386.621948 188.431030,384.643402 195.974487,382.500366 
	C194.242462,385.269073 193.025513,387.214417 191.908707,388.999695 
	C196.051529,395.339081 202.726379,395.356995 208.458755,395.789886 
	C224.931366,397.033752 241.490967,398.089813 257.986328,397.752045 
	C270.373444,397.498413 282.739685,395.153778 295.063538,393.381012 
	C300.412537,392.611603 305.241394,391.627686 310.437195,394.923401 
	C316.558685,398.806458 323.426483,401.513000 330.691315,405.083862 
	C328.924530,405.772430 327.934509,406.158264 326.602875,406.725220 
z"/>
<path fill="#5382A1" opacity="1.000000" stroke="none" 
	d="
M183.051743,346.013611 
	C188.296310,347.403473 193.111801,349.573395 198.026932,349.829285 
	C218.031738,350.870758 238.127029,352.583771 258.073822,351.633179 
	C276.966095,350.732819 295.706085,346.747711 314.537903,344.311340 
	C316.611969,344.042999 319.136108,344.524597 320.957764,345.542267 
	C326.597473,348.692841 331.998657,352.270477 338.246368,356.150574 
	C331.627380,357.834961 325.499939,359.820526 319.217072,360.907990 
	C304.229462,363.502075 289.237244,366.415527 274.118683,367.814087 
	C257.501373,369.351288 240.699402,370.375031 224.053177,369.717255 
	C205.967529,369.002594 187.686096,367.575958 170.713409,359.998505 
	C168.346878,358.941956 165.655365,358.009094 163.936050,356.226410 
	C159.680176,351.813721 158.185364,347.815308 163.314392,343.157959 
	C169.643616,337.410797 177.407837,334.637268 186.102219,331.555176 
	C183.305099,336.544647 175.633453,339.786011 183.051743,346.013611 
z"/>
<path fill="#5382A1" opacity="1.000000" stroke="none" 
	d="
M425.763428,443.832916 
	C427.221527,447.104492 425.254883,451.847839 421.062958,456.472595 
	C414.995941,463.165985 406.982849,466.794312 398.887787,469.841309 
	C381.858429,476.251129 364.142914,480.145050 346.030090,481.980347 
	C331.298279,483.473053 316.559937,485.346924 301.783417,485.854340 
	C276.383209,486.726562 250.922806,487.542603 225.540909,486.726532 
	C204.264984,486.042419 182.848404,484.663940 162.091400,478.971832 
	C157.462646,477.702515 152.952286,476.001526 148.387405,474.499298 
	C148.492081,474.026062 148.596756,473.552856 148.701431,473.079651 
	C151.753616,473.390961 154.803024,473.732910 157.858444,474.008362 
	C172.761017,475.351746 187.641907,477.327179 202.574066,477.862030 
	C226.979889,478.736206 251.429459,479.230896 275.841278,478.798096 
	C291.936920,478.512726 308.069550,476.879028 324.059082,474.851166 
	C347.888641,471.829010 371.668274,468.050629 394.583191,460.578339 
	C405.745453,456.938446 417.084259,453.094177 425.763428,443.832916 
z"/>
<path fill="#5382A1" opacity="1.000000" stroke="none" 
	d="
M406.954681,311.576965 
	C407.379822,299.894012 402.565918,291.771179 392.939545,285.873016 
	C383.217529,279.916229 373.589783,281.730713 363.185120,285.381592 
	C366.493469,278.883575 372.023193,277.902008 377.609100,276.670319 
	C389.590240,274.028595 400.931244,275.049622 411.425171,281.792816 
	C429.234436,293.236664 431.379303,314.043945 418.805328,330.779510 
	C408.283661,344.783569 393.402985,352.284149 377.933350,358.824310 
	C370.041412,362.160767 361.680969,364.389069 353.532318,367.118286 
	C353.249512,366.669769 352.966705,366.221283 352.683899,365.772766 
	C354.717621,364.163910 356.548370,362.149323 358.818817,361.013733 
	C371.244537,354.798645 382.372406,346.815308 392.333649,337.165802 
	C399.567749,330.158112 404.698792,321.928223 406.954681,311.576965 
z"/>
<path fill="#F8981D" opacity="1.000000" stroke="none" 
	d="
M274.886230,293.889526 
	C274.681976,295.107361 274.288239,296.133148 273.894501,297.158966 
	C273.340271,296.637787 272.786072,296.116577 272.231842,295.595398 
	C272.767517,294.973969 273.303162,294.352509 274.076202,293.524292 
	C274.441315,293.444183 274.569000,293.570831 274.886230,293.889526 
z"/>
<path fill="#F8981D" opacity="1.000000" stroke="none" 
	d="
M256.885529,278.114471 
	C257.290527,278.493408 257.503204,279.058014 257.715881,279.622650 
	C257.376373,279.454468 257.036865,279.286255 256.505981,278.897888 
	C256.440826,278.551849 256.567047,278.425995 256.885529,278.114471 
z"/>
</svg>