<svg version="1.1" id="Layer_1" xmlns="http://www.w3.org/2000/svg" xmlns:xlink="http://www.w3.org/1999/xlink" x="0px" y="0px"
	 width="100%" viewBox="0 0 344 344" enable-background="new 0 0 344 344" xml:space="preserve">
<path fill="#000000" opacity="1.000000" stroke="none" 
	d="
M188.000000,345.000000 
	C125.333336,345.000000 63.166668,345.000000 1.000000,345.000000 
	C1.000000,230.333328 1.000000,115.666664 1.000000,1.000000 
	C115.666664,1.000000 230.333328,1.000000 345.000000,1.000000 
	C345.000000,115.666664 345.000000,230.333328 345.000000,345.000000 
	C292.833344,345.000000 240.666672,345.000000 188.000000,345.000000 
M313.115082,166.509369 
	C312.441833,158.510040 312.470978,150.373001 310.935760,142.542679 
	C308.442383,129.825623 305.679016,117.145004 298.241577,105.949043 
	C293.920593,99.444466 291.612976,91.861809 285.363098,86.306984 
	C275.717377,77.733971 267.239380,67.849915 257.622986,59.240211 
	C250.572830,52.928066 243.694916,46.390221 233.417938,44.341522 
	C224.522034,42.568142 215.982193,38.594669 207.564850,34.947720 
	C198.680161,31.098278 189.489273,32.099922 180.331238,32.019035 
	C169.833130,31.926310 159.326859,31.770983 148.837296,32.083580 
	C142.987259,32.257912 137.032822,32.801872 131.382462,34.210388 
	C128.449692,34.941467 126.351006,38.665703 123.402237,39.746403 
	C110.283600,44.554287 98.365372,51.401226 87.022873,59.455410 
	C84.621330,61.160713 81.582649,62.375957 78.677094,62.866299 
	C74.588684,63.556263 68.564041,67.632347 67.102669,71.674988 
	C66.180176,74.226913 65.689316,77.043221 64.288094,79.294899 
	C58.380470,88.788048 52.365814,98.223839 46.083385,107.472122 
	C38.494961,118.642937 34.389248,131.098694 33.255230,144.302811 
	C31.943399,159.577316 31.757139,174.949142 31.127226,190.280548 
	C31.066740,191.752716 31.248722,193.248260 31.447470,194.715439 
	C32.645809,203.561722 34.105671,212.380280 35.002613,221.256149 
	C35.399075,225.179428 34.418964,229.169891 40.087803,230.119965 
	C41.292667,230.321884 42.338493,232.632828 43.098125,234.151855 
	C50.714840,249.382797 60.564507,263.114868 72.778717,274.836670 
	C80.309959,282.064331 89.214737,287.890686 97.681984,294.101990 
	C102.919281,297.943909 108.090401,302.357178 114.011421,304.670929 
	C122.496948,307.986816 131.524887,310.332001 140.531952,311.789093 
	C151.517212,313.566162 162.705948,314.223755 173.833939,314.944611 
	C187.224960,315.812103 200.155151,312.708069 213.051422,309.598785 
	C220.574219,307.785065 227.257233,303.297150 235.548752,303.564972 
	C238.573502,303.662689 243.220459,301.252106 244.499344,298.679443 
	C248.236328,291.161896 254.522522,289.483002 261.722290,288.723755 
	C264.708405,279.077057 265.800262,278.108032 275.338928,274.832184 
	C276.564606,274.411255 277.665192,272.470123 278.075989,271.021240 
	C280.622253,262.040314 281.508575,261.335358 290.927429,259.853394 
	C292.155396,259.660156 293.656921,257.559601 293.998749,256.100525 
	C294.843353,252.495148 293.842682,247.810669 295.791931,245.223907 
	C303.819855,234.570389 306.265076,221.759872 309.776917,209.614120 
	C313.696320,196.058807 313.683044,181.685516 313.115082,166.509369 
z"/>
<path fill="#FCFCFB" opacity="1.000000" stroke="none" 
	d="
M313.115173,167.007751 
	C313.683044,181.685516 313.696320,196.058807 309.776917,209.614120 
	C306.265076,221.759872 303.819855,234.570389 295.791931,245.223907 
	C293.842682,247.810669 294.843353,252.495148 293.998749,256.100525 
	C293.656921,257.559601 292.155396,259.660156 290.927429,259.853394 
	C281.508575,261.335358 280.622253,262.040314 278.075989,271.021240 
	C277.665192,272.470123 276.564606,274.411255 275.338928,274.832184 
	C265.800262,278.108032 264.708405,279.077057 261.720520,288.720825 
	C254.522522,289.483002 248.236328,291.161896 244.499344,298.679443 
	C243.220459,301.252106 238.573502,303.662689 235.548752,303.564972 
	C227.257233,303.297150 220.574219,307.785065 213.051422,309.598785 
	C200.155151,312.708069 187.224960,315.812103 173.833939,314.944611 
	C162.705948,314.223755 151.517212,313.566162 140.531952,311.789093 
	C131.524887,310.332001 122.496948,307.986816 114.011421,304.670929 
	C108.090401,302.357178 102.919281,297.943909 97.681984,294.101990 
	C89.214737,287.890686 80.309959,282.064331 72.778717,274.836670 
	C60.564507,263.114868 50.714840,249.382797 43.098125,234.151855 
	C42.338493,232.632828 41.292667,230.321884 40.087803,230.119965 
	C34.418964,229.169891 35.399075,225.179428 35.002613,221.256149 
	C34.105671,212.380280 32.645809,203.561722 31.447470,194.715439 
	C31.248722,193.248260 31.066740,191.752716 31.127226,190.280548 
	C31.757139,174.949142 31.943399,159.577316 33.255230,144.302811 
	C34.389248,131.098694 38.494961,118.642937 46.083385,107.472122 
	C52.365814,98.223839 58.380470,88.788048 64.288094,79.294899 
	C65.689316,77.043221 66.180176,74.226913 67.102669,71.674988 
	C68.564041,67.632347 74.588684,63.556263 78.677094,62.866299 
	C81.582649,62.375957 84.621330,61.160713 87.022873,59.455410 
	C98.365372,51.401226 110.283600,44.554287 123.402237,39.746403 
	C126.351006,38.665703 128.449692,34.941467 131.382462,34.210388 
	C137.032822,32.801872 142.987259,32.257912 148.837296,32.083580 
	C159.326859,31.770983 169.833130,31.926310 180.331238,32.019035 
	C189.489273,32.099922 198.680161,31.098278 207.564850,34.947720 
	C215.982193,38.594669 224.522034,42.568142 233.417938,44.341522 
	C243.694916,46.390221 250.572830,52.928066 257.622986,59.240211 
	C267.239380,67.849915 275.717377,77.733971 285.363098,86.306984 
	C291.612976,91.861809 293.920593,99.444466 298.241577,105.949043 
	C305.679016,117.145004 308.442383,129.825623 310.935760,142.542679 
	C312.470978,150.373001 312.441833,158.510040 313.115173,167.007751 
M99.888794,71.662766 
	C99.888794,71.662766 99.720200,71.672333 99.141632,71.758881 
	C98.756676,72.169502 98.371719,72.580132 98.000000,73.000305 
	C98.000000,73.000305 97.992012,72.986313 97.364632,73.048592 
	C96.796005,73.629959 96.227379,74.211327 95.107826,75.063828 
	C94.059784,76.017624 93.011734,76.971413 91.296524,78.055153 
	C87.518517,82.028641 83.740509,86.002129 79.998970,90.001556 
	C79.998970,90.001556 79.978127,89.962158 79.474487,90.115273 
	C79.339745,90.423470 79.205002,90.731667 78.998367,91.010849 
	C78.998367,91.010849 79.053413,91.065544 78.441231,91.289017 
	C77.592346,92.508209 76.743462,93.727402 75.471649,95.236549 
	C75.214073,95.673653 74.956497,96.110764 74.118034,96.814522 
	C73.730438,97.533020 73.342834,98.251511 73.000732,98.998901 
	C73.000732,98.998901 72.965195,98.958076 72.357391,99.236107 
	C71.465126,100.735962 70.572868,102.235825 69.855728,103.932686 
	C69.855728,103.932686 69.670410,103.731194 69.078964,103.989006 
	C68.395737,105.332649 67.712509,106.676300 66.804543,108.267181 
	C66.804543,108.267181 66.731209,108.593147 66.130890,108.931648 
	C63.601917,113.729362 61.072941,118.527077 58.543964,123.324791 
	C59.143311,123.828255 59.742661,124.331718 60.342007,124.835182 
	C63.009003,122.293144 65.676003,119.751099 68.719543,117.060463 
	C68.960732,116.918282 69.137787,116.719093 69.834412,116.301117 
	C70.237862,115.879303 70.641312,115.457489 70.999718,115.000778 
	C70.999718,115.000778 71.031784,115.047981 71.659927,114.983475 
	C72.224876,114.396973 72.789818,113.810478 73.694603,113.120819 
	C73.694603,113.120819 73.951355,112.875458 74.602684,112.854813 
	C75.552002,112.006989 76.501312,111.159164 77.762375,110.231415 
	C77.762375,110.231415 77.992035,110.005959 78.524673,109.964516 
	C78.741241,109.697464 78.957802,109.430420 79.035805,109.069077 
	C79.035805,109.069077 79.137672,109.202171 79.805237,109.161682 
	C80.648605,108.511734 81.491974,107.861786 82.684296,107.116814 
	C82.684296,107.116814 82.953827,106.875656 83.582321,106.877800 
	C84.223709,106.371895 84.865097,105.865997 85.985634,105.232597 
	C86.397064,104.965752 86.808502,104.698906 87.823303,104.350800 
	C88.277710,103.981819 88.732117,103.612831 88.970451,103.061729 
	C88.970451,103.061729 89.174995,103.258690 89.773186,103.248833 
	C90.246635,102.924171 90.720085,102.599503 91.020599,102.020119 
	C91.020599,102.020119 91.210609,102.262459 91.759209,102.202797 
	C92.031975,101.966614 92.304733,101.730431 93.190666,101.372063 
	C93.752670,101.106110 94.314674,100.840164 95.583710,100.542671 
	C103.995529,97.486160 112.291962,94.043289 120.852997,91.486374 
	C128.748581,89.128197 136.928223,87.721085 145.634537,85.930237 
	C146.056122,85.830872 146.477692,85.731506 147.681793,85.866501 
	C149.448257,85.547676 151.214737,85.228844 153.724243,84.967888 
	C154.460388,84.871361 155.196548,84.774834 156.823975,84.904663 
	C158.638550,84.732765 160.453125,84.560867 163.031631,84.640846 
	C165.398834,84.444839 167.766022,84.248825 170.994690,84.177826 
	C177.352737,84.340744 183.710785,84.503662 190.841568,84.849113 
	C191.897141,84.880142 192.952728,84.911163 194.634995,85.424019 
	C200.984375,86.461098 207.420593,87.133614 213.662888,88.620323 
	C223.122055,90.873215 232.446381,93.692352 242.021362,96.118881 
	C242.021362,96.118881 241.807968,96.241104 242.205917,96.799408 
	C249.034988,99.991318 255.864044,103.183228 262.985352,106.242371 
	C262.985352,106.242371 262.693146,106.390884 262.959778,106.962341 
	C263.888306,107.418388 264.816803,107.874435 265.990784,108.248337 
	C265.990784,108.248337 265.735504,108.290932 265.965271,108.771782 
	C266.293915,108.878586 266.622528,108.985390 266.979950,109.002640 
	C266.979950,109.002640 266.917755,109.073212 267.228424,109.661911 
	C268.726349,110.555824 270.224304,111.449738 271.730896,112.083374 
	C271.730896,112.083374 271.703827,112.348450 271.927246,112.908890 
	C272.613068,113.281471 273.298920,113.654045 274.000000,113.999168 
	C274.000000,113.999168 273.974304,114.017570 274.222473,114.634460 
	C276.153625,116.083176 278.084778,117.531891 280.000000,119.000000 
	C280.000000,119.000000 280.018341,118.982750 280.256927,119.627144 
	C281.142151,120.588371 281.929321,121.679985 282.956421,122.452614 
	C283.428375,122.807632 284.573029,122.810532 285.038666,122.466690 
	C285.437775,122.171951 285.615051,121.000885 285.357269,120.482552 
	C283.063751,115.870667 280.651581,111.317749 278.056396,106.886269 
	C278.056396,106.886269 278.296387,106.790321 278.262024,106.121918 
	C277.517029,105.069000 276.772003,104.016083 275.998871,102.999214 
	C275.998871,102.999214 276.038727,102.977127 275.982574,102.337929 
	C275.415833,101.728722 274.849121,101.119507 274.229614,100.211487 
	C274.229614,100.211487 274.002502,100.010216 273.955872,99.371964 
	C273.381683,98.776054 272.807495,98.180138 272.106964,97.084564 
	C271.771912,96.708328 271.436859,96.332085 271.023163,95.309265 
	C270.126953,94.440430 269.230713,93.571594 268.029327,92.759666 
	C268.029327,92.759666 268.333527,92.722458 268.237305,92.042488 
	C265.593536,89.265884 262.949799,86.489273 260.308655,83.750984 
	C260.308655,83.750984 260.279755,83.732117 260.138550,83.229240 
	C259.848267,83.058151 259.557983,82.887062 259.267151,82.692917 
	C259.267151,82.692917 259.290985,82.686745 259.123138,82.049759 
	C257.092529,80.341286 255.061890,78.632812 252.751083,76.417778 
	C251.984146,75.859879 251.217194,75.301987 250.155930,74.134918 
	C248.886414,73.294807 247.616898,72.454704 246.372864,71.874329 
	C246.372864,71.874329 246.317108,71.620270 246.111115,71.147125 
	C245.801834,71.018272 245.492554,70.889420 245.161621,70.966415 
	C245.161621,70.966415 245.227875,70.770309 245.035690,70.188026 
	C244.346146,69.820023 243.656616,69.452019 242.740829,68.840950 
	C242.740829,68.840950 242.416306,68.770660 242.088821,68.163887 
	C239.447662,66.646500 236.806519,65.129112 233.843307,63.244644 
	C233.393784,63.067829 232.944260,62.891014 232.124634,62.120899 
	C223.054260,58.568794 213.983871,55.016689 204.313904,51.180573 
	C203.876923,51.127789 203.439957,51.075001 202.467987,50.507999 
	C199.673462,49.993435 196.878937,49.478874 193.781082,48.712818 
	C193.405289,48.763626 193.029510,48.814430 192.132202,48.636051 
	C191.757248,48.649242 191.382278,48.662430 190.747833,48.526913 
	C190.747833,48.526913 190.472778,48.644333 189.800003,48.181320 
	C174.125122,45.604095 158.576126,46.564907 143.305405,50.610081 
	C136.643723,52.374737 130.296249,55.325546 124.036331,57.922424 
	C124.036331,57.922424 123.816322,57.722809 123.178711,57.727184 
	C122.650291,58.054985 122.121864,58.382790 121.264206,58.748840 
	C121.264206,58.748840 120.999107,58.947811 120.291512,58.927116 
	C118.760674,59.811485 117.229843,60.695850 115.970131,61.825165 
	C115.970131,61.825165 115.673744,61.611496 115.063995,61.665398 
	C114.588745,62.027740 114.113495,62.390079 113.130539,62.857170 
	C112.704491,63.136841 112.278450,63.416512 111.178246,63.761337 
	C110.110733,64.501518 109.043228,65.241707 107.999832,66.000732 
	C107.999832,66.000732 107.984673,65.974541 107.347679,66.010345 
	C106.552971,66.663940 105.758263,67.317543 104.998016,68.001740 
	C104.998016,68.001740 104.976013,67.961868 104.334877,67.997078 
	C103.541283,68.657318 102.747681,69.317558 101.518677,70.126923 
	C101.238716,70.278267 101.029266,70.497101 100.365608,70.886543 
	C100.152840,71.156715 99.940071,71.426888 99.888794,71.662766 
M255.295212,261.089966 
	C255.295212,261.089966 255.394150,261.412811 255.957687,261.293793 
	C256.318390,260.866455 256.679077,260.439117 257.486786,259.852661 
	C257.763611,259.670654 257.948975,259.420776 258.686096,258.974731 
	C259.489319,257.996765 260.292511,257.018829 261.638519,255.764526 
	C262.424591,254.846756 263.210663,253.928986 264.561493,252.826309 
	C264.835571,252.324570 265.109680,251.822830 265.415588,251.281509 
	C265.415588,251.281509 265.409882,251.337463 266.016602,251.138916 
	C267.029480,249.766479 268.042358,248.394043 269.482910,246.786926 
	C269.741211,246.567245 269.903931,246.291199 270.603119,245.723953 
	C272.192719,243.251923 273.782318,240.779877 275.157867,238.130051 
	C275.157867,238.130051 275.380920,238.315155 275.985016,238.065079 
	C277.322876,235.706818 278.660706,233.348557 280.216827,230.764420 
	C280.216827,230.764420 280.251648,230.452240 280.860840,230.110382 
	C281.846649,227.737778 282.832489,225.365173 284.220032,222.322189 
	C284.545380,220.971268 284.870728,219.620331 285.196075,218.269409 
	C284.730499,218.003235 284.264893,217.737061 283.799316,217.470886 
	C281.540710,219.654236 279.282104,221.837585 277.000000,224.000000 
	C277.000000,224.000000 277.019135,224.024750 276.362823,224.104538 
	C274.882172,225.381226 273.401520,226.657898 271.998962,227.990616 
	C271.998962,227.990616 271.941528,227.913483 271.333435,227.978317 
	C270.785187,228.533920 270.236969,229.089508 269.768311,229.990433 
	C269.768311,229.990433 269.717499,229.640274 269.058197,229.715439 
	C268.195740,230.378174 267.333282,231.040924 266.182800,231.737274 
	C266.182800,231.737274 266.001923,231.963974 265.291504,232.036865 
	C258.196167,235.756882 251.100845,239.476898 243.451279,243.239883 
	C242.972443,243.516708 242.493607,243.793533 241.250748,244.024536 
	C238.109955,245.075577 235.026688,246.367188 231.818039,247.134460 
	C220.236389,249.903900 208.612564,252.496826 196.355026,255.080521 
	C195.926147,255.146652 195.497269,255.212784 194.190842,255.100632 
	C188.390289,255.420532 182.589157,256.009735 176.789337,255.997009 
	C168.169922,255.978012 159.551422,255.533234 150.211731,255.092926 
	C149.471924,255.078064 148.732132,255.063202 147.380432,254.578888 
	C136.194687,252.063980 124.875641,250.016708 113.867378,246.879089 
	C105.761108,244.568588 98.061050,240.832962 89.962677,237.880951 
	C89.962677,237.880951 90.193153,237.755264 89.875137,237.242386 
	C89.312454,237.063538 88.749779,236.884689 87.982536,236.934494 
	C87.982536,236.934494 88.206184,236.724838 87.901978,236.211960 
	C87.351341,236.023819 86.800705,235.835693 86.192703,235.966110 
	C86.192703,235.966110 86.287216,235.656494 86.016357,235.074188 
	C84.671524,234.391922 83.326691,233.709641 81.757210,232.799072 
	C81.757210,232.799072 81.441902,232.742737 81.121819,232.152435 
	C80.148300,231.672699 79.174782,231.192963 78.133987,230.956009 
	C78.133987,230.956009 78.244324,230.729523 77.999847,230.143707 
	C77.087013,229.652191 76.174171,229.160675 75.276772,228.935043 
	C75.276772,228.935043 75.283768,228.665527 75.054276,228.078247 
	C74.150635,227.589218 73.246986,227.100174 72.009987,226.679016 
	C72.009987,226.679016 72.335007,226.577835 72.122963,225.991791 
	C71.107330,225.293716 70.091698,224.595657 68.996437,223.983688 
	C68.996437,223.983688 69.092606,223.916977 68.863007,223.374619 
	C68.354218,223.118500 67.845428,222.862366 67.084259,222.837204 
	C67.084259,222.837204 67.331810,222.615753 67.170471,222.141388 
	C66.883232,221.990189 66.595985,221.838989 66.145012,221.675903 
	C66.145012,221.675903 66.302177,221.628510 66.087769,221.003479 
	C64.032310,219.218063 61.976845,217.432663 59.921379,215.647247 
	C59.335300,216.047150 58.749226,216.447067 58.163147,216.846970 
	C61.356213,222.385071 64.549278,227.923187 67.792572,233.771210 
	C67.792572,233.771210 68.022903,233.984543 68.033516,234.667496 
	C68.951393,235.906662 69.869270,237.145828 70.917320,238.889847 
	C71.258492,239.267563 71.599663,239.645264 71.993294,240.660919 
	C72.662704,241.441742 73.332115,242.222565 74.000305,243.000000 
	C74.000305,243.000000 73.997345,242.997986 74.054855,243.648880 
	C75.049583,244.745300 76.044304,245.841705 77.212219,247.398026 
	C77.382660,247.696045 77.629417,247.903137 78.052124,248.682693 
	C79.722183,250.419891 81.392250,252.157089 83.341995,254.493179 
	C85.266502,256.306824 87.191002,258.120483 89.297989,260.572021 
	C91.183609,262.081726 93.069237,263.591400 95.199615,265.517426 
	C95.421104,265.771942 95.698700,265.924133 96.269882,266.579132 
	C97.510918,267.390778 98.751945,268.202393 100.000000,268.999146 
	C100.000000,268.999146 99.985725,269.008514 100.259933,269.625092 
	C102.767319,271.180511 105.274704,272.735931 107.969170,274.158905 
	C107.969170,274.158905 107.757210,274.246124 107.976974,274.736267 
	C108.305412,274.849030 108.633850,274.961792 108.985283,274.998749 
	C108.985283,274.998749 108.932571,275.057953 109.255882,275.641815 
	C110.446999,276.181976 111.638107,276.722107 113.023148,277.103516 
	C113.023148,277.103516 112.810196,277.235413 113.131363,277.758911 
	C113.697159,277.979309 114.262955,278.199707 115.162155,278.779938 
	C115.618340,278.944885 116.074532,279.109802 116.905281,279.875305 
	C118.201332,280.357849 119.497391,280.840363 121.035873,281.149719 
	C121.035873,281.149719 120.788681,281.307678 121.149551,281.824677 
	C121.744301,281.999420 122.339050,282.174194 123.119438,282.515015 
	C123.119438,282.515015 123.367332,282.490692 123.795319,283.050262 
	C142.337219,291.410553 161.672470,295.072479 182.649841,292.963379 
	C183.079666,292.886078 183.509506,292.808746 184.802048,292.940552 
	C199.066742,291.501526 212.885712,288.502106 225.793732,281.323700 
	C225.793732,281.323700 226.007095,281.133484 226.728821,281.128937 
	C228.322464,280.191040 229.916122,279.253143 231.795654,278.287445 
	C231.795654,278.287445 231.996994,278.082611 232.594696,278.033600 
	C232.878571,277.766357 233.162460,277.499115 233.758331,277.202423 
	C233.758331,277.202423 233.986694,276.987823 234.659012,276.981232 
	C235.876541,276.121674 237.094070,275.262085 238.034912,274.099213 
	C238.034912,274.099213 238.335068,274.379272 238.961197,274.303589 
	C239.743713,273.665161 240.526215,273.026764 241.312378,272.259247 
	C241.312378,272.259247 241.291809,272.374603 241.901047,272.305695 
	C242.356384,271.920715 242.811722,271.535767 243.656616,271.061554 
	C243.915924,270.956116 244.108093,270.778137 244.836777,270.371429 
	C245.253342,269.938751 245.669922,269.506104 245.997192,269.015656 
	C245.997192,269.015656 246.068436,269.094818 246.705887,269.016083 
	C247.595184,268.173767 248.484482,267.331421 249.271622,266.366150 
	C249.271622,266.366150 249.420883,266.423370 250.070419,266.312653 
	C251.484879,264.995911 252.899338,263.679199 254.082336,262.328674 
	C254.082336,262.328674 254.316071,262.320587 254.801422,262.211609 
	C255.121338,262.043976 255.304550,261.781097 255.295212,261.089966 
M120.765457,170.507614 
	C120.765457,181.443268 120.765457,192.378906 120.765457,203.539124 
	C123.443405,203.539124 125.498680,203.539124 128.070328,203.539124 
	C128.070328,196.698532 128.070328,190.151077 128.070328,183.229965 
	C129.064056,183.659348 129.530533,183.766327 129.883347,184.027115 
	C140.145081,191.611618 152.450958,188.260651 157.257584,176.467087 
	C159.815323,170.191406 159.806229,163.734024 157.484695,157.427063 
	C153.019653,145.296783 139.690536,142.065979 129.941269,150.601349 
	C129.286072,151.174988 128.491074,151.588943 127.555344,152.214767 
	C127.213181,150.158524 126.954056,148.601334 126.721115,147.201477 
	C124.464699,147.201477 122.579842,147.201477 120.765388,147.201477 
	C120.765388,154.907578 120.765388,162.209808 120.765457,170.507614 
M174.653809,194.108109 
	C172.023148,196.072540 169.392487,198.036987 166.500793,200.196335 
	C167.063629,201.889633 167.658890,203.680496 168.299713,205.608475 
	C176.438995,203.442566 181.331390,198.189117 184.187622,191.468521 
	C190.297775,177.091568 195.801987,162.457016 201.525894,147.916733 
	C201.599991,147.728516 201.300064,147.393066 201.203156,147.186859 
	C196.254364,145.618057 193.594604,147.225586 192.252640,152.417084 
	C190.549591,159.005402 188.103409,165.408524 185.816193,171.834030 
	C185.248535,173.428802 184.058990,174.802216 183.058441,176.435455 
	C179.906845,167.821747 177.058533,160.024948 174.201233,152.231430 
	C171.884171,145.911423 171.606369,145.776276 164.432373,147.698273 
	C168.703781,158.374573 172.616898,169.155457 177.343613,179.566971 
	C179.879990,185.153839 179.092514,189.398026 174.653809,194.108109 
M83.582390,180.002884 
	C82.430595,176.124329 80.582008,172.299194 80.279678,168.355515 
	C79.738052,161.290451 80.126991,154.154037 80.126991,147.097061 
	C77.297806,147.097061 75.195862,147.097061 73.099815,147.097061 
	C73.099815,156.882065 72.472961,166.407700 73.272972,175.811951 
	C74.102524,185.563461 82.878014,190.607574 91.890205,187.223846 
	C94.727531,186.158539 97.189285,184.092941 99.848495,182.469574 
	C100.267075,184.010651 100.686111,185.553406 101.073502,186.979675 
	C103.190346,186.979675 104.960777,186.979675 106.746078,186.979675 
	C106.746078,173.579056 106.746078,160.485764 106.746078,147.159119 
	C104.206413,147.159119 102.013153,147.159119 100.035248,147.159119 
	C99.741035,147.680008 99.588654,147.824432 99.587181,147.970352 
	C99.510262,155.630737 99.564117,163.294586 99.349571,170.950912 
	C99.103661,179.726395 92.267975,183.954544 83.582390,180.002884 
M248.075409,148.369446 
	C237.007858,155.159256 236.622375,172.227997 241.959717,180.035614 
	C247.682358,188.406891 261.711884,190.881195 271.822266,184.999557 
	C271.440643,183.675690 271.044098,182.300079 270.664124,180.981842 
	C252.221817,183.228104 244.429276,179.176102 246.790283,168.168152 
	C255.722961,168.168152 264.783630,168.168152 273.756531,168.168152 
	C275.836487,150.852402 263.962677,141.573044 248.075409,148.369446 
M218.161743,135.982605 
	C211.034286,136.923035 215.907455,143.200806 213.434753,146.451477 
	C211.846115,146.652756 210.090118,146.875259 208.320221,147.099518 
	C208.320221,148.948456 208.320221,150.513382 208.320221,152.079803 
	C210.392853,152.392654 212.136093,152.655777 214.281326,152.979568 
	C214.281326,161.046753 214.008423,168.868851 214.355530,176.663315 
	C214.727249,185.010330 218.883011,188.432541 226.861237,188.085754 
	C231.103180,187.901352 232.705200,186.305634 230.889542,182.023041 
	C227.223862,181.795090 222.338028,182.795670 222.036331,177.297043 
	C221.593124,169.219208 221.922119,161.098999 221.922119,152.502243 
	C225.375870,152.502243 228.475708,152.502243 231.839569,152.502243 
	C231.839569,150.413330 231.839569,148.827347 231.839569,146.745453 
	C228.505539,146.745453 225.408859,146.745453 221.631195,146.745453 
	C221.631195,143.646072 221.875290,140.998352 221.506927,138.438766 
	C221.366379,137.462173 219.822128,136.687592 218.161743,135.982605 
M59.245319,174.499039 
	C59.245319,165.407120 59.245319,156.315186 59.245319,147.110764 
	C56.529659,147.110764 54.464764,147.110764 51.857128,147.110764 
	C51.857128,159.347595 51.894115,171.283920 51.843822,183.219864 
	C51.811546,190.879242 51.436432,198.400925 40.908371,199.068970 
	C41.385353,201.282166 41.721527,202.842010 42.042370,204.330704 
	C52.015865,204.137726 57.572205,199.655899 58.750019,190.444000 
	C59.379410,185.521423 59.109474,180.483871 59.245319,174.499039 
M284.984436,153.577484 
	C284.984436,164.675522 284.984436,175.773560 284.984436,186.911377 
	C287.816864,186.911377 289.902893,186.911377 292.422546,186.911377 
	C292.422546,180.289658 292.392609,173.984680 292.429352,167.680084 
	C292.488678,157.500916 294.969116,154.409271 304.685181,152.305527 
	C304.685181,150.253448 304.685181,148.223938 304.685181,146.253265 
	C298.684357,144.933975 295.583313,148.972015 291.804810,152.521912 
	C291.431854,150.383789 291.155151,148.797470 290.880920,147.225189 
	C288.832916,147.225189 286.969910,147.225189 284.973358,147.225189 
	C284.973358,149.304626 284.973358,150.954742 284.984436,153.577484 
z"/>
<path fill="#E16D2E" opacity="1.000000" stroke="none" 
	d="
M203.002975,51.022213 
	C203.439957,51.075001 203.876923,51.127789 204.725952,51.640602 
	C210.323425,54.079704 215.516190,56.039845 220.691895,58.044003 
	C224.637375,59.571793 228.561249,61.155418 232.494736,62.714203 
	C232.944260,62.891014 233.393784,63.067829 234.060120,63.786102 
	C236.990067,65.808594 239.703186,67.289627 242.416306,68.770660 
	C242.416306,68.770660 242.740829,68.840950 242.903931,69.293152 
	C243.787308,70.087013 244.507599,70.428658 245.227875,70.770309 
	C245.227875,70.770309 245.161621,70.966415 245.233246,71.141502 
	C245.642288,71.417816 245.979706,71.519043 246.317108,71.620270 
	C246.317108,71.620270 246.372864,71.874329 246.359177,72.116615 
	C247.713745,73.153961 249.082001,73.949020 250.450256,74.744087 
	C251.217194,75.301987 251.984146,75.859879 252.902161,77.023987 
	C255.132477,79.315712 257.211731,81.001228 259.290985,82.686737 
	C259.290985,82.686745 259.267151,82.692917 259.286072,82.991364 
	C259.629883,83.437248 259.954834,83.584679 260.279755,83.732117 
	C260.279755,83.732117 260.308655,83.750984 260.234314,84.092331 
	C262.884460,87.196602 265.609009,89.959534 268.333527,92.722458 
	C268.333527,92.722458 268.029327,92.759666 268.100891,93.093124 
	C269.148895,94.269669 270.125336,95.112755 271.101807,95.955841 
	C271.436859,96.332085 271.771912,96.708328 272.118805,97.693130 
	C272.754608,98.871201 273.378540,99.440704 274.002502,100.010216 
	C274.002502,100.010216 274.229614,100.211487 274.192749,100.726685 
	C274.783508,101.820290 275.411102,102.398712 276.038727,102.977127 
	C276.038727,102.977127 275.998871,102.999214 275.985962,103.342224 
	C276.747467,104.720268 277.521912,105.755295 278.296387,106.790329 
	C278.296387,106.790321 278.056396,106.886269 278.095184,107.193512 
	C279.478302,110.440689 280.755005,113.414047 282.186859,116.310692 
	C283.492767,118.952515 281.793671,118.950150 280.018341,118.982750 
	C280.018341,118.982750 280.000000,119.000000 279.980530,118.639481 
	C277.965454,116.858505 275.969879,115.438042 273.974304,114.017578 
	C273.974304,114.017570 274.000000,113.999168 273.959412,113.667152 
	C273.180511,113.006241 272.442169,112.677345 271.703827,112.348450 
	C271.703827,112.348450 271.730896,112.083374 271.699707,111.848038 
	C270.084961,110.766212 268.501343,109.919708 266.917755,109.073212 
	C266.917755,109.073212 266.979950,109.002640 266.859924,108.792892 
	C266.405090,108.485733 266.070312,108.388329 265.735504,108.290932 
	C265.735504,108.290932 265.990784,108.248337 265.831940,107.928535 
	C264.679779,107.202782 263.686462,106.796829 262.693146,106.390884 
	C262.693146,106.390884 262.985352,106.242371 262.820129,105.945183 
	C255.705948,102.512360 248.756958,99.376732 241.807968,96.241104 
	C241.807968,96.241104 242.021362,96.118881 241.838257,95.829956 
	C241.322250,95.182198 241.049179,94.607361 240.647675,94.496101 
	C230.375885,91.649918 220.162704,88.534309 209.777039,86.181953 
	C204.688263,85.029327 199.274811,85.310127 194.008301,84.942184 
	C192.952728,84.911163 191.897141,84.880142 190.314392,84.397453 
	C189.218597,83.656410 188.651566,83.118340 188.081100,83.114662 
	C178.265244,83.051468 168.448502,83.011330 158.633499,83.113808 
	C157.727890,83.123268 156.832718,84.133034 155.932693,84.678314 
	C155.196548,84.774834 154.460388,84.871361 153.102081,84.679138 
	C150.619705,84.804306 148.759491,85.218224 146.899277,85.632141 
	C146.477692,85.731506 146.056122,85.830872 145.039337,85.649826 
	C143.634979,85.271637 142.757614,84.918701 142.026794,85.114052 
	C129.492477,88.464455 116.924500,91.708168 104.489883,95.399681 
	C101.074440,96.413628 98.069824,98.811432 94.876686,100.574219 
	C94.314674,100.840164 93.752670,101.106110 92.573257,101.365265 
	C91.707436,101.659790 91.459023,101.961121 91.210602,102.262459 
	C91.210609,102.262459 91.020599,102.020119 90.783813,102.072243 
	C90.089684,102.502480 89.632347,102.880585 89.175003,103.258698 
	C89.174995,103.258690 88.970451,103.061729 88.738037,103.094681 
	C88.077057,103.562447 87.648499,103.997253 87.219933,104.432060 
	C86.808502,104.698906 86.397064,104.965752 85.395615,105.210281 
	C84.188347,105.750526 83.571083,106.313095 82.953827,106.875656 
	C82.953827,106.875656 82.684296,107.116814 82.154892,107.108490 
	C80.796211,107.800827 79.966942,108.501495 79.137672,109.202164 
	C79.137672,109.202171 79.035805,109.069077 78.837410,109.134720 
	C78.423355,109.468903 78.207695,109.737427 77.992035,110.005959 
	C77.992035,110.005959 77.762375,110.231415 77.245010,110.195435 
	C75.802223,111.064781 74.876785,111.970116 73.951355,112.875458 
	C73.951355,112.875458 73.694603,113.120819 73.170464,113.127487 
	C72.108147,113.772095 71.569969,114.410042 71.031784,115.047989 
	C71.031784,115.047981 70.999718,115.000778 70.687225,115.021484 
	C70.000061,115.515762 69.625381,115.989334 69.250702,116.462898 
	C69.137787,116.719093 68.960732,116.918282 68.164871,117.089325 
	C66.255035,117.638092 64.899879,118.157997 63.134041,118.835472 
	C64.495956,114.957642 65.613586,111.775391 66.731209,108.593147 
	C66.731209,108.593147 66.804543,108.267181 67.263336,108.095490 
	C68.371559,106.526253 69.020981,105.128723 69.670410,103.731194 
	C69.670410,103.731194 69.855728,103.932686 70.128143,103.798775 
	C71.255440,102.095932 72.110313,100.527000 72.965195,98.958076 
	C72.965195,98.958076 73.000732,98.998901 73.335831,98.944824 
	C74.013596,98.109779 74.356255,97.328827 74.698914,96.547867 
	C74.956497,96.110764 75.214073,95.673653 76.043404,95.078979 
	C77.427910,93.636116 78.240662,92.350830 79.053421,91.065544 
	C79.053413,91.065544 78.998367,91.010849 79.268509,90.927750 
	C79.685143,90.550491 79.831635,90.256325 79.978127,89.962158 
	C79.978127,89.962158 79.998970,90.001556 80.329033,89.978165 
	C84.427299,85.944923 88.195496,81.935066 91.963692,77.925209 
	C93.011734,76.971413 94.059784,76.017624 95.735176,74.968979 
	C96.905685,74.244850 97.448853,73.615585 97.992012,72.986313 
	C97.992012,72.986313 98.000000,73.000305 98.312256,72.994583 
	C98.989731,72.550018 99.354965,72.111176 99.720200,71.672333 
	C99.720200,71.672333 99.888794,71.662766 100.094597,71.678421 
	C100.497040,71.390518 100.693680,71.086967 100.890320,70.783417 
	C101.029266,70.497101 101.238716,70.278267 102.094650,70.074890 
	C103.439079,69.335854 104.207550,68.648865 104.976013,67.961868 
	C104.976013,67.961868 104.998016,68.001740 105.337585,68.012558 
	C106.446327,67.340431 107.215500,66.657486 107.984673,65.974541 
	C107.984673,65.974541 107.999832,66.000732 108.349915,66.014252 
	C109.750801,65.250580 110.801598,64.473381 111.852402,63.696186 
	C112.278450,63.416512 112.704491,63.136841 113.732948,62.865635 
	C114.781487,62.453228 115.227615,62.032360 115.673737,61.611496 
	C115.673744,61.611496 115.970131,61.825165 116.186508,61.814770 
	C117.934959,60.852188 119.467033,59.900002 120.999107,58.947811 
	C120.999107,58.947811 121.264206,58.748840 121.778152,58.808853 
	C122.800171,58.486843 123.308243,58.104824 123.816322,57.722809 
	C123.816322,57.722809 124.036331,57.922424 124.313080,57.918694 
	C125.847527,57.546719 127.125755,57.236671 128.359741,56.801239 
	C140.898682,52.376678 153.549896,48.689114 167.079269,48.991383 
	C174.870621,49.165451 182.674530,48.778664 190.472778,48.644333 
	C190.472778,48.644333 190.747833,48.526913 191.073532,48.942459 
	C195.267151,49.912743 199.135056,50.467480 203.002975,51.022213 
z"/>
<path fill="#E26D2D" opacity="1.000000" stroke="none" 
	d="
M89.115509,259.934113 
	C87.191002,258.120483 85.266502,256.306824 83.200882,253.835388 
	C81.357338,251.458160 79.654907,249.738724 77.952484,248.019287 
	C77.629417,247.903137 77.382660,247.696045 77.129868,246.808838 
	C76.030800,245.145752 75.014076,244.071869 73.997345,242.997986 
	C73.997345,242.997986 74.000305,243.000000 74.017998,242.643784 
	C73.337402,241.532700 72.639122,240.777832 71.940842,240.022980 
	C71.599663,239.645264 71.258492,239.267563 70.905228,238.263519 
	C69.936386,236.419647 68.979645,235.202087 68.022903,233.984543 
	C68.022903,233.984543 67.792572,233.771210 67.829956,233.221344 
	C66.842285,230.317184 65.518242,228.035065 64.924957,225.576599 
	C64.650108,224.437683 65.798836,222.955215 66.302177,221.628510 
	C66.302177,221.628510 66.145012,221.675903 66.239090,221.970917 
	C66.666046,222.382538 66.998932,222.499146 67.331810,222.615753 
	C67.331810,222.615753 67.084259,222.837204 67.229889,223.051849 
	C67.947876,223.483307 68.520241,223.700150 69.092606,223.916977 
	C69.092606,223.916977 68.996437,223.983688 69.041634,224.305588 
	C70.169556,225.277603 71.252281,225.927719 72.335007,226.577835 
	C72.335007,226.577835 72.009987,226.679016 72.183823,227.008301 
	C73.333031,227.780243 74.308395,228.222885 75.283768,228.665527 
	C75.283768,228.665527 75.276772,228.935043 75.301895,229.158722 
	C76.299454,229.831421 77.271889,230.280472 78.244324,230.729523 
	C78.244324,230.729523 78.133987,230.956009 78.235733,231.197144 
	C79.372292,231.873077 80.407097,232.307907 81.441902,232.742737 
	C81.441902,232.742737 81.757210,232.799072 81.920929,233.259888 
	C83.485512,234.365967 84.886368,235.011230 86.287216,235.656494 
	C86.287216,235.656494 86.192703,235.966110 86.288452,236.137894 
	C86.991531,236.448059 87.598862,236.586441 88.206184,236.724823 
	C88.206184,236.724838 87.982536,236.934494 88.180428,237.138611 
	C88.983261,237.480255 89.588211,237.617767 90.193153,237.755264 
	C90.193153,237.755264 89.962677,237.880951 90.139801,238.160339 
	C91.229340,239.123016 92.059814,239.974747 93.066414,240.464462 
	C109.155907,248.291840 126.268990,252.793350 143.804092,255.842422 
	C145.114517,256.070282 146.592331,255.335587 147.992325,255.048340 
	C148.732132,255.063202 149.471924,255.078064 150.701096,255.542404 
	C151.580765,256.278442 151.961914,256.801483 152.362747,256.817047 
	C162.766525,257.220856 173.173553,257.839844 183.577164,257.792206 
	C187.411331,257.774628 191.238205,256.163300 195.068390,255.278915 
	C195.497269,255.212784 195.926147,255.146652 196.974945,255.377045 
	C198.411270,255.775757 199.247070,256.046478 200.041183,255.955078 
	C213.745544,254.378189 226.988495,250.917908 239.855179,245.998505 
	C240.697632,245.676422 241.300476,244.727646 242.014771,244.070374 
	C242.493607,243.793533 242.972443,243.516708 243.975052,243.446487 
	C250.614075,240.927795 256.777588,238.302658 262.806610,235.398407 
	C264.118713,234.766342 264.949493,233.135056 266.001923,231.963974 
	C266.001923,231.963974 266.182800,231.737274 266.704102,231.796082 
	C268.056061,231.116699 268.886780,230.378479 269.717499,229.640259 
	C269.717499,229.640274 269.768311,229.990433 270.077576,229.902588 
	C270.905060,229.181000 271.423279,228.547241 271.941528,227.913483 
	C271.941528,227.913483 271.998962,227.990616 272.329132,227.995743 
	C274.112579,226.675491 275.565857,225.350128 277.019135,224.024750 
	C277.019135,224.024750 277.000000,224.000000 277.364807,224.020096 
	C279.465118,223.688919 281.200653,223.337646 282.802246,223.312347 
	C281.862793,225.909622 281.057220,228.180923 280.251648,230.452240 
	C280.251648,230.452240 280.216827,230.764420 279.764771,230.921143 
	C278.002136,233.490295 276.691528,235.902725 275.380920,238.315155 
	C275.380920,238.315155 275.157867,238.130051 274.902710,238.229279 
	C273.088715,240.871948 271.529877,243.415390 269.971069,245.958801 
	C269.903931,246.291199 269.741211,246.567245 268.911072,246.919144 
	C267.362793,248.480057 266.386353,249.908768 265.409882,251.337463 
	C265.409882,251.337463 265.415588,251.281509 265.076660,251.320770 
	C264.490723,251.910431 264.243744,252.460831 263.996765,253.011230 
	C263.210663,253.928986 262.424591,254.846756 261.012146,255.907883 
	C259.604858,257.068512 258.823883,258.085785 258.042938,259.103058 
	C257.948975,259.420776 257.763611,259.670654 256.938019,259.938599 
	C256.057556,260.487305 255.725845,260.950073 255.394150,261.412811 
	C255.394150,261.412811 255.295212,261.089966 255.033340,261.224609 
	C254.619675,261.679688 254.467865,262.000122 254.316071,262.320587 
	C254.316071,262.320587 254.082336,262.328674 253.841736,262.251465 
	C252.207703,263.590637 250.814285,265.006989 249.420883,266.423370 
	C249.420883,266.423370 249.271622,266.366150 248.964386,266.301025 
	C247.794235,267.188873 246.931320,268.141846 246.068420,269.094818 
	C246.068436,269.094818 245.997192,269.015656 245.696457,269.044006 
	C245.008179,269.557434 244.620636,270.042542 244.233093,270.527679 
	C244.108093,270.778137 243.915924,270.956116 243.117676,271.070801 
	C242.149765,271.511566 241.720779,271.943085 241.291809,272.374603 
	C241.291809,272.374603 241.312378,272.259247 240.958786,272.218414 
	C239.848480,272.911469 239.091766,273.645355 238.335068,274.379272 
	C238.335068,274.379272 238.034912,274.099213 237.813965,274.145935 
	C236.390900,275.124359 235.188797,276.056091 233.986694,276.987823 
	C233.986694,276.987823 233.758331,277.202423 233.292786,277.217224 
	C232.550507,277.515533 232.273743,277.799072 231.996994,278.082611 
	C231.996994,278.082611 231.795654,278.287445 231.275085,278.220215 
	C229.172043,279.146454 227.589569,280.139984 226.007095,281.133484 
	C226.007095,281.133484 225.793732,281.323700 225.243256,281.240326 
	C213.630508,284.331879 202.570145,287.513519 191.504471,290.676605 
	C188.992233,291.394684 186.461533,292.048187 183.939331,292.731415 
	C183.509506,292.808746 183.079666,292.886078 182.012131,292.648926 
	C180.726547,292.230469 180.074951,292.016663 179.431351,292.038544 
	C164.461700,292.546875 149.847473,290.539795 135.567154,286.005432 
	C131.535065,284.725128 127.435791,283.656433 123.367332,282.490692 
	C123.367332,282.490692 123.119438,282.515015 122.905128,282.103760 
	C122.056778,281.564209 121.422729,281.435944 120.788681,281.307678 
	C120.788681,281.307678 121.035873,281.149719 120.806396,280.884766 
	C119.228188,280.171448 117.879456,279.723114 116.530724,279.274750 
	C116.074532,279.109802 115.618340,278.944885 114.913857,278.263763 
	C114.047104,277.576874 113.428650,277.406128 112.810196,277.235413 
	C112.810196,277.235413 113.023148,277.103516 112.849930,276.828552 
	C111.428665,276.055023 110.180618,275.556488 108.932571,275.057953 
	C108.932571,275.057953 108.985283,274.998749 108.866058,274.786011 
	C108.416962,274.464233 108.087090,274.355164 107.757210,274.246124 
	C107.757210,274.246124 107.969170,274.158905 107.831497,273.870789 
	C105.124466,272.057953 102.555092,270.533234 99.985725,269.008514 
	C99.985725,269.008514 100.000000,268.999146 99.970474,268.650543 
	C98.638092,267.525970 97.335243,266.749969 96.032402,265.973999 
	C95.698700,265.924133 95.421104,265.771942 95.067810,264.952271 
	C92.995842,262.902771 91.055679,261.418457 89.115509,259.934113 
z"/>
<path fill="#404040" opacity="1.000000" stroke="none" 
	d="
M120.765427,170.009827 
	C120.765388,162.209808 120.765388,154.907578 120.765388,147.201477 
	C122.579842,147.201477 124.464699,147.201477 126.721115,147.201477 
	C126.954056,148.601334 127.213181,150.158524 127.555344,152.214767 
	C128.491074,151.588943 129.286072,151.174988 129.941269,150.601349 
	C139.690536,142.065979 153.019653,145.296783 157.484695,157.427063 
	C159.806229,163.734024 159.815323,170.191406 157.257584,176.467087 
	C152.450958,188.260651 140.145081,191.611618 129.883347,184.027115 
	C129.530533,183.766327 129.064056,183.659348 128.070328,183.229965 
	C128.070328,190.151077 128.070328,196.698532 128.070328,203.539124 
	C125.498680,203.539124 123.443405,203.539124 120.765457,203.539124 
	C120.765457,192.378906 120.765457,181.443268 120.765427,170.009827 
M128.677094,160.606155 
	C128.510483,164.565323 127.976295,168.552063 128.270615,172.476654 
	C128.635651,177.344269 132.554428,181.196304 137.105698,182.032898 
	C142.505569,183.025452 147.679382,181.027435 149.450470,175.986877 
	C150.877609,171.925247 151.414825,167.247223 151.078766,162.941650 
	C150.586411,156.633881 146.451233,152.644836 141.296173,151.958862 
	C135.876648,151.237686 131.883133,153.781464 128.677094,160.606155 
z"/>
<path fill="#434343" opacity="1.000000" stroke="none" 
	d="
M174.887512,193.827087 
	C179.092514,189.398026 179.879990,185.153839 177.343613,179.566971 
	C172.616898,169.155457 168.703781,158.374573 164.432373,147.698273 
	C171.606369,145.776276 171.884171,145.911423 174.201233,152.231430 
	C177.058533,160.024948 179.906845,167.821747 183.058441,176.435455 
	C184.058990,174.802216 185.248535,173.428802 185.816193,171.834030 
	C188.103409,165.408524 190.549591,159.005402 192.252640,152.417084 
	C193.594604,147.225586 196.254364,145.618057 201.203156,147.186859 
	C201.300064,147.393066 201.599991,147.728516 201.525894,147.916733 
	C195.801987,162.457016 190.297775,177.091568 184.187622,191.468521 
	C181.331390,198.189117 176.438995,203.442566 168.299713,205.608475 
	C167.658890,203.680496 167.063629,201.889633 166.500793,200.196335 
	C169.392487,198.036987 172.023148,196.072540 174.887512,193.827087 
z"/>
<path fill="#444444" opacity="1.000000" stroke="none" 
	d="
M83.894554,180.245178 
	C92.267975,183.954544 99.103661,179.726395 99.349571,170.950912 
	C99.564117,163.294586 99.510262,155.630737 99.587181,147.970352 
	C99.588654,147.824432 99.741035,147.680008 100.035248,147.159119 
	C102.013153,147.159119 104.206413,147.159119 106.746078,147.159119 
	C106.746078,160.485764 106.746078,173.579056 106.746078,186.979675 
	C104.960777,186.979675 103.190346,186.979675 101.073502,186.979675 
	C100.686111,185.553406 100.267075,184.010651 99.848495,182.469574 
	C97.189285,184.092941 94.727531,186.158539 91.890205,187.223846 
	C82.878014,190.607574 74.102524,185.563461 73.272972,175.811951 
	C72.472961,166.407700 73.099815,156.882065 73.099815,147.097061 
	C75.195862,147.097061 77.297806,147.097061 80.126991,147.097061 
	C80.126991,154.154037 79.738052,161.290451 80.279678,168.355515 
	C80.582008,172.299194 82.430595,176.124329 83.894554,180.245178 
z"/>
<path fill="#404040" opacity="1.000000" stroke="none" 
	d="
M248.411713,148.187195 
	C263.962677,141.573044 275.836487,150.852402 273.756531,168.168152 
	C264.783630,168.168152 255.722961,168.168152 246.790283,168.168152 
	C244.429276,179.176102 252.221817,183.228104 270.664124,180.981842 
	C271.044098,182.300079 271.440643,183.675690 271.822266,184.999557 
	C261.711884,190.881195 247.682358,188.406891 241.959717,180.035614 
	C236.622375,172.227997 237.007858,155.159256 248.411713,148.187195 
M263.175964,153.206909 
	C254.514572,148.624420 246.595978,153.115387 246.400894,163.046570 
	C249.863708,163.046570 253.325897,163.046570 256.788086,163.046570 
	C260.165863,163.046570 263.543610,163.046570 268.323273,163.046570 
	C266.411407,159.129990 265.086334,156.415512 263.175964,153.206909 
z"/>
<path fill="#474747" opacity="1.000000" stroke="none" 
	d="
M218.539673,135.901779 
	C219.822128,136.687592 221.366379,137.462173 221.506927,138.438766 
	C221.875290,140.998352 221.631195,143.646072 221.631195,146.745453 
	C225.408859,146.745453 228.505539,146.745453 231.839569,146.745453 
	C231.839569,148.827347 231.839569,150.413330 231.839569,152.502243 
	C228.475708,152.502243 225.375870,152.502243 221.922119,152.502243 
	C221.922119,161.098999 221.593124,169.219208 222.036331,177.297043 
	C222.338028,182.795670 227.223862,181.795090 230.889542,182.023041 
	C232.705200,186.305634 231.103180,187.901352 226.861237,188.085754 
	C218.883011,188.432541 214.727249,185.010330 214.355530,176.663315 
	C214.008423,168.868851 214.281326,161.046753 214.281326,152.979568 
	C212.136093,152.655777 210.392853,152.392654 208.320221,152.079803 
	C208.320221,150.513382 208.320221,148.948456 208.320221,147.099518 
	C210.090118,146.875259 211.846115,146.652756 213.434753,146.451477 
	C215.907455,143.200806 211.034286,136.923035 218.539673,135.901779 
z"/>
<path fill="#3F3F3F" opacity="1.000000" stroke="none" 
	d="
M59.245365,174.998627 
	C59.109474,180.483871 59.379410,185.521423 58.750019,190.444000 
	C57.572205,199.655899 52.015865,204.137726 42.042370,204.330704 
	C41.721527,202.842010 41.385353,201.282166 40.908371,199.068970 
	C51.436432,198.400925 51.811546,190.879242 51.843822,183.219864 
	C51.894115,171.283920 51.857128,159.347595 51.857128,147.110764 
	C54.464764,147.110764 56.529659,147.110764 59.245319,147.110764 
	C59.245319,156.315186 59.245319,165.407120 59.245365,174.998627 
z"/>
<path fill="#424242" opacity="1.000000" stroke="none" 
	d="
M284.978882,153.091171 
	C284.973358,150.954742 284.973358,149.304626 284.973358,147.225189 
	C286.969910,147.225189 288.832916,147.225189 290.880920,147.225189 
	C291.155151,148.797470 291.431854,150.383789 291.804810,152.521912 
	C295.583313,148.972015 298.684357,144.933975 304.685181,146.253265 
	C304.685181,148.223938 304.685181,150.253448 304.685181,152.305527 
	C294.969116,154.409271 292.488678,157.500916 292.429352,167.680084 
	C292.392609,173.984680 292.422546,180.289658 292.422546,186.911377 
	C289.902893,186.911377 287.816864,186.911377 284.984436,186.911377 
	C284.984436,175.773560 284.984436,164.675522 284.978882,153.091171 
z"/>
<path fill="#D88D63" opacity="1.000000" stroke="none" 
	d="
M190.136383,48.412827 
	C182.674530,48.778664 174.870621,49.165451 167.079269,48.991383 
	C153.549896,48.689114 140.898682,52.376678 128.359741,56.801239 
	C127.125755,57.236671 125.847527,57.546719 124.197960,57.826321 
	C130.296249,55.325546 136.643723,52.374737 143.305405,50.610081 
	C158.576126,46.564907 174.125122,45.604095 190.136383,48.412827 
z"/>
<path fill="#D7875A" opacity="1.000000" stroke="none" 
	d="
M147.686371,254.813629 
	C146.592331,255.335587 145.114517,256.070282 143.804092,255.842422 
	C126.268990,252.793350 109.155907,248.291840 93.066414,240.464462 
	C92.059814,239.974747 91.229340,239.123016 90.248451,238.086060 
	C98.061050,240.832962 105.761108,244.568588 113.867378,246.879089 
	C124.875641,250.016708 136.194687,252.063980 147.686371,254.813629 
z"/>
<path fill="#D7875A" opacity="1.000000" stroke="none" 
	d="
M123.581329,282.770477 
	C127.435791,283.656433 131.535065,284.725128 135.567154,286.005432 
	C149.847473,290.539795 164.461700,292.546875 179.431351,292.038544 
	C180.074951,292.016663 180.726547,292.230469 181.685516,292.606232 
	C161.672470,295.072479 142.337219,291.410553 123.581329,282.770477 
z"/>
<path fill="#D7875A" opacity="1.000000" stroke="none" 
	d="
M194.321655,85.183105 
	C199.274811,85.310127 204.688263,85.029327 209.777039,86.181953 
	C220.162704,88.534309 230.375885,91.649918 240.647675,94.496101 
	C241.049179,94.607361 241.322250,95.182198 241.741577,95.905975 
	C232.446381,93.692352 223.122055,90.873215 213.662888,88.620323 
	C207.420593,87.133614 200.984375,86.461098 194.321655,85.183105 
z"/>
<path fill="#D88D63" opacity="1.000000" stroke="none" 
	d="
M95.230194,100.558441 
	C98.069824,98.811432 101.074440,96.413628 104.489883,95.399681 
	C116.924500,91.708168 129.492477,88.464455 142.026794,85.114052 
	C142.757614,84.918701 143.634979,85.271637 144.713440,85.632240 
	C136.928223,87.721085 128.748581,89.128197 120.852997,91.486374 
	C112.291962,94.043289 103.995529,97.486160 95.230194,100.558441 
z"/>
<path fill="#D7875A" opacity="1.000000" stroke="none" 
	d="
M194.629608,255.189774 
	C191.238205,256.163300 187.411331,257.774628 183.577164,257.792206 
	C173.173553,257.839844 162.766525,257.220856 152.362747,256.817047 
	C151.961914,256.801483 151.580765,256.278442 151.061493,255.630798 
	C159.551422,255.533234 168.169922,255.978012 176.789337,255.997009 
	C182.589157,256.009735 188.390289,255.420532 194.629608,255.189774 
z"/>
<path fill="#D7875A" opacity="1.000000" stroke="none" 
	d="
M241.632767,244.047455 
	C241.300476,244.727646 240.697632,245.676422 239.855179,245.998505 
	C226.988495,250.917908 213.745544,254.378189 200.041183,255.955078 
	C199.247070,256.046478 198.411270,255.775757 197.299774,255.414978 
	C208.612564,252.496826 220.236389,249.903900 231.818039,247.134460 
	C235.026688,246.367188 238.109955,245.075577 241.632767,244.047455 
z"/>
<path fill="#D7875A" opacity="1.000000" stroke="none" 
	d="
M184.370697,292.835999 
	C186.461533,292.048187 188.992233,291.394684 191.504471,290.676605 
	C202.570145,287.513519 213.630508,284.331879 225.100433,281.235168 
	C212.885712,288.502106 199.066742,291.501526 184.370697,292.835999 
z"/>
<path fill="#D7875A" opacity="1.000000" stroke="none" 
	d="
M156.378326,84.791489 
	C156.832718,84.133034 157.727890,83.123268 158.633499,83.113808 
	C168.448502,83.011330 178.265244,83.051468 188.081100,83.114662 
	C188.651566,83.118340 189.218597,83.656410 189.928024,84.306183 
	C183.710785,84.503662 177.352737,84.340744 170.136444,84.088203 
	C166.941360,84.128708 164.604523,84.258835 162.267700,84.388969 
	C160.453125,84.560867 158.638550,84.732765 156.378326,84.791489 
z"/>
<path fill="#D88D63" opacity="1.000000" stroke="none" 
	d="
M66.431046,108.762398 
	C65.613586,111.775391 64.495956,114.957642 63.134041,118.835472 
	C64.899879,118.157997 66.255035,117.638092 67.976593,117.163620 
	C65.676003,119.751099 63.009003,122.293144 60.342007,124.835182 
	C59.742661,124.331718 59.143311,123.828255 58.543964,123.324791 
	C61.072941,118.527077 63.601917,113.729362 66.431046,108.762398 
z"/>
<path fill="#D7875A" opacity="1.000000" stroke="none" 
	d="
M66.194977,221.315994 
	C65.798836,222.955215 64.650108,224.437683 64.924957,225.576599 
	C65.518242,228.035065 66.842285,230.317184 67.804848,233.066376 
	C64.549278,227.923187 61.356213,222.385071 58.163147,216.846970 
	C58.749226,216.447067 59.335300,216.047150 59.921379,215.647247 
	C61.976845,217.432663 64.032310,219.218063 66.194977,221.315994 
z"/>
<path fill="#D7875A" opacity="1.000000" stroke="none" 
	d="
M232.309692,62.417549 
	C228.561249,61.155418 224.637375,59.571793 220.691895,58.044003 
	C215.516190,56.039845 210.323425,54.079704 205.025757,51.782608 
	C213.983871,55.016689 223.054260,58.568794 232.309692,62.417549 
z"/>
<path fill="#D68355" opacity="1.000000" stroke="none" 
	d="
M265.646729,232.000427 
	C264.949493,233.135056 264.118713,234.766342 262.806610,235.398407 
	C256.777588,238.302658 250.614075,240.927795 244.252167,243.425003 
	C251.100845,239.476898 258.196167,235.756882 265.646729,232.000427 
z"/>
<path fill="#D7875A" opacity="1.000000" stroke="none" 
	d="
M242.006943,96.520256 
	C248.756958,99.376732 255.705948,102.512360 262.674011,106.011566 
	C255.864044,103.183228 249.034988,99.991318 242.006943,96.520256 
z"/>
<path fill="#D7875A" opacity="1.000000" stroke="none" 
	d="
M280.137634,119.304947 
	C281.793671,118.950150 283.492767,118.952515 282.186859,116.310692 
	C280.755005,113.414047 279.478302,110.440689 278.204193,107.124107 
	C280.651581,111.317749 283.063751,115.870667 285.357269,120.482552 
	C285.615051,121.000885 285.437775,122.171951 285.038666,122.466690 
	C284.573029,122.810532 283.428375,122.807632 282.956421,122.452614 
	C281.929321,121.679985 281.142151,120.588371 280.137634,119.304947 
z"/>
<path fill="#D88D63" opacity="1.000000" stroke="none" 
	d="
M91.630112,77.990181 
	C88.195496,81.935066 84.427299,85.944923 80.310806,89.965195 
	C83.740509,86.002129 87.518517,82.028641 91.630112,77.990181 
z"/>
<path fill="#D68355" opacity="1.000000" stroke="none" 
	d="
M282.936157,222.986359 
	C281.200653,223.337646 279.465118,223.688919 277.376556,224.030563 
	C279.282104,221.837585 281.540710,219.654236 283.799316,217.470886 
	C284.264893,217.737061 284.730499,218.003235 285.196075,218.269409 
	C284.870728,219.620331 284.545380,220.971268 283.798981,222.655884 
	C283.377930,222.989563 282.936157,222.986374 282.936157,222.986359 
z"/>
<path fill="#D7875A" opacity="1.000000" stroke="none" 
	d="
M268.285400,92.382477 
	C265.609009,89.959534 262.884460,87.196602 260.232971,84.073166 
	C262.949799,86.489273 265.593536,89.265884 268.285400,92.382477 
z"/>
<path fill="#D7875A" opacity="1.000000" stroke="none" 
	d="
M202.735474,50.765106 
	C199.135056,50.467480 195.267151,49.912743 191.203278,49.016815 
	C191.382278,48.662430 191.757248,48.649242 192.750549,48.795078 
	C193.607376,48.957504 193.845886,48.960907 194.084412,48.964310 
	C196.878937,49.478874 199.673462,49.993435 202.735474,50.765106 
z"/>
<path fill="#D7875A" opacity="1.000000" stroke="none" 
	d="
M242.252563,68.467270 
	C239.703186,67.289627 236.990067,65.808594 234.221161,63.969643 
	C236.806519,65.129112 239.447662,66.646500 242.252563,68.467270 
z"/>
<path fill="#D7875A" opacity="1.000000" stroke="none" 
	d="
M100.122833,269.316803 
	C102.555092,270.533234 105.124466,272.057953 107.737961,273.937012 
	C105.274704,272.735931 102.767319,271.180511 100.122833,269.316803 
z"/>
<path fill="#D88658" opacity="1.000000" stroke="none" 
	d="
M270.287109,245.841385 
	C271.529877,243.415390 273.088715,240.871948 275.009766,238.318176 
	C273.782318,240.779877 272.192719,243.251923 270.287109,245.841385 
z"/>
<path fill="#D7875A" opacity="1.000000" stroke="none" 
	d="
M259.207062,82.368248 
	C257.211731,81.001228 255.132477,79.315712 253.042236,77.277267 
	C255.061890,78.632812 257.092529,80.341286 259.207062,82.368248 
z"/>
<path fill="#D88658" opacity="1.000000" stroke="none" 
	d="
M275.682983,238.190125 
	C276.691528,235.902725 278.002136,233.490295 279.655640,231.034088 
	C278.660706,233.348557 277.322876,235.706818 275.682983,238.190125 
z"/>
<path fill="#D7875A" opacity="1.000000" stroke="none" 
	d="
M89.206757,260.253052 
	C91.055679,261.418457 92.995842,262.902771 94.945435,264.744110 
	C93.069237,263.591400 91.183609,262.081726 89.206757,260.253052 
z"/>
<path fill="#D7875A" opacity="1.000000" stroke="none" 
	d="
M274.098389,114.326019 
	C275.969879,115.438042 277.965454,116.858505 279.988464,118.629784 
	C278.084778,117.531891 276.153625,116.083176 274.098389,114.326019 
z"/>
<path fill="#D7875A" opacity="1.000000" stroke="none" 
	d="
M78.002304,248.350983 
	C79.654907,249.738724 81.357338,251.458160 83.061043,253.535950 
	C81.392250,252.157089 79.722183,250.419891 78.002304,248.350983 
z"/>
<path fill="#D88658" opacity="1.000000" stroke="none" 
	d="
M282.802246,223.312347 
	C282.936157,222.986374 283.377930,222.989563 283.598145,222.991058 
	C282.832489,225.365173 281.846649,227.737778 280.556213,230.281311 
	C281.057220,228.180923 281.862793,225.909622 282.802246,223.312347 
z"/>
<path fill="#D88D63" opacity="1.000000" stroke="none" 
	d="
M147.290527,85.749321 
	C148.759491,85.218224 150.619705,84.804306 152.730560,84.650200 
	C151.214737,85.228844 149.448257,85.547676 147.290527,85.749321 
z"/>
<path fill="#D88658" opacity="1.000000" stroke="none" 
	d="
M249.745651,266.368011 
	C250.814285,265.006989 252.207703,263.590637 253.957458,262.268372 
	C252.899338,263.679199 251.484879,264.995911 249.745651,266.368011 
z"/>
<path fill="#D68355" opacity="1.000000" stroke="none" 
	d="
M276.690979,224.064636 
	C275.565857,225.350128 274.112579,226.675491 272.290100,227.967712 
	C273.401520,226.657898 274.882172,225.381226 276.690979,224.064636 
z"/>
<path fill="#D88658" opacity="1.000000" stroke="none" 
	d="
M265.713257,251.238190 
	C266.386353,249.908768 267.362793,248.480057 268.697235,247.036484 
	C268.042358,248.394043 267.029480,249.766479 265.713257,251.238190 
z"/>
<path fill="#D88D63" opacity="1.000000" stroke="none" 
	d="
M72.661293,99.097092 
	C72.110313,100.527000 71.255440,102.095932 70.040588,103.700272 
	C70.572868,102.235825 71.465126,100.735962 72.661293,99.097092 
z"/>
<path fill="#D88D63" opacity="1.000000" stroke="none" 
	d="
M120.645309,58.937462 
	C119.467033,59.900002 117.934959,60.852188 116.050949,61.692299 
	C117.229843,60.695850 118.760674,59.811485 120.645309,58.937462 
z"/>
<path fill="#D7875A" opacity="1.000000" stroke="none" 
	d="
M267.073090,109.367561 
	C268.501343,109.919708 270.084961,110.766212 271.695374,111.978180 
	C270.224304,111.449738 268.726349,110.555824 267.073090,109.367561 
z"/>
<path fill="#D7875A" opacity="1.000000" stroke="none" 
	d="
M226.367950,281.131226 
	C227.589569,280.139984 229.172043,279.146454 231.132141,278.234100 
	C229.916122,279.253143 228.322464,280.191040 226.367950,281.131226 
z"/>
<path fill="#D88D63" opacity="1.000000" stroke="none" 
	d="
M162.649658,84.514908 
	C164.604523,84.258835 166.941360,84.128708 169.705704,84.025696 
	C167.766022,84.248825 165.398834,84.444839 162.649658,84.514908 
z"/>
<path fill="#D7875A" opacity="1.000000" stroke="none" 
	d="
M74.026108,243.323425 
	C75.014076,244.071869 76.030800,245.145752 77.043274,246.578888 
	C76.044304,245.841705 75.049583,244.745300 74.026108,243.323425 
z"/>
<path fill="#D7875A" opacity="1.000000" stroke="none" 
	d="
M68.028214,234.326019 
	C68.979645,235.202087 69.936386,236.419647 70.840134,238.011108 
	C69.869270,237.145828 68.951393,235.906662 68.028214,234.326019 
z"/>
<path fill="#D7875A" opacity="1.000000" stroke="none" 
	d="
M250.303101,74.439499 
	C249.082001,73.949020 247.713745,73.153961 246.346436,71.986755 
	C247.616898,72.454704 248.886414,73.294807 250.303101,74.439499 
z"/>
<path fill="#D7875A" opacity="1.000000" stroke="none" 
	d="
M86.151787,235.365341 
	C84.886368,235.011230 83.485512,234.365967 82.033257,233.374054 
	C83.326691,233.709641 84.671524,234.391922 86.151787,235.365341 
z"/>
<path fill="#D88D63" opacity="1.000000" stroke="none" 
	d="
M78.747330,91.177277 
	C78.240662,92.350830 77.427910,93.636116 76.254868,94.933998 
	C76.743462,93.727402 77.592346,92.508209 78.747330,91.177277 
z"/>
<path fill="#D7875A" opacity="1.000000" stroke="none" 
	d="
M96.151138,266.276550 
	C97.335243,266.749969 98.638092,267.525970 99.966965,268.657990 
	C98.751945,268.202393 97.510918,267.390778 96.151138,266.276550 
z"/>
<path fill="#D7875A" opacity="1.000000" stroke="none" 
	d="
M234.322845,276.984528 
	C235.188797,276.056091 236.390900,275.124359 237.952301,274.297577 
	C237.094070,275.262085 235.876541,276.121674 234.322845,276.984528 
z"/>
<path fill="#D88D63" opacity="1.000000" stroke="none" 
	d="
M69.374687,103.860100 
	C69.020981,105.128723 68.371559,106.526253 67.375710,107.971863 
	C67.712509,106.676300 68.395737,105.332649 69.374687,103.860100 
z"/>
<path fill="#D7875A" opacity="1.000000" stroke="none" 
	d="
M72.228989,226.284821 
	C71.252281,225.927719 70.169556,225.277603 69.081444,224.262543 
	C70.091698,224.595657 71.107330,225.293716 72.228989,226.284821 
z"/>
<path fill="#D88658" opacity="1.000000" stroke="none" 
	d="
M258.364502,259.038879 
	C258.823883,258.085785 259.604858,257.068512 260.740784,256.046051 
	C260.292511,257.018829 259.489319,257.996765 258.364502,259.038879 
z"/>
<path fill="#D88D63" opacity="1.000000" stroke="none" 
	d="
M74.277016,112.865128 
	C74.876785,111.970116 75.802223,111.064781 77.089142,110.235390 
	C76.501312,111.159164 75.552002,112.006989 74.277016,112.865128 
z"/>
<path fill="#D88658" opacity="1.000000" stroke="none" 
	d="
M246.387146,269.055450 
	C246.931320,268.141846 247.794235,267.188873 249.015457,266.362518 
	C248.484482,267.331421 247.595184,268.173767 246.387146,269.055450 
z"/>
<path fill="#D7875A" opacity="1.000000" stroke="none" 
	d="
M271.062500,95.632553 
	C270.125336,95.112755 269.148895,94.269669 268.253479,93.064667 
	C269.230713,93.571594 270.126953,94.440430 271.062500,95.632553 
z"/>
<path fill="#D7875A" opacity="1.000000" stroke="none" 
	d="
M109.094223,275.349884 
	C110.180618,275.556488 111.428665,276.055023 112.752960,276.907898 
	C111.638107,276.722107 110.446999,276.181976 109.094223,275.349884 
z"/>
<path fill="#D7875A" opacity="1.000000" stroke="none" 
	d="
M278.279205,106.456123 
	C277.521912,105.755295 276.747467,104.720268 276.000000,103.324203 
	C276.772003,104.016083 277.517029,105.069000 278.279205,106.456123 
z"/>
<path fill="#D7875A" opacity="1.000000" stroke="none" 
	d="
M116.718002,279.575012 
	C117.879456,279.723114 119.228188,280.171448 120.685188,280.971313 
	C119.497391,280.840363 118.201332,280.357849 116.718002,279.575012 
z"/>
<path fill="#D88D63" opacity="1.000000" stroke="none" 
	d="
M111.515320,63.728760 
	C110.801598,64.473381 109.750801,65.250580 108.337860,66.004837 
	C109.043228,65.241707 110.110733,64.501518 111.515320,63.728760 
z"/>
<path fill="#D7875A" opacity="1.000000" stroke="none" 
	d="
M75.169022,228.371887 
	C74.308395,228.222885 73.333031,227.780243 72.350510,226.974365 
	C73.246986,227.100174 74.150635,227.589218 75.169022,228.371887 
z"/>
<path fill="#D7875A" opacity="1.000000" stroke="none" 
	d="
M78.122086,230.436615 
	C77.271889,230.280472 76.299454,229.831421 75.294174,229.025772 
	C76.174171,229.160675 77.087013,229.652191 78.122086,230.436615 
z"/>
<path fill="#D68355" opacity="1.000000" stroke="none" 
	d="
M269.387848,229.677856 
	C268.886780,230.378479 268.056061,231.116699 266.848083,231.779282 
	C267.333282,231.040924 268.195740,230.378174 269.387848,229.677856 
z"/>
<path fill="#D7875A" opacity="1.000000" stroke="none" 
	d="
M81.281860,232.447586 
	C80.407097,232.307907 79.372292,231.873077 78.269379,231.075745 
	C79.174782,231.192963 80.148300,231.672699 81.281860,232.447586 
z"/>
<path fill="#D7875A" opacity="1.000000" stroke="none" 
	d="
M238.648132,274.341431 
	C239.091766,273.645355 239.848480,272.911469 240.956970,272.282959 
	C240.526215,273.026764 239.743713,273.665161 238.648132,274.341431 
z"/>
<path fill="#D88D63" opacity="1.000000" stroke="none" 
	d="
M107.666176,65.992447 
	C107.215500,66.657486 106.446327,67.340431 105.320358,67.997253 
	C105.758263,67.317543 106.552971,66.663940 107.666176,65.992447 
z"/>
<path fill="#D7875A" opacity="1.000000" stroke="none" 
	d="
M71.967072,240.341949 
	C72.639122,240.777832 73.337402,241.532700 74.018608,242.645477 
	C73.332115,242.222565 72.662704,241.441742 71.967072,240.341949 
z"/>
<path fill="#D7875A" opacity="1.000000" stroke="none" 
	d="
M262.826477,106.676613 
	C263.686462,106.796829 264.679779,107.202782 265.709229,107.969604 
	C264.816803,107.874435 263.888306,107.418388 262.826477,106.676613 
z"/>
<path fill="#D88D63" opacity="1.000000" stroke="none" 
	d="
M79.471451,109.181923 
	C79.966942,108.501495 80.796211,107.800827 81.980408,107.155998 
	C81.491974,107.861786 80.648605,108.511734 79.471451,109.181923 
z"/>
<path fill="#D88D63" opacity="1.000000" stroke="none" 
	d="
M104.655441,67.979477 
	C104.207550,68.648865 103.439079,69.335854 102.312347,70.000320 
	C102.747681,69.317558 103.541283,68.657318 104.655441,67.979477 
z"/>
<path fill="#D88D63" opacity="1.000000" stroke="none" 
	d="
M74.408478,96.681198 
	C74.356255,97.328827 74.013596,98.109779 73.313087,98.930374 
	C73.342834,98.251511 73.730438,97.533020 74.408478,96.681198 
z"/>
<path fill="#D7875A" opacity="1.000000" stroke="none" 
	d="
M245.131775,70.479172 
	C244.507599,70.428658 243.787308,70.087013 243.017059,69.414688 
	C243.656616,69.452019 244.346146,69.820023 245.131775,70.479172 
z"/>
<path fill="#D88D63" opacity="1.000000" stroke="none" 
	d="
M71.345856,115.015732 
	C71.569969,114.410042 72.108147,113.772095 73.000549,113.179062 
	C72.789818,113.810478 72.224876,114.396973 71.345856,115.015732 
z"/>
<path fill="#D7875A" opacity="1.000000" stroke="none" 
	d="
M273.979187,99.691086 
	C273.378540,99.440704 272.754608,98.871201 272.181946,97.942963 
	C272.807495,98.180138 273.381683,98.776054 273.979187,99.691086 
z"/>
<path fill="#D7875A" opacity="1.000000" stroke="none" 
	d="
M276.010651,102.657532 
	C275.411102,102.398712 274.783508,101.820290 274.219116,100.876083 
	C274.849121,101.119507 275.415833,101.728722 276.010651,102.657532 
z"/>
<path fill="#D88D63" opacity="1.000000" stroke="none" 
	d="
M83.268074,106.876724 
	C83.571083,106.313095 84.188347,105.750526 85.156044,105.274033 
	C84.865097,105.865997 84.223709,106.371895 83.268074,106.876724 
z"/>
<path fill="#D7875A" opacity="1.000000" stroke="none" 
	d="
M271.815552,112.628670 
	C272.442169,112.677345 273.180511,113.006241 273.951782,113.680878 
	C273.298920,113.654045 272.613068,113.281471 271.815552,112.628670 
z"/>
<path fill="#D88D63" opacity="1.000000" stroke="none" 
	d="
M97.678322,73.017456 
	C97.448853,73.615585 96.905685,74.244850 96.010643,74.833412 
	C96.227379,74.211327 96.796005,73.629959 97.678322,73.017456 
z"/>
<path fill="#D68355" opacity="1.000000" stroke="none" 
	d="
M271.637482,227.945892 
	C271.423279,228.547241 270.905060,229.181000 270.037781,229.729935 
	C270.236969,229.089508 270.785187,228.533920 271.637482,227.945892 
z"/>
<path fill="#D88D63" opacity="1.000000" stroke="none" 
	d="
M87.521622,104.391434 
	C87.648499,103.997253 88.077057,103.562447 88.846069,103.185738 
	C88.732117,103.612831 88.277710,103.981819 87.521622,104.391434 
z"/>
<path fill="#D88D63" opacity="1.000000" stroke="none" 
	d="
M89.474091,103.253769 
	C89.632347,102.880585 90.089684,102.502480 90.870285,102.199600 
	C90.720085,102.599503 90.246635,102.924171 89.474091,103.253769 
z"/>
<path fill="#D7875A" opacity="1.000000" stroke="none" 
	d="
M90.034149,237.498825 
	C89.588211,237.617767 88.983261,237.480255 88.282715,237.024292 
	C88.749779,236.884689 89.312454,237.063538 90.034149,237.498825 
z"/>
<path fill="#D7875A" opacity="1.000000" stroke="none" 
	d="
M241.596436,272.340149 
	C241.720779,271.943085 242.149765,271.511566 242.922897,271.115417 
	C242.811722,271.535767 242.356384,271.920715 241.596436,272.340149 
z"/>
<path fill="#D88658" opacity="1.000000" stroke="none" 
	d="
M244.534943,270.449554 
	C244.620636,270.042542 245.008179,269.557434 245.741104,269.072876 
	C245.669922,269.506104 245.253342,269.938751 244.534943,270.449554 
z"/>
<path fill="#D7875A" opacity="1.000000" stroke="none" 
	d="
M112.970779,277.497162 
	C113.428650,277.406128 114.047104,277.576874 114.747154,278.083862 
	C114.262955,278.199707 113.697159,277.979309 112.970779,277.497162 
z"/>
<path fill="#D7875A" opacity="1.000000" stroke="none" 
	d="
M68.977806,223.645798 
	C68.520241,223.700150 67.947876,223.483307 67.356079,222.936356 
	C67.845428,222.862366 68.354218,223.118500 68.977806,223.645798 
z"/>
<path fill="#D7875A" opacity="1.000000" stroke="none" 
	d="
M88.054077,236.468384 
	C87.598862,236.586441 86.991531,236.448059 86.317139,235.978607 
	C86.800705,235.835693 87.351341,236.023819 88.054077,236.468384 
z"/>
<path fill="#D88658" opacity="1.000000" stroke="none" 
	d="
M255.675919,261.353302 
	C255.725845,260.950073 256.057556,260.487305 256.714539,260.018188 
	C256.679077,260.439117 256.318390,260.866455 255.675919,261.353302 
z"/>
<path fill="#D88D63" opacity="1.000000" stroke="none" 
	d="
M69.542557,116.382004 
	C69.625381,115.989334 70.000061,115.515762 70.709747,115.038940 
	C70.641312,115.457489 70.237862,115.879303 69.542557,116.382004 
z"/>
<path fill="#D88D63" opacity="1.000000" stroke="none" 
	d="
M115.368866,61.638443 
	C115.227615,62.032360 114.781487,62.453228 113.986801,62.813259 
	C114.113495,62.390079 114.588745,62.027740 115.368866,61.638443 
z"/>
<path fill="#D7875A" opacity="1.000000" stroke="none" 
	d="
M120.969116,281.566162 
	C121.422729,281.435944 122.056778,281.564209 122.812302,282.020721 
	C122.339050,282.174194 121.744301,281.999420 120.969116,281.566162 
z"/>
<path fill="#D88658" opacity="1.000000" stroke="none" 
	d="
M264.279114,252.918777 
	C264.243744,252.460831 264.490723,251.910431 265.060730,251.340576 
	C265.109680,251.822830 264.835571,252.324570 264.279114,252.918777 
z"/>
<path fill="#D88D63" opacity="1.000000" stroke="none" 
	d="
M123.497513,57.724998 
	C123.308243,58.104824 122.800171,58.486843 121.942764,58.789726 
	C122.121864,58.382790 122.650291,58.054985 123.497513,57.724998 
z"/>
<path fill="#D88D63" opacity="1.000000" stroke="none" 
	d="
M99.430916,71.715607 
	C99.354965,72.111176 98.989731,72.550018 98.305634,72.989815 
	C98.371719,72.580132 98.756676,72.169502 99.430916,71.715607 
z"/>
<path fill="#D88D63" opacity="1.000000" stroke="none" 
	d="
M91.484909,102.232628 
	C91.459023,101.961121 91.707436,101.659790 92.266678,101.426353 
	C92.304733,101.730431 92.031975,101.966614 91.484909,102.232628 
z"/>
<path fill="#D7875A" opacity="1.000000" stroke="none" 
	d="
M232.295837,278.058105 
	C232.273743,277.799072 232.550507,277.515533 233.136810,277.231934 
	C233.162460,277.499115 232.878571,277.766357 232.295837,278.058105 
z"/>
<path fill="#D88D63" opacity="1.000000" stroke="none" 
	d="
M100.627960,70.834976 
	C100.693680,71.086967 100.497040,71.390518 100.013847,71.695564 
	C99.940071,71.426888 100.152840,71.156715 100.627960,70.834976 
z"/>
<path fill="#D7875A" opacity="1.000000" stroke="none" 
	d="
M265.850403,108.531357 
	C266.070312,108.388329 266.405090,108.485733 266.845520,108.837662 
	C266.622528,108.985390 266.293915,108.878586 265.850403,108.531357 
z"/>
<path fill="#D7875A" opacity="1.000000" stroke="none" 
	d="
M107.867096,274.491211 
	C108.087090,274.355164 108.416962,274.464233 108.854561,274.823914 
	C108.633850,274.961792 108.305412,274.849030 107.867096,274.491211 
z"/>
<path fill="#D7875A" opacity="1.000000" stroke="none" 
	d="
M260.209167,83.480682 
	C259.954834,83.584679 259.629883,83.437248 259.286316,83.002884 
	C259.557983,82.887062 259.848267,83.058151 260.209167,83.480682 
z"/>
<path fill="#D88D63" opacity="1.000000" stroke="none" 
	d="
M78.258354,109.985237 
	C78.207695,109.737427 78.423355,109.468903 78.906693,109.181870 
	C78.957802,109.430420 78.741241,109.697464 78.258354,109.985237 
z"/>
<path fill="#D7875A" opacity="1.000000" stroke="none" 
	d="
M67.251144,222.378571 
	C66.998932,222.499146 66.666046,222.382538 66.320953,221.976868 
	C66.595985,221.838989 66.883232,221.990189 67.251144,222.378571 
z"/>
<path fill="#D88658" opacity="1.000000" stroke="none" 
	d="
M254.558746,262.266113 
	C254.467865,262.000122 254.619675,261.679688 255.061279,261.391113 
	C255.304550,261.781097 255.121338,262.043976 254.558746,262.266113 
z"/>
<path fill="#D7875A" opacity="1.000000" stroke="none" 
	d="
M246.214111,71.383698 
	C245.979706,71.519043 245.642288,71.417816 245.244080,71.038574 
	C245.492554,70.889420 245.801834,71.018272 246.214111,71.383698 
z"/>
<path fill="#D88D63" opacity="1.000000" stroke="none" 
	d="
M79.726303,90.038712 
	C79.831635,90.256325 79.685143,90.550491 79.304459,90.942261 
	C79.205002,90.731667 79.339745,90.423470 79.726303,90.038712 
z"/>
<path fill="#D88D63" opacity="1.000000" stroke="none" 
	d="
M193.932739,48.838562 
	C193.845886,48.960907 193.607376,48.957504 193.011292,48.909672 
	C193.029510,48.814430 193.405289,48.763626 193.932739,48.838562 
z"/>
<path fill="#F8F8F8" opacity="1.000000" stroke="none" 
	d="
M128.805908,160.219513 
	C131.883133,153.781464 135.876648,151.237686 141.296173,151.958862 
	C146.451233,152.644836 150.586411,156.633881 151.078766,162.941650 
	C151.414825,167.247223 150.877609,171.925247 149.450470,175.986877 
	C147.679382,181.027435 142.505569,183.025452 137.105698,182.032898 
	C132.554428,181.196304 128.635651,177.344269 128.270615,172.476654 
	C127.976295,168.552063 128.510483,164.565323 128.805908,160.219513 
z"/>
<path fill="#F4F4F4" opacity="1.000000" stroke="none" 
	d="
M263.468628,153.453964 
	C265.086334,156.415512 266.411407,159.129990 268.323273,163.046570 
	C263.543610,163.046570 260.165863,163.046570 256.788086,163.046570 
	C253.325897,163.046570 249.863708,163.046570 246.400894,163.046570 
	C246.595978,153.115387 254.514572,148.624420 263.468628,153.453964 
z"/>
</svg>