<svg version="1.1" id="Layer_1" xmlns="http://www.w3.org/2000/svg" xmlns:xlink="http://www.w3.org/1999/xlink" x="0px" y="0px"
	 width="100%" viewBox="0 0 400 400" enable-background="new 0 0 400 400" xml:space="preserve">
<path fill="#000000" opacity="1.000000" stroke="none" 
	d="
M172.000000,401.000000 
	C115.073631,401.000000 58.147259,401.000000 1.000000,401.000000 
	C1.000000,345.312622 1.000000,289.624969 1.383130,233.308685 
	C4.571961,241.785172 7.377664,250.890274 10.134235,260.361084 
	C11.561568,264.174530 12.583722,267.921570 14.614605,271.004028 
	C18.195807,276.439484 20.290789,283.202362 27.109148,286.448334 
	C32.092827,292.664398 38.725296,295.798798 45.674828,298.255615 
	C47.900337,299.042419 50.498623,298.774780 53.081856,299.386810 
	C58.936729,300.209564 64.631447,300.890625 70.336678,300.994629 
	C77.138481,301.118652 83.950157,300.771820 90.753845,300.526093 
	C91.120422,300.512878 91.452721,299.550049 91.867126,298.562988 
	C91.952591,295.433105 91.872200,292.764465 92.007378,290.106812 
	C92.898270,272.591827 90.016891,254.953064 93.965210,237.530533 
	C98.357727,218.147842 108.427589,203.748550 128.352249,198.067841 
	C133.430344,196.620010 138.772736,196.099136 144.457993,195.074585 
	C162.058838,194.997498 179.195770,194.934998 196.331635,195.042099 
	C200.760620,195.069763 205.186783,195.885559 209.613312,195.876709 
	C214.543762,195.866867 219.469421,195.180557 224.403900,195.055832 
	C231.915085,194.865997 239.432083,194.906036 247.382202,194.900894 
	C253.735352,193.707626 259.706543,192.672028 265.560638,191.177704 
	C284.858276,186.251724 299.416992,166.542572 298.933868,145.528412 
	C298.953125,112.729889 298.895447,80.396324 298.898926,47.667358 
	C297.119141,38.397198 293.991699,30.268118 285.871643,24.647026 
	C278.980255,17.019518 270.693634,12.329963 261.041809,9.951832 
	C261.012115,9.980781 261.067047,9.929573 260.907684,9.610302 
	C259.176758,8.935275 257.605225,8.579519 255.689926,8.020088 
	C246.477814,6.197887 237.602646,4.614219 228.754395,2.892308 
	C228.072662,2.759641 227.580353,1.653611 227.000000,0.999999 
	C284.924164,1.000000 342.848358,1.000000 401.000000,1.000000 
	C401.000000,54.354012 401.000000,107.708351 400.676880,161.861145 
	C399.926483,162.172867 399.206848,161.735672 399.114716,161.192123 
	C397.010345,148.779526 393.269958,136.903152 385.990784,126.561714 
	C382.700043,121.886620 378.105743,118.129082 374.016388,113.702415 
	C373.630798,113.276314 373.331665,113.103065 373.035767,112.964661 
	C373.038971,112.999519 373.062073,112.932991 373.031830,112.566689 
	C371.161865,110.801140 369.513763,108.917198 367.444336,108.099007 
	C362.443054,106.121628 357.245117,104.641731 351.899292,102.580719 
	C339.284393,102.133575 326.896332,102.015450 314.509430,102.087990 
	C313.390900,102.094528 312.279572,103.330490 311.089172,104.454926 
	C311.398499,120.286446 311.783569,135.658554 312.096069,151.218002 
	C312.023529,151.405334 312.012848,151.806976 311.635742,152.008987 
	C310.253723,157.287582 309.515594,162.436249 308.169312,167.420624 
	C306.808807,172.457489 304.845642,177.331589 303.078522,182.385773 
	C303.010529,182.494537 303.046295,182.748581 302.735962,182.911942 
	C301.918427,184.044525 301.411255,185.013763 300.947388,185.987183 
	C300.990692,185.991364 300.997650,185.904617 300.724731,185.976212 
	C300.272736,186.362946 300.093628,186.678085 299.948761,186.988403 
	C299.983002,186.983582 299.959076,186.918686 299.640472,187.030487 
	C296.469879,190.107513 293.617889,193.072739 290.456665,196.180969 
	C284.430481,199.271408 278.713531,202.218857 272.586365,205.093994 
	C269.795074,205.402252 267.413940,205.782822 264.605316,206.096008 
	C262.112579,206.353119 260.047821,206.957092 257.982056,206.960403 
	C223.762253,207.015198 189.541901,206.912018 155.322891,207.085312 
	C150.525848,207.109589 145.735275,208.406586 140.564102,209.044739 
	C133.812668,212.314270 127.308372,215.430069 121.100845,219.054199 
	C114.606735,222.845612 110.748764,229.329758 108.292114,235.910660 
	C104.203453,246.863419 103.856476,258.623444 104.050369,270.272614 
	C104.110176,273.865784 104.962509,277.453430 104.928360,281.038605 
	C104.881477,285.962128 104.141479,290.877197 104.047943,295.802521 
	C103.889542,304.143982 103.881973,312.492859 104.033806,320.834595 
	C104.253647,332.912598 103.911545,345.069336 105.208435,357.040924 
	C106.655640,370.399902 115.483391,379.035980 127.126419,385.441803 
	C141.039261,393.997803 156.312622,397.187469 172.115982,399.477264 
	C172.179016,400.227020 172.089508,400.613525 172.000000,401.000000 
z"/>
<path fill="#FFD243" opacity="1.000000" stroke="none" 
	d="
M303.046295,182.748581 
	C303.046295,182.748581 303.010529,182.494537 303.409363,182.251038 
	C304.835022,180.555481 306.131653,179.222092 306.833313,177.626999 
	C308.363098,174.149216 309.590088,170.538223 311.285400,166.935760 
	C316.174255,162.350800 320.770325,157.862244 325.252686,153.262817 
	C336.805237,141.408508 348.654541,129.814056 359.649963,117.461266 
	C363.745331,112.860367 366.587067,108.669708 373.062073,112.932991 
	C373.062073,112.932991 373.038971,112.999519 373.170410,113.178619 
	C373.568817,113.556908 373.835846,113.756104 374.102844,113.955276 
	C378.105743,118.129082 382.700043,121.886620 385.990784,126.561714 
	C393.269958,136.903152 397.010345,148.779526 399.114716,161.192123 
	C399.206848,161.735672 399.926483,162.172867 400.676880,162.329803 
	C401.000000,165.361282 401.000000,168.722580 400.678192,172.468491 
	C399.227020,171.968094 398.097656,171.083054 396.070038,169.494095 
	C388.300415,177.579041 380.513885,185.418777 373.031738,193.538940 
	C365.070740,202.178696 357.698914,211.374878 349.540588,219.816620 
	C328.762115,241.316910 307.638550,262.483368 286.780884,283.907806 
	C283.201965,287.583984 280.252991,291.873444 276.544128,295.914825 
	C253.597412,295.960571 231.119461,295.949646 208.641769,296.019470 
	C206.705658,296.025482 204.771210,296.566498 202.704407,296.929016 
	C202.572815,296.999023 202.275940,296.972015 202.063477,297.038452 
	C201.737778,297.199188 201.514771,297.321075 201.530334,297.383026 
	C201.598297,297.653534 201.735519,297.906677 201.711456,298.539124 
	C201.377487,301.879639 201.179672,304.847107 200.979233,308.150024 
	C201.346954,308.990540 201.717300,309.495636 202.042465,310.007446 
	C201.997269,310.014099 201.982483,309.923950 202.266357,310.238708 
	C204.505890,310.732422 206.460602,311.054840 208.417389,311.067902 
	C225.282211,311.180450 242.147400,311.237244 258.993134,311.660309 
	C255.497162,316.227539 252.234467,320.647156 248.490570,324.612518 
	C243.643524,329.746246 238.220078,334.336884 233.389023,339.484406 
	C224.555817,348.896240 216.119705,358.682068 207.241562,368.049988 
	C200.656082,374.998810 193.403549,381.319550 186.886322,388.327545 
	C182.558624,392.981140 179.184891,398.600891 171.963440,399.113983 
	C156.312622,397.187469 141.039261,393.997803 127.118774,385.074493 
	C125.041084,382.517029 122.999641,380.750366 121.229591,378.744232 
	C119.350494,376.614532 117.728905,374.257660 116.286224,371.838562 
	C120.078720,367.729462 123.454712,363.661835 127.103317,359.855560 
	C140.592072,345.783905 154.219391,331.845001 167.701385,317.766937 
	C179.704605,305.233002 191.492661,292.492462 203.538834,280.000458 
	C225.329025,257.403778 247.279343,234.961319 269.031769,212.328552 
	C270.859131,210.427216 271.698273,207.576141 272.996552,205.166306 
	C278.713531,202.218857 284.430481,199.271408 290.838501,196.190582 
	C295.793579,194.352417 299.097565,191.762039 299.959076,186.918686 
	C299.959076,186.918686 299.983002,186.983582 300.196838,186.883789 
	C300.606293,186.490860 300.801971,186.197739 300.997650,185.904617 
	C300.997650,185.904617 300.990692,185.991364 301.296509,185.903992 
	C302.083679,184.793930 302.564972,183.771255 303.046295,182.748581 
z"/>
<path fill="#000000" opacity="1.000000" stroke="none" 
	d="
M1.000000,169.000000 
	C1.000000,113.073425 1.000000,57.146847 1.000000,1.000000 
	C56.020699,1.000000 111.041687,1.000000 166.685059,1.397199 
	C166.638748,2.178935 166.014221,2.747990 165.294693,2.920173 
	C155.384888,5.291648 145.334778,7.176729 135.575867,10.052533 
	C124.411858,13.342394 115.261459,19.841528 108.630547,30.059700 
	C107.238907,33.152287 106.174225,36.087101 105.072540,39.344074 
	C104.996964,40.096554 104.958389,40.526875 104.577126,41.217426 
	C104.491814,49.903011 104.536987,58.341732 105.066887,66.749908 
	C105.586067,74.988052 101.878189,83.331650 105.304962,91.631149 
	C106.022163,91.341148 106.323265,91.113098 106.624756,91.112587 
	C137.257629,91.060661 167.890549,91.013725 198.523376,91.043228 
	C199.544235,91.044212 201.403076,91.751961 201.450180,92.261581 
	C201.783279,95.866470 202.289703,99.629906 201.507706,103.061798 
	C201.258133,104.157104 197.278305,104.943489 195.001266,104.953400 
	C167.318573,105.073914 139.635117,105.023209 111.951866,105.016335 
	C94.137062,105.011909 76.322189,104.982864 58.507607,105.043129 
	C56.969585,105.048332 55.433556,105.641220 53.663563,106.002106 
	C53.430527,106.043083 52.981750,106.193207 52.616928,106.124855 
	C51.151993,106.341240 50.051872,106.625984 48.562992,106.942207 
	C39.629963,108.693237 32.741180,113.394928 26.440023,119.113678 
	C20.206436,124.771111 15.012876,131.316360 11.958011,139.155914 
	C9.193030,146.251556 7.362438,153.706039 4.884848,160.921616 
	C3.921169,163.728165 2.314034,166.313751 1.000000,169.000000 
z"/>
<path fill="#000000" opacity="1.000000" stroke="none" 
	d="
M202.275940,296.972015 
	C202.275940,296.972015 202.572815,296.999023 203.187958,296.995239 
	C215.291748,296.996552 226.780441,297.019440 238.269058,297.003448 
	C274.224792,296.953461 310.180542,296.888794 346.533508,296.901306 
	C350.941681,295.968994 355.065674,295.280884 358.939606,293.894196 
	C366.475555,291.196594 373.179321,287.082336 378.575714,280.792664 
	C378.755249,280.743408 378.847626,280.382721 379.134827,280.225464 
	C381.448608,278.057190 384.068970,276.375458 385.398712,273.977936 
	C391.058868,263.772308 396.430634,253.399384 399.061340,241.872696 
	C399.228760,241.139175 400.332062,240.619263 401.000000,240.000000 
	C401.000000,293.595001 401.000000,347.190033 401.000000,401.000000 
	C345.645966,401.000000 290.291626,401.000000 234.139282,400.664856 
	C234.504501,399.885712 235.632874,399.270264 236.836609,399.025574 
	C244.583176,397.451141 252.469955,396.404327 260.065460,394.299316 
	C266.346375,392.558594 272.646362,390.230682 278.300476,387.035156 
	C287.180664,382.016418 295.407593,375.946228 297.908813,364.740967 
	C298.035980,364.323486 298.080170,364.154541 298.469269,363.780548 
	C298.826630,361.667694 298.839050,359.759918 298.925964,357.683655 
	C299.000488,357.515228 299.001221,357.146851 299.393005,356.931274 
	C299.856506,350.920837 300.035004,345.124420 299.950043,339.331879 
	C299.913513,336.842346 299.330170,334.360779 298.990173,331.683533 
	C298.985077,331.491486 298.836517,331.137115 298.904236,330.674438 
	C298.971954,323.610443 298.971954,317.009155 298.971954,309.923950 
	C266.406708,309.923950 234.194595,309.923950 201.982483,309.923950 
	C201.982483,309.923950 201.997269,310.014099 202.012955,309.670105 
	C201.679718,308.822266 201.330795,308.318451 200.981873,307.814606 
	C201.179672,304.847107 201.377487,301.879639 201.809464,298.236511 
	C202.121078,297.364594 202.198502,297.168304 202.275940,296.972015 
z"/>
<path fill="#3878AE" opacity="1.000000" stroke="none" 
	d="
M1.000000,169.468658 
	C2.314034,166.313751 3.921169,163.728165 4.884848,160.921616 
	C7.362438,153.706039 9.193030,146.251556 11.958011,139.155914 
	C15.012876,131.316360 20.206436,124.771111 26.440023,119.113678 
	C32.741180,113.394928 39.629963,108.693237 48.771030,107.171478 
	C50.572472,106.977249 51.777111,106.585228 52.981750,106.193207 
	C52.981750,106.193207 53.430527,106.043083 54.139175,106.013428 
	C90.641632,105.991020 126.435509,105.975449 162.229019,106.083443 
	C163.764969,106.088074 165.297485,107.233612 166.831604,107.847656 
	C165.888962,109.395767 165.233719,111.261238 163.945526,112.427727 
	C161.019440,115.077385 157.519638,117.116547 154.716324,119.874718 
	C141.900040,132.484573 129.243652,145.256927 116.529716,157.970795 
	C83.332237,191.168106 50.130577,224.361267 16.947754,257.573242 
	C15.039834,259.482849 13.322110,261.648315 10.183363,259.995392 
	C7.377664,250.890274 4.571961,241.785172 1.383130,232.840027 
	C1.000000,232.555557 1.000000,232.111099 1.275653,231.625977 
	C1.848772,231.115265 2.146238,230.645233 2.443705,230.175217 
	C1.962471,230.116806 1.481236,230.058395 1.000000,230.000000 
	C1.000000,209.979111 1.000000,189.958206 1.000000,169.468658 
z"/>
<path fill="#3979AE" opacity="1.000000" stroke="none" 
	d="
M108.957504,29.901924 
	C115.261459,19.841528 124.411858,13.342394 135.575867,10.052533 
	C145.334778,7.176729 155.384888,5.291648 165.294693,2.920173 
	C166.014221,2.747990 166.638748,2.178935 167.153717,1.397199 
	C186.687561,1.000000 206.375122,1.000000 226.531342,0.999999 
	C227.580353,1.653611 228.072662,2.759641 228.754395,2.892308 
	C237.602646,4.614219 246.477814,6.197887 255.898956,8.296830 
	C257.990173,9.161357 259.528595,9.545465 261.067047,9.929573 
	C261.067047,9.929573 261.012115,9.980781 261.019653,10.343462 
	C259.941498,13.046186 259.381561,15.897869 257.683899,17.642290 
	C247.525177,28.080782 237.087311,38.247086 226.776230,48.537899 
	C215.274490,60.017033 203.936447,71.664764 192.238571,82.939697 
	C189.206253,85.862358 185.350861,88.844757 181.418060,89.696419 
	C176.072067,90.854111 170.288300,89.992470 164.692276,89.992905 
	C146.734009,89.994301 128.775085,89.913818 110.818008,90.059845 
	C107.102303,90.090065 105.890160,88.841209 105.938690,85.153580 
	C106.107513,72.327057 106.047279,59.496613 105.954002,46.668533 
	C105.940147,44.762348 105.280640,42.860855 104.919823,40.957191 
	C104.958389,40.526875 104.996964,40.096554 105.428223,39.260155 
	C106.866432,35.870018 107.911964,32.885971 108.957504,29.901924 
M150.456024,66.169243 
	C159.247772,63.747234 161.456635,60.349865 163.117554,49.833351 
	C164.798309,39.191330 152.765030,30.955421 145.706802,32.096802 
	C134.764481,33.866280 128.588150,40.531254 130.022385,53.936829 
	C130.857025,61.738052 140.243057,67.761505 150.456024,66.169243 
z"/>
<path fill="#FFCC3C" opacity="1.000000" stroke="none" 
	d="
M277.013000,295.879578 
	C280.252991,291.873444 283.201965,287.583984 286.780884,283.907806 
	C307.638550,262.483368 328.762115,241.316910 349.540588,219.816620 
	C357.698914,211.374878 365.070740,202.178696 373.031738,193.538940 
	C380.513885,185.418777 388.300415,177.579041 396.070038,169.494095 
	C398.097656,171.083054 399.227020,171.968094 400.678192,172.926559 
	C401.000000,191.020889 401.000000,209.041794 400.638062,227.629807 
	C399.542908,229.417603 398.456879,230.554688 398.144043,231.874985 
	C397.281891,235.513458 396.852722,239.252411 396.056854,242.909103 
	C393.383423,255.193161 387.831573,266.126495 380.384583,276.185455 
	C379.534119,277.334198 379.343933,278.971771 378.847595,280.382721 
	C378.847626,280.382721 378.755249,280.743408 378.257690,280.643555 
	C376.901367,280.949646 375.962830,281.241760 375.196045,281.779022 
	C366.815765,287.650787 358.704132,294.074371 347.705322,294.208252 
	C347.145966,294.215027 346.598999,295.237427 345.576538,295.831482 
	C322.408875,295.877197 299.710938,295.878418 277.013000,295.879578 
z"/>
<path fill="#FECC3E" opacity="1.000000" stroke="none" 
	d="
M299.001221,357.146851 
	C299.001221,357.146851 299.000488,357.515228 298.719666,357.973114 
	C297.978088,360.237244 297.517303,362.043518 297.133087,364.071838 
	C297.358093,364.576233 297.563477,364.808075 297.825836,364.989471 
	C295.407593,375.946228 287.180664,382.016418 278.300476,387.035156 
	C272.646362,390.230682 266.346375,392.558594 260.065460,394.299316 
	C252.469955,396.404327 244.583176,397.451141 236.836609,399.025574 
	C235.632874,399.270264 234.504501,399.885712 233.670624,400.664856 
	C232.285645,401.000000 230.571289,401.000000 228.284882,400.619843 
	C226.907013,399.804962 226.103134,398.995453 225.295105,398.991302 
	C211.495483,398.920227 197.694931,398.907684 183.896210,399.043488 
	C182.924484,399.053040 181.965118,400.318542 181.000000,401.000000 
	C178.299988,401.000000 175.599976,401.000000 172.449982,401.000000 
	C172.089508,400.613525 172.179016,400.227020 172.115982,399.477264 
	C179.184891,398.600891 182.558624,392.981140 186.886322,388.327545 
	C193.403549,381.319550 200.656082,374.998810 207.241562,368.049988 
	C216.119705,358.682068 224.555817,348.896240 233.389023,339.484406 
	C238.220078,334.336884 243.643524,329.746246 248.490570,324.612518 
	C252.234467,320.647156 255.497162,316.227539 259.457123,311.589294 
	C270.931366,311.141907 281.924316,311.227905 292.912079,311.028351 
	C296.857727,310.956665 298.161011,312.445251 298.107330,316.313324 
	C298.038849,321.250275 298.566071,326.195465 298.836517,331.137115 
	C298.836517,331.137115 298.985077,331.491486 298.930328,332.151001 
	C298.843140,336.842224 298.810699,340.873901 298.659851,345.033264 
	C298.508942,345.272034 298.424225,345.400879 298.454620,345.490723 
	C298.525818,345.701324 298.652222,345.893250 298.770691,346.547485 
	C298.857086,350.383820 298.929138,353.765320 299.001221,357.146851 
M239.999573,349.914337 
	C239.306335,357.920563 242.026688,364.428314 249.432449,367.871857 
	C256.067535,370.957031 263.053986,369.291962 268.086212,364.738556 
	C272.718506,360.547089 274.989319,354.512573 273.060211,347.596771 
	C270.762054,339.357910 262.773285,334.766235 254.163879,335.777863 
	C245.685577,336.774078 242.415344,342.164520 239.999573,349.914337 
z"/>
<path fill="#FFD243" opacity="1.000000" stroke="none" 
	d="
M379.134827,280.225464 
	C379.343933,278.971771 379.534119,277.334198 380.384583,276.185455 
	C387.831573,266.126495 393.383423,255.193161 396.056854,242.909103 
	C396.852722,239.252411 397.281891,235.513458 398.144043,231.874985 
	C398.456879,230.554688 399.542908,229.417603 400.638062,228.098465 
	C401.000000,231.692902 401.000000,235.385818 401.000000,239.539352 
	C400.332062,240.619263 399.228760,241.139175 399.061340,241.872696 
	C396.430634,253.399384 391.058868,263.772308 385.398712,273.977936 
	C384.068970,276.375458 381.448608,278.057190 379.134827,280.225464 
z"/>
<path fill="#F3D472" opacity="1.000000" stroke="none" 
	d="
M181.468658,401.000000 
	C181.965118,400.318542 182.924484,399.053040 183.896210,399.043488 
	C197.694931,398.907684 211.495483,398.920227 225.295105,398.991302 
	C226.103134,398.995453 226.907013,399.804962 227.856415,400.619843 
	C212.645767,401.000000 197.291550,401.000000 181.468658,401.000000 
z"/>
<path fill="#000000" opacity="1.000000" stroke="none" 
	d="
M1.000000,230.250000 
	C1.481236,230.058395 1.962471,230.116806 2.443705,230.175217 
	C2.146238,230.645233 1.848772,231.115265 1.275653,231.292633 
	C1.000000,231.000000 1.000000,230.500000 1.000000,230.250000 
z"/>
<path fill="#376D9A" opacity="1.000000" stroke="none" 
	d="
M286.019928,24.946943 
	C293.991699,30.268118 297.119141,38.397198 298.656738,47.996941 
	C298.246490,49.372662 298.046631,50.023296 298.045898,50.674156 
	C298.010986,81.367783 297.984375,112.061432 298.011078,142.755035 
	C298.012024,143.834732 298.562531,144.913925 298.856934,145.993362 
	C299.416992,166.542572 284.858276,186.251724 265.560638,191.177704 
	C259.706543,192.672028 253.735352,193.707626 247.055695,194.651947 
	C245.809921,194.242874 245.326248,194.041077 244.842529,194.040878 
	C212.614136,194.028229 180.385696,194.017914 148.157425,194.081345 
	C146.768814,194.084076 145.381561,194.779556 143.993683,195.152344 
	C138.772736,196.099136 133.430344,196.620010 128.352249,198.067841 
	C108.427589,203.748550 98.357727,218.147842 93.965210,237.530533 
	C90.016891,254.953064 92.898270,272.591827 92.007378,290.106812 
	C91.872200,292.764465 91.952591,295.433105 91.412704,298.570374 
	C78.236877,299.025940 65.581619,299.007751 52.926353,298.989563 
	C50.498623,298.774780 47.900337,299.042419 45.674828,298.255615 
	C38.725296,295.798798 32.092827,292.664398 27.049095,286.163635 
	C31.601913,280.513275 36.245396,275.315460 41.159054,270.387024 
	C69.291534,242.169968 97.366386,213.893661 125.704430,185.883942 
	C145.771500,166.049377 166.291504,146.673920 186.476486,126.957535 
	C196.889465,116.786285 206.974304,106.279984 217.274887,95.992630 
	C239.030502,74.264946 260.856537,52.607651 282.557404,30.825541 
	C284.112091,29.265024 284.884033,26.924688 286.019928,24.946943 
z"/>
<path fill="#FFDA4B" opacity="1.000000" stroke="none" 
	d="
M272.586365,205.093994 
	C271.698273,207.576141 270.859131,210.427216 269.031769,212.328552 
	C247.279343,234.961319 225.329025,257.403778 203.538834,280.000458 
	C191.492661,292.492462 179.704605,305.233002 167.701385,317.766937 
	C154.219391,331.845001 140.592072,345.783905 127.103317,359.855560 
	C123.454712,363.661835 120.078720,367.729462 115.952492,371.759338 
	C109.508011,365.927734 106.245461,358.562164 106.148682,350.537750 
	C105.795319,321.239319 106.006973,291.934052 106.027145,262.631348 
	C106.028038,261.332611 106.239037,260.034027 106.352165,258.735352 
	C106.768745,259.119934 107.185326,259.504486 107.601906,259.889038 
	C110.090363,257.727539 112.627853,255.619537 115.056923,253.393219 
	C119.872086,248.979950 124.602989,244.474640 129.423233,240.067017 
	C130.763931,238.841095 132.480682,237.997330 133.710114,236.683624 
	C141.666443,228.181961 149.553345,219.614944 157.404617,211.016037 
	C158.146576,210.203415 158.485260,209.022614 159.478699,208.010132 
	C193.094559,208.004639 226.243027,208.031723 259.390991,207.920563 
	C261.273560,207.914261 263.152283,206.775208 265.032806,206.163376 
	C267.413940,205.782822 269.795074,205.402252 272.586365,205.093994 
z"/>
<path fill="#3C75A8" opacity="1.000000" stroke="none" 
	d="
M285.871643,24.647024 
	C284.884033,26.924688 284.112091,29.265024 282.557404,30.825541 
	C260.856537,52.607651 239.030502,74.264946 217.274887,95.992630 
	C206.974304,106.279984 196.889465,116.786285 186.476486,126.957535 
	C166.291504,146.673920 145.771500,166.049377 125.704430,185.883942 
	C97.366386,213.893661 69.291534,242.169968 41.159054,270.387024 
	C36.245396,275.315460 31.601913,280.513275 26.893703,285.871338 
	C20.290789,283.202362 18.195807,276.439484 14.614605,271.004028 
	C12.583722,267.921570 11.561568,264.174530 10.134233,260.361084 
	C13.322110,261.648315 15.039834,259.482849 16.947754,257.573242 
	C50.130577,224.361267 83.332237,191.168106 116.529716,157.970795 
	C129.243652,145.256927 141.900040,132.484573 154.716324,119.874718 
	C157.519638,117.116547 161.019440,115.077385 163.945526,112.427727 
	C165.233719,111.261238 165.888962,109.395767 166.831604,107.847656 
	C165.297485,107.233612 163.764969,106.088074 162.229019,106.083443 
	C126.435509,105.975449 90.641632,105.991020 54.372211,105.972450 
	C55.433556,105.641220 56.969585,105.048332 58.507607,105.043129 
	C76.322189,104.982864 94.137062,105.011909 111.951866,105.016335 
	C139.635117,105.023209 167.318573,105.073914 195.001266,104.953400 
	C197.278305,104.943489 201.258133,104.157104 201.507706,103.061798 
	C202.289703,99.629906 201.783279,95.866470 201.450180,92.261581 
	C201.403076,91.751961 199.544235,91.044212 198.523376,91.043228 
	C167.890549,91.013725 137.257629,91.060661 106.624756,91.112587 
	C106.323265,91.113098 106.022163,91.341148 105.304962,91.631149 
	C101.878189,83.331650 105.586067,74.988052 105.066887,66.749908 
	C104.536987,58.341732 104.491814,49.903011 104.577126,41.217426 
	C105.280640,42.860855 105.940147,44.762348 105.954002,46.668533 
	C106.047279,59.496613 106.107513,72.327057 105.938690,85.153580 
	C105.890160,88.841209 107.102303,90.090065 110.818008,90.059845 
	C128.775085,89.913818 146.734009,89.994301 164.692276,89.992905 
	C170.288300,89.992470 176.072067,90.854111 181.418060,89.696419 
	C185.350861,88.844757 189.206253,85.862358 192.238571,82.939697 
	C203.936447,71.664764 215.274490,60.017033 226.776230,48.537899 
	C237.087311,38.247086 247.525177,28.080782 257.683899,17.642290 
	C259.381561,15.897869 259.941498,13.046186 261.049316,10.314514 
	C270.693634,12.329963 278.980255,17.019518 285.871643,24.647024 
z"/>
<path fill="#FED94C" opacity="1.000000" stroke="none" 
	d="
M373.031830,112.566689 
	C366.587067,108.669708 363.745331,112.860367 359.649963,117.461266 
	C348.654541,129.814056 336.805237,141.408508 325.252686,153.262817 
	C320.770325,157.862244 316.174255,162.350800 311.292603,166.505966 
	C311.307709,161.350372 311.660278,156.578674 312.012848,151.806976 
	C312.012848,151.806976 312.023529,151.405334 312.319153,150.866241 
	C312.747650,148.518478 312.989380,146.710220 312.996063,144.901093 
	C313.046539,131.290649 313.050751,117.680016 313.473633,103.984344 
	C315.997620,103.606354 318.115051,103.080879 320.237549,103.059814 
	C330.866455,102.954361 341.496674,102.981049 352.126434,102.961281 
	C357.245117,104.641731 362.443054,106.121628 367.444336,108.099007 
	C369.513763,108.917198 371.161865,110.801140 373.031830,112.566689 
z"/>
<path fill="#FCDE5A" opacity="1.000000" stroke="none" 
	d="
M159.011169,208.012756 
	C158.485260,209.022614 158.146576,210.203415 157.404617,211.016037 
	C149.553345,219.614944 141.666443,228.181961 133.710114,236.683624 
	C132.480682,237.997330 130.763931,238.841095 129.423233,240.067017 
	C124.602989,244.474640 119.872086,248.979950 115.056923,253.393219 
	C112.627853,255.619537 110.090363,257.727539 107.601906,259.889038 
	C107.185326,259.504486 106.768745,259.119934 106.352165,258.735352 
	C106.239037,260.034027 106.028038,261.332611 106.027145,262.631348 
	C106.006973,291.934052 105.795319,321.239319 106.148682,350.537750 
	C106.245461,358.562164 109.508011,365.927734 115.661133,371.920776 
	C117.728905,374.257660 119.350494,376.614532 121.229591,378.744232 
	C122.999641,380.750366 125.041084,382.517029 126.970795,384.756348 
	C115.483391,379.035980 106.655640,370.399902 105.208435,357.040924 
	C103.911545,345.069336 104.253647,332.912598 104.033806,320.834595 
	C103.881973,312.492859 103.889542,304.143982 104.047943,295.802521 
	C104.141479,290.877197 104.881477,285.962128 104.928360,281.038605 
	C104.962509,277.453430 104.110176,273.865784 104.050369,270.272614 
	C103.856476,258.623444 104.203453,246.863419 108.292114,235.910660 
	C110.748764,229.329758 114.606735,222.845612 121.100845,219.054199 
	C127.308372,215.430069 133.812668,212.314270 140.873871,209.268188 
	C147.377869,209.045135 153.194519,208.528946 159.011169,208.012756 
z"/>
<path fill="#F5D96A" opacity="1.000000" stroke="none" 
	d="
M159.478699,208.010132 
	C153.194519,208.528946 147.377869,209.045135 141.251465,209.337891 
	C145.735275,208.406586 150.525848,207.109589 155.322891,207.085312 
	C189.541901,206.912018 223.762253,207.015198 257.982056,206.960403 
	C260.047821,206.957092 262.112579,206.353119 264.605316,206.096008 
	C263.152283,206.775208 261.273560,207.914261 259.390991,207.920563 
	C226.243027,208.031723 193.094559,208.004639 159.478699,208.010132 
z"/>
<path fill="#6B8FAC" opacity="1.000000" stroke="none" 
	d="
M144.457993,195.074585 
	C145.381561,194.779556 146.768814,194.084076 148.157425,194.081345 
	C180.385696,194.017914 212.614136,194.028229 244.842529,194.040878 
	C245.326248,194.041077 245.809921,194.242874 246.620117,194.599518 
	C239.432083,194.906036 231.915085,194.865997 224.403900,195.055832 
	C219.469421,195.180557 214.543762,195.866867 209.613312,195.876709 
	C205.186783,195.885559 200.760620,195.069763 196.331635,195.042099 
	C179.195770,194.934998 162.058838,194.997498 144.457993,195.074585 
z"/>
<path fill="#7699B6" opacity="1.000000" stroke="none" 
	d="
M298.933868,145.528412 
	C298.562531,144.913925 298.012024,143.834732 298.011078,142.755035 
	C297.984375,112.061432 298.010986,81.367783 298.045898,50.674156 
	C298.046631,50.023296 298.246490,49.372662 298.595581,48.392334 
	C298.895447,80.396324 298.953125,112.729889 298.933868,145.528412 
z"/>
<path fill="#F4D869" opacity="1.000000" stroke="none" 
	d="
M313.069458,104.069450 
	C313.050751,117.680016 313.046539,131.290649 312.996063,144.901093 
	C312.989380,146.710220 312.747650,148.518478 312.391693,150.678909 
	C311.783569,135.658554 311.398499,120.286446 311.406494,104.459496 
	C312.222870,104.026260 312.646149,104.047852 313.069458,104.069450 
z"/>
<path fill="#B0C5DA" opacity="1.000000" stroke="none" 
	d="
M53.081856,299.386780 
	C65.581619,299.007751 78.236877,299.025940 91.346558,299.036713 
	C91.452721,299.550049 91.120422,300.512878 90.753845,300.526093 
	C83.950157,300.771820 77.138481,301.118652 70.336678,300.994629 
	C64.631447,300.890625 58.936729,300.209564 53.081856,299.386780 
z"/>
<path fill="#F5DD85" opacity="1.000000" stroke="none" 
	d="
M311.635742,152.008987 
	C311.660278,156.578674 311.307709,161.350372 310.947998,166.551865 
	C309.590088,170.538223 308.363098,174.149216 306.833313,177.626999 
	C306.131653,179.222092 304.835022,180.555481 303.477356,182.142273 
	C304.845642,177.331589 306.808807,172.457489 308.169312,167.420624 
	C309.515594,162.436249 310.253723,157.287582 311.635742,152.008987 
z"/>
<path fill="#EFD77C" opacity="1.000000" stroke="none" 
	d="
M313.473633,103.984344 
	C312.646149,104.047852 312.222870,104.026260 311.482239,104.000092 
	C312.279572,103.330490 313.390900,102.094528 314.509430,102.087990 
	C326.896332,102.015450 339.284393,102.133575 351.899292,102.580719 
	C341.496674,102.981049 330.866455,102.954361 320.237549,103.059814 
	C318.115051,103.080879 315.997620,103.606354 313.473633,103.984344 
z"/>
<path fill="#F5DD85" opacity="1.000000" stroke="none" 
	d="
M299.640472,187.030487 
	C299.097565,191.762039 295.793579,194.352417 291.147705,196.047592 
	C293.617889,193.072739 296.469879,190.107513 299.640472,187.030487 
z"/>
<path fill="#3C75A8" opacity="1.000000" stroke="none" 
	d="
M260.907684,9.610301 
	C259.528595,9.545465 257.990173,9.161357 256.242676,8.500507 
	C257.605225,8.579519 259.176758,8.935275 260.907684,9.610301 
z"/>
<path fill="#F5DD85" opacity="1.000000" stroke="none" 
	d="
M302.735962,182.911942 
	C302.564972,183.771255 302.083679,184.793930 301.253204,185.899796 
	C301.411255,185.013763 301.918427,184.044525 302.735962,182.911942 
z"/>
<path fill="#FED94C" opacity="1.000000" stroke="none" 
	d="
M374.016388,113.702423 
	C373.835846,113.756104 373.568817,113.556908 373.167175,113.143768 
	C373.331665,113.103065 373.630798,113.276314 374.016388,113.702423 
z"/>
<path fill="#F5DD85" opacity="1.000000" stroke="none" 
	d="
M300.724731,185.976212 
	C300.801971,186.197739 300.606293,186.490860 300.162598,186.888611 
	C300.093628,186.678085 300.272736,186.362946 300.724731,185.976212 
z"/>
<path fill="#F8DA7A" opacity="1.000000" stroke="none" 
	d="
M276.544159,295.914856 
	C299.710938,295.878418 322.408875,295.877197 345.592590,296.093750 
	C346.097687,296.484253 346.116974,296.657013 346.136292,296.829803 
	C310.180542,296.888794 274.224792,296.953461 238.269058,297.003448 
	C226.780441,297.019440 215.291748,296.996552 203.319550,296.925232 
	C204.771210,296.566498 206.705658,296.025482 208.641769,296.019470 
	C231.119461,295.949646 253.597412,295.960571 276.544159,295.914856 
z"/>
<path fill="#F5DD8E" opacity="1.000000" stroke="none" 
	d="
M298.904236,330.674438 
	C298.566071,326.195465 298.038849,321.250275 298.107330,316.313324 
	C298.161011,312.445251 296.857727,310.956665 292.912079,311.028351 
	C281.924316,311.227905 270.931366,311.141907 259.476471,311.239685 
	C242.147400,311.237244 225.282211,311.180450 208.417389,311.067902 
	C206.460602,311.054840 204.505890,310.732422 202.266357,310.238708 
	C234.194595,309.923950 266.406708,309.923950 298.971954,309.923950 
	C298.971954,317.009155 298.971954,323.610443 298.904236,330.674438 
z"/>
<path fill="#F5DD8E" opacity="1.000000" stroke="none" 
	d="
M200.979233,308.150024 
	C201.330795,308.318451 201.679718,308.822266 202.058151,309.663452 
	C201.717300,309.495636 201.346954,308.990540 200.979233,308.150024 
z"/>
<path fill="#F8DA7A" opacity="1.000000" stroke="none" 
	d="
M202.063477,297.038452 
	C202.198502,297.168304 202.121078,297.364594 201.945618,297.863495 
	C201.735519,297.906677 201.598297,297.653534 201.530334,297.383026 
	C201.514771,297.321075 201.737778,297.199188 202.063477,297.038452 
z"/>
<path fill="#3C75A8" opacity="1.000000" stroke="none" 
	d="
M108.630554,30.059700 
	C107.911964,32.885971 106.866432,35.870018 105.465225,38.937988 
	C106.174225,36.087101 107.238907,33.152287 108.630554,30.059700 
z"/>
<path fill="#3C75A8" opacity="1.000000" stroke="none" 
	d="
M52.616928,106.124855 
	C51.777111,106.585228 50.572472,106.977249 49.159794,107.139999 
	C50.051872,106.625984 51.151993,106.341240 52.616928,106.124855 
z"/>
<path fill="#FFD243" opacity="1.000000" stroke="none" 
	d="
M346.533508,296.901306 
	C346.116974,296.657013 346.097687,296.484253 346.062317,296.049255 
	C346.598999,295.237427 347.145966,294.215027 347.705322,294.208252 
	C358.704132,294.074371 366.815765,287.650787 375.196045,281.779022 
	C375.962830,281.241760 376.901367,280.949646 378.078156,280.692810 
	C373.179321,287.082336 366.475555,291.196594 358.939606,293.894196 
	C355.065674,295.280884 350.941681,295.968994 346.533508,296.901306 
z"/>
<path fill="#FFFFFF" opacity="1.000000" stroke="none" 
	d="
M298.778259,344.905609 
	C298.810699,340.873901 298.843140,336.842224 298.935425,332.343079 
	C299.330170,334.360779 299.913513,336.842346 299.950043,339.331879 
	C300.035004,345.124420 299.856506,350.920837 299.393005,356.931274 
	C298.929138,353.765320 298.857086,350.383820 298.837708,346.251770 
	C298.852997,345.302704 298.815613,345.104156 298.778259,344.905609 
z"/>
<path fill="#F5DD8E" opacity="1.000000" stroke="none" 
	d="
M297.056519,363.849792 
	C297.517303,362.043518 297.978088,360.237244 298.645172,358.141541 
	C298.839050,359.759918 298.826630,361.667694 298.202576,363.742432 
	C297.412842,363.889557 297.234680,363.869690 297.056519,363.849792 
z"/>
<path fill="#FFD243" opacity="1.000000" stroke="none" 
	d="
M297.133118,364.071838 
	C297.234680,363.869690 297.412842,363.889557 297.857666,363.947510 
	C298.080170,364.154541 298.035980,364.323486 297.908813,364.740967 
	C297.563477,364.808075 297.358093,364.576233 297.133118,364.071838 
z"/>
<path fill="#000000" opacity="1.000000" stroke="none" 
	d="
M150.125351,66.418930 
	C140.243057,67.761505 130.857025,61.738052 130.022385,53.936829 
	C128.588150,40.531254 134.764481,33.866280 145.706802,32.096802 
	C152.765030,30.955421 164.798309,39.191330 163.117554,49.833351 
	C161.456635,60.349865 159.247772,63.747234 150.125351,66.418930 
z"/>
<path fill="#000000" opacity="1.000000" stroke="none" 
	d="
M240.013840,349.482452 
	C242.415344,342.164520 245.685577,336.774078 254.163879,335.777863 
	C262.773285,334.766235 270.762054,339.357910 273.060211,347.596771 
	C274.989319,354.512573 272.718506,360.547089 268.086212,364.738556 
	C263.053986,369.291962 256.067535,370.957031 249.432449,367.871857 
	C242.026688,364.428314 239.306335,357.920563 240.013840,349.482452 
z"/>
<path fill="#F5DD8E" opacity="1.000000" stroke="none" 
	d="
M298.659821,345.033264 
	C298.815613,345.104156 298.852997,345.302704 298.823364,345.796997 
	C298.652222,345.893250 298.525818,345.701324 298.454620,345.490723 
	C298.424225,345.400879 298.508942,345.272034 298.659821,345.033264 
z"/>
</svg>