<svg version="1.1" id="Layer_1" xmlns="http://www.w3.org/2000/svg" xmlns:xlink="http://www.w3.org/1999/xlink" x="0px" y="0px"
	 width="100%" viewBox="0 0 512 512" enable-background="new 0 0 512 512" xml:space="preserve">
<path fill="#000000" opacity="1.000000" stroke="none" 
	d="
M282.000000,513.000000 
	C188.022812,513.000000 94.545624,513.000000 1.034216,513.000000 
	C1.034216,342.397797 1.034216,171.795563 1.034216,1.096670 
	C171.560532,1.096670 342.121155,1.096670 512.840881,1.096670 
	C512.840881,171.666550 512.840881,342.333252 512.840881,513.000000 
	C436.128876,513.000000 359.314423,513.000000 282.000000,513.000000 
M487.599274,283.949768 
	C488.467529,282.398804 489.321106,280.839417 490.206451,279.298248 
	C496.452332,268.425812 498.685730,256.993896 494.919708,244.770767 
	C491.770844,234.550598 485.821411,225.684067 478.030548,218.940964 
	C468.526917,210.715424 458.128571,203.026794 446.986572,197.309128 
	C430.833740,189.020111 413.668091,182.704865 396.779572,175.481506 
	C397.464722,171.562637 398.508331,166.540161 399.196564,161.469467 
	C400.884949,149.029190 403.137848,136.606033 403.813446,124.103027 
	C404.635742,108.884827 402.658081,93.896820 398.213898,79.083969 
	C391.588989,57.002590 375.057190,40.615421 348.103333,43.785599 
	C336.271240,45.177231 325.354095,48.666492 314.870911,53.677532 
	C292.899231,64.180161 274.316132,79.520561 256.803986,95.637810 
	C250.625000,90.351036 244.605103,85.001869 238.376144,79.908379 
	C220.313477,65.138390 200.774734,53.009186 178.098145,46.523811 
	C168.622696,43.813881 158.846405,42.731613 149.310287,44.441376 
	C130.984238,47.727104 120.464424,60.114422 114.988235,77.180969 
	C109.472504,94.370743 107.567978,111.953354 109.972389,129.948120 
	C112.038254,145.409195 113.910934,160.896072 115.933380,176.880020 
	C116.567574,176.561813 116.179230,176.837952 115.747238,176.961731 
	C95.802498,182.676407 76.557388,190.038666 58.667576,200.720566 
	C44.337532,209.276962 31.331079,219.307053 22.709883,233.907516 
	C16.380348,244.626923 14.031570,256.179230 18.013494,268.407227 
	C22.158257,281.135284 30.137529,291.015381 40.126083,299.829834 
	C54.091892,312.154022 70.042191,320.905212 87.027176,327.970642 
	C96.678764,331.985535 106.601837,335.347778 116.631599,339.089325 
	C116.164253,341.190796 115.559166,343.323578 115.227638,345.498077 
	C113.118248,359.333466 110.307396,373.117889 109.208588,387.036041 
	C108.045113,401.773132 109.040413,416.571106 112.962029,431.033020 
	C116.419090,443.781830 122.128723,455.076935 133.079178,462.969757 
	C144.526825,471.220947 157.626984,472.181335 170.910721,469.852936 
	C188.177902,466.826355 203.995407,459.549622 218.382996,449.842529 
	C232.109833,440.581268 244.931839,429.978882 257.940552,420.125916 
	C264.691956,425.729919 272.081268,431.966217 279.580994,438.066772 
	C294.614197,450.295471 310.791321,460.682953 329.365326,466.617249 
	C341.353271,470.447296 353.563599,472.839478 366.313751,469.352264 
	C383.109039,464.758636 392.323395,452.775055 397.908051,437.480164 
	C403.363647,422.538696 405.098724,406.949890 404.032318,391.042877 
	C403.491272,382.972412 403.809479,374.813232 402.796692,366.813477 
	C401.568573,357.112946 399.345001,347.538483 397.612061,338.231354 
	C408.597992,333.897186 419.453033,329.871002 430.102570,325.359741 
	C452.140839,316.023987 472.040619,303.610596 487.599274,283.949768 
z"/>
<path fill="#00D8FF" opacity="1.000000" stroke="none" 
	d="
M487.322540,284.194672 
	C472.040619,303.610596 452.140839,316.023987 430.102570,325.359741 
	C419.453033,329.871002 408.597992,333.897186 397.612061,338.231354 
	C399.345001,347.538483 401.568573,357.112946 402.796692,366.813477 
	C403.809479,374.813232 403.491272,382.972412 404.032318,391.042877 
	C405.098724,406.949890 403.363647,422.538696 397.908051,437.480164 
	C392.323395,452.775055 383.109039,464.758636 366.313751,469.352264 
	C353.563599,472.839478 341.353271,470.447296 329.365326,466.617249 
	C310.791321,460.682953 294.614197,450.295471 279.580994,438.066772 
	C272.081268,431.966217 264.691956,425.729919 257.940552,420.125916 
	C244.931839,429.978882 232.109833,440.581268 218.382996,449.842529 
	C203.995407,459.549622 188.177902,466.826355 170.910721,469.852936 
	C157.626984,472.181335 144.526825,471.220947 133.079178,462.969757 
	C122.128723,455.076935 116.419090,443.781830 112.962029,431.033020 
	C109.040413,416.571106 108.045113,401.773132 109.208588,387.036041 
	C110.307396,373.117889 113.118248,359.333466 115.227638,345.498077 
	C115.559166,343.323578 116.164253,341.190796 116.631599,339.089325 
	C106.601837,335.347778 96.678764,331.985535 87.027176,327.970642 
	C70.042191,320.905212 54.091892,312.154022 40.126083,299.829834 
	C30.137529,291.015381 22.158257,281.135284 18.013494,268.407227 
	C14.031570,256.179230 16.380348,244.626923 22.709883,233.907516 
	C31.331079,219.307053 44.337532,209.276962 58.667576,200.720566 
	C76.557388,190.038666 95.802498,182.676407 115.747238,176.961731 
	C116.179230,176.837952 116.567574,176.561813 115.933380,176.880020 
	C113.910934,160.896072 112.038254,145.409195 109.972389,129.948120 
	C107.567978,111.953354 109.472504,94.370743 114.988235,77.180969 
	C120.464424,60.114422 130.984238,47.727104 149.310287,44.441376 
	C158.846405,42.731613 168.622696,43.813881 178.098145,46.523811 
	C200.774734,53.009186 220.313477,65.138390 238.376144,79.908379 
	C244.605103,85.001869 250.625000,90.351036 256.803986,95.637810 
	C274.316132,79.520561 292.899231,64.180161 314.870911,53.677532 
	C325.354095,48.666492 336.271240,45.177231 348.103333,43.785599 
	C375.057190,40.615421 391.588989,57.002590 398.213898,79.083969 
	C402.658081,93.896820 404.635742,108.884827 403.813446,124.103027 
	C403.137848,136.606033 400.884949,149.029190 399.196564,161.469467 
	C398.508331,166.540161 397.464722,171.562637 396.779572,175.481506 
	C413.668091,182.704865 430.833740,189.020111 446.986572,197.309128 
	C458.128571,203.026794 468.526917,210.715424 478.030548,218.940964 
	C485.821411,225.684067 491.770844,234.550598 494.919708,244.770767 
	C498.685730,256.993896 496.452332,268.425812 490.206451,279.298248 
	C489.321106,280.839417 488.467529,282.398804 487.322540,284.194672 
M322.489807,296.007446 
	C328.910248,284.212280 335.467957,272.487793 341.611694,260.550232 
	C342.598053,258.633698 342.544495,255.371628 341.586823,253.406403 
	C337.626556,245.279282 333.406006,237.249496 328.779083,229.483002 
	C319.687164,214.221771 310.282654,199.146240 300.918884,184.048798 
	C300.343964,183.121826 299.035339,182.157608 298.004059,182.081802 
	C287.174652,181.285721 276.336517,180.215546 265.492340,180.112854 
	C251.584061,179.981140 237.666626,180.620407 223.756409,181.036606 
	C220.665665,181.129059 217.554016,181.504456 214.524567,182.111694 
	C213.513962,182.314255 212.536636,183.513702 211.870483,184.481995 
	C196.516235,206.800232 183.153687,230.283661 171.196640,254.570496 
	C170.547836,255.888336 170.525330,258.066376 171.162613,259.383789 
	C183.083282,284.026672 196.861328,307.612701 212.145905,330.312469 
	C213.007019,331.591339 214.939087,332.793915 216.444427,332.888245 
	C225.350082,333.446533 234.278778,333.983826 243.196274,333.932129 
	C260.111847,333.834137 277.029114,333.451263 293.934967,332.873566 
	C296.484039,332.786469 300.082825,331.745117 301.311188,329.894226 
	C308.534790,319.009735 315.199524,307.754364 322.489807,296.007446 
M98.312653,205.972656 
	C87.212433,211.473221 75.849808,216.511185 65.091057,222.613754 
	C55.676521,227.953857 47.695766,235.235641 41.840794,244.620880 
	C37.553429,251.493256 36.447327,258.408478 40.359909,265.784302 
	C44.538555,273.661682 50.144901,280.169952 57.156113,285.825439 
	C76.594254,301.504913 99.050850,310.659515 121.740814,317.548553 
	C129.524796,297.964081 137.185745,278.842072 144.646286,259.642242 
	C145.275803,258.022186 145.052521,255.687363 144.392242,254.013199 
	C140.733093,244.735138 136.631592,235.630035 133.038132,226.327957 
	C129.335663,216.743713 126.042007,207.001541 122.506439,197.152863 
	C114.667709,199.954376 106.830772,202.755234 98.312653,205.972656 
M166.406662,349.000580 
	C157.904663,347.647675 149.331543,346.618378 140.937546,344.773926 
	C137.816010,344.088013 137.509903,344.643951 136.915222,347.372070 
	C132.889893,365.838501 130.070801,384.352173 130.838486,403.395782 
	C131.231186,413.137146 132.880112,422.420288 135.997833,431.556946 
	C140.594467,445.027557 153.333359,451.695129 167.153488,448.520020 
	C179.717682,445.633423 191.353516,440.844055 202.400467,434.265961 
	C216.870789,425.649292 229.895370,415.264984 241.836563,403.751495 
	C239.877716,401.277191 238.164215,399.093109 236.430084,396.925537 
	C225.849701,383.700562 215.295151,370.454651 204.642578,357.288086 
	C203.310272,355.641357 201.634323,353.568268 199.799942,353.175171 
	C195.668137,352.289734 191.315292,352.503723 187.092209,351.960754 
	C180.480484,351.110626 173.901688,350.004486 166.406662,349.000580 
M303.049591,365.631805 
	C293.223297,378.214966 283.396973,390.798126 272.930878,404.200592 
	C279.699249,409.770721 286.952545,415.823334 294.295288,421.765472 
	C309.665588,434.203949 326.294373,444.135162 345.900574,448.549927 
	C357.876312,451.246552 366.513153,448.249603 373.228241,438.330200 
	C380.431183,427.690186 382.491943,415.472717 382.784760,403.189819 
	C383.086334,390.539581 381.985077,377.819824 380.865082,365.186584 
	C380.283264,358.623413 378.435669,352.157349 376.888672,345.712524 
	C376.677765,344.833923 374.787628,343.629974 373.842896,343.763611 
	C355.163696,346.405701 336.496765,349.143524 317.862762,352.086334 
	C314.892487,352.555420 311.604248,352.659119 309.840942,356.433441 
	C308.361725,359.599670 305.643494,362.187073 303.049591,365.631805 
M151.898712,66.042580 
	C149.249176,67.531570 146.174423,68.567375 144.022385,70.586594 
	C133.723663,80.249680 132.062439,93.370628 131.140686,106.337685 
	C130.028198,121.988205 131.189545,137.645447 134.050247,153.104599 
	C135.174042,159.177475 136.809280,165.155701 138.200653,171.130005 
	C145.408508,169.632339 151.689240,167.978790 158.075989,167.072586 
	C171.484634,165.170074 184.963806,163.764618 198.372345,161.861481 
	C200.110107,161.614853 201.928864,159.900650 203.155853,158.410019 
	C215.089844,143.912003 226.830338,129.254181 238.828339,114.809990 
	C240.858887,112.365440 241.930023,111.138756 238.608444,108.899742 
	C235.231216,106.623199 232.407059,103.531387 229.314163,100.826942 
	C215.192978,88.479324 199.904800,77.901474 182.410187,70.898758 
	C172.940018,67.108040 163.284470,63.637012 151.898712,66.042580 
M302.531067,148.035248 
	C305.470978,152.296829 308.359955,156.595444 311.403229,160.781906 
	C311.885590,161.445496 313.033783,161.844452 313.924530,161.953293 
	C317.499939,162.390182 321.120148,162.497589 324.678497,163.029633 
	C337.360138,164.925766 350.026245,166.926605 362.691589,168.929810 
	C366.964996,169.605743 371.218597,170.406662 376.174652,171.271439 
	C377.847443,159.180771 379.560150,147.628387 381.022034,136.044357 
	C383.303680,117.964844 383.232605,99.841797 376.662964,82.689117 
	C371.215332,68.465935 363.213470,62.221607 345.508301,65.953827 
	C333.804138,68.421043 323.204895,73.380753 313.045715,79.468201 
	C298.068085,88.442924 284.735474,99.505135 272.488525,111.021408 
	C282.481293,123.375130 292.246521,135.447525 302.531067,148.035248 
M392.885712,316.036133 
	C399.724823,313.692871 406.671875,311.621246 413.382874,308.955444 
	C433.508636,300.960968 452.573639,291.062805 466.966217,274.349579 
	C475.725555,264.177887 477.715973,255.846008 471.969788,246.000061 
	C467.459625,238.271973 461.519287,231.667847 453.861511,227.069580 
	C442.799683,220.427277 431.677490,213.768723 420.059814,208.205643 
	C410.717865,203.732300 400.602448,200.874222 391.664429,197.604568 
	C383.881531,216.595093 376.385712,234.558777 369.260834,252.668365 
	C368.333466,255.025482 368.592346,258.412872 369.531036,260.849518 
	C375.841492,277.230713 382.467560,293.490631 389.038422,309.770874 
	C389.941620,312.008667 391.104980,314.141479 392.885712,316.036133 
M338.061798,312.597534 
	C334.706879,318.145966 331.351959,323.694366 327.451904,330.144318 
	C341.144928,327.646301 353.844604,325.212982 366.594086,323.076965 
	C370.256714,322.463379 370.365601,321.153839 369.126984,318.098541 
	C367.139008,313.194977 365.852417,308.009735 363.923645,303.078796 
	C361.262939,296.276581 358.280640,289.600128 355.174438,282.250763 
	C349.345154,292.660126 343.931213,302.327759 338.061798,312.597534 
M259.021606,385.563385 
	C267.416412,375.680542 275.811218,365.797729 284.653290,355.388367 
	C265.701935,355.388367 248.071671,355.388367 230.223419,355.388367 
	C232.677856,358.560394 234.774994,361.449982 237.057068,364.185272 
	C243.134811,371.470154 249.265640,378.711395 255.447388,385.908112 
	C256.341980,386.949585 257.494171,389.115814 259.021606,385.563385 
M150.483002,303.014343 
	C148.642685,308.344147 147.003525,313.755402 144.889481,318.974335 
	C143.538239,322.310211 143.810440,323.708191 147.774979,324.098267 
	C152.264053,324.539948 156.662338,325.831512 161.133469,326.544250 
	C169.218369,327.833069 177.328064,328.966461 185.491119,330.174133 
	C176.305908,314.311646 167.364960,298.870972 158.157288,282.969666 
	C155.658203,289.678436 153.298248,296.013702 150.483002,303.014343 
M332.477570,185.081039 
	C331.150970,185.081039 329.824341,185.081039 328.275665,185.081039 
	C337.147339,200.377014 345.931396,215.521881 355.219482,231.535797 
	C360.139282,218.308823 364.868805,205.593491 369.961823,191.900848 
	C357.011536,189.696487 345.068451,187.663574 332.477570,185.081039 
M183.942032,187.370651 
	C184.122711,186.639297 184.303391,185.907944 184.611725,184.659927 
	C170.854156,187.058914 157.395401,189.405807 143.408981,191.844696 
	C148.583252,205.749771 153.397079,218.686172 158.092987,231.305710 
	C166.546219,216.900146 175.028824,202.444489 183.942032,187.370651 
M264.474854,135.958160 
	C261.882050,132.946915 259.289215,129.935669 256.579651,126.788803 
	C247.473175,137.687790 238.833954,148.027573 229.858032,158.770340 
	C248.065582,158.770340 265.249969,158.770340 283.637360,158.770340 
	C277.018829,150.858002 271.001678,143.664627 264.474854,135.958160 
z"/>
<path fill="#000000" opacity="1.000000" stroke="none" 
	d="
M322.271179,296.315735 
	C315.199524,307.754364 308.534790,319.009735 301.311188,329.894226 
	C300.082825,331.745117 296.484039,332.786469 293.934967,332.873566 
	C277.029114,333.451263 260.111847,333.834137 243.196274,333.932129 
	C234.278778,333.983826 225.350082,333.446533 216.444427,332.888245 
	C214.939087,332.793915 213.007019,331.591339 212.145905,330.312469 
	C196.861328,307.612701 183.083282,284.026672 171.162613,259.383789 
	C170.525330,258.066376 170.547836,255.888336 171.196640,254.570496 
	C183.153687,230.283661 196.516235,206.800232 211.870483,184.481995 
	C212.536636,183.513702 213.513962,182.314255 214.524567,182.111694 
	C217.554016,181.504456 220.665665,181.129059 223.756409,181.036606 
	C237.666626,180.620407 251.584061,179.981140 265.492340,180.112854 
	C276.336517,180.215546 287.174652,181.285721 298.004059,182.081802 
	C299.035339,182.157608 300.343964,183.121826 300.918884,184.048798 
	C310.282654,199.146240 319.687164,214.221771 328.779083,229.483002 
	C333.406006,237.249496 337.626556,245.279282 341.586823,253.406403 
	C342.544495,255.371628 342.598053,258.633698 341.611694,260.550232 
	C335.467957,272.487793 328.910248,284.212280 322.271179,296.315735 
z"/>
<path fill="#000000" opacity="1.000000" stroke="none" 
	d="
M98.653244,205.764374 
	C106.830772,202.755234 114.667709,199.954376 122.506439,197.152863 
	C126.042007,207.001541 129.335663,216.743713 133.038132,226.327957 
	C136.631592,235.630035 140.733093,244.735138 144.392242,254.013199 
	C145.052521,255.687363 145.275803,258.022186 144.646286,259.642242 
	C137.185745,278.842072 129.524796,297.964081 121.740814,317.548553 
	C99.050850,310.659515 76.594254,301.504913 57.156113,285.825439 
	C50.144901,280.169952 44.538555,273.661682 40.359909,265.784302 
	C36.447327,258.408478 37.553429,251.493256 41.840794,244.620880 
	C47.695766,235.235641 55.676521,227.953857 65.091057,222.613754 
	C75.849808,216.511185 87.212433,211.473221 98.653244,205.764374 
z"/>
<path fill="#000000" opacity="1.000000" stroke="none" 
	d="
M166.857803,349.003662 
	C173.901688,350.004486 180.480484,351.110626 187.092209,351.960754 
	C191.315292,352.503723 195.668137,352.289734 199.799942,353.175171 
	C201.634323,353.568268 203.310272,355.641357 204.642578,357.288086 
	C215.295151,370.454651 225.849701,383.700562 236.430084,396.925537 
	C238.164215,399.093109 239.877716,401.277191 241.836563,403.751495 
	C229.895370,415.264984 216.870789,425.649292 202.400467,434.265961 
	C191.353516,440.844055 179.717682,445.633423 167.153488,448.520020 
	C153.333359,451.695129 140.594467,445.027557 135.997833,431.556946 
	C132.880112,422.420288 131.231186,413.137146 130.838486,403.395782 
	C130.070801,384.352173 132.889893,365.838501 136.915222,347.372070 
	C137.509903,344.643951 137.816010,344.088013 140.937546,344.773926 
	C149.331543,346.618378 157.904663,347.647675 166.857803,349.003662 
z"/>
<path fill="#000000" opacity="1.000000" stroke="none" 
	d="
M303.261719,365.331299 
	C305.643494,362.187073 308.361725,359.599670 309.840942,356.433441 
	C311.604248,352.659119 314.892487,352.555420 317.862762,352.086334 
	C336.496765,349.143524 355.163696,346.405701 373.842896,343.763611 
	C374.787628,343.629974 376.677765,344.833923 376.888672,345.712524 
	C378.435669,352.157349 380.283264,358.623413 380.865082,365.186584 
	C381.985077,377.819824 383.086334,390.539581 382.784760,403.189819 
	C382.491943,415.472717 380.431183,427.690186 373.228241,438.330200 
	C366.513153,448.249603 357.876312,451.246552 345.900574,448.549927 
	C326.294373,444.135162 309.665588,434.203949 294.295288,421.765472 
	C286.952545,415.823334 279.699249,409.770721 272.930878,404.200592 
	C283.396973,390.798126 293.223297,378.214966 303.261719,365.331299 
z"/>
<path fill="#000000" opacity="1.000000" stroke="none" 
	d="
M152.318115,66.022957 
	C163.284470,63.637012 172.940018,67.108040 182.410187,70.898758 
	C199.904800,77.901474 215.192978,88.479324 229.314163,100.826942 
	C232.407059,103.531387 235.231216,106.623199 238.608444,108.899742 
	C241.930023,111.138756 240.858887,112.365440 238.828339,114.809990 
	C226.830338,129.254181 215.089844,143.912003 203.155853,158.410019 
	C201.928864,159.900650 200.110107,161.614853 198.372345,161.861481 
	C184.963806,163.764618 171.484634,165.170074 158.075989,167.072586 
	C151.689240,167.978790 145.408508,169.632339 138.200653,171.130005 
	C136.809280,165.155701 135.174042,159.177475 134.050247,153.104599 
	C131.189545,137.645447 130.028198,121.988205 131.140686,106.337685 
	C132.062439,93.370628 133.723663,80.249680 144.022385,70.586594 
	C146.174423,68.567375 149.249176,67.531570 152.318115,66.022957 
z"/>
<path fill="#000000" opacity="1.000000" stroke="none" 
	d="
M302.271393,147.777588 
	C292.246521,135.447525 282.481293,123.375130 272.488525,111.021408 
	C284.735474,99.505135 298.068085,88.442924 313.045715,79.468201 
	C323.204895,73.380753 333.804138,68.421043 345.508301,65.953827 
	C363.213470,62.221607 371.215332,68.465935 376.662964,82.689117 
	C383.232605,99.841797 383.303680,117.964844 381.022034,136.044357 
	C379.560150,147.628387 377.847443,159.180771 376.174652,171.271439 
	C371.218597,170.406662 366.964996,169.605743 362.691589,168.929810 
	C350.026245,166.926605 337.360138,164.925766 324.678497,163.029633 
	C321.120148,162.497589 317.499939,162.390182 313.924530,161.953293 
	C313.033783,161.844452 311.885590,161.445496 311.403229,160.781906 
	C308.359955,156.595444 305.470978,152.296829 302.271393,147.777588 
z"/>
<path fill="#000000" opacity="1.000000" stroke="none" 
	d="
M392.516785,316.179504 
	C391.104980,314.141479 389.941620,312.008667 389.038422,309.770874 
	C382.467560,293.490631 375.841492,277.230713 369.531036,260.849518 
	C368.592346,258.412872 368.333466,255.025482 369.260834,252.668365 
	C376.385712,234.558777 383.881531,216.595093 391.664429,197.604568 
	C400.602448,200.874222 410.717865,203.732300 420.059814,208.205643 
	C431.677490,213.768723 442.799683,220.427277 453.861511,227.069580 
	C461.519287,231.667847 467.459625,238.271973 471.969788,246.000061 
	C477.715973,255.846008 475.725555,264.177887 466.966217,274.349579 
	C452.573639,291.062805 433.508636,300.960968 413.382874,308.955444 
	C406.671875,311.621246 399.724823,313.692871 392.516785,316.179504 
z"/>
<path fill="#000000" opacity="1.000000" stroke="none" 
	d="
M338.289551,312.296448 
	C343.931213,302.327759 349.345154,292.660126 355.174438,282.250763 
	C358.280640,289.600128 361.262939,296.276581 363.923645,303.078796 
	C365.852417,308.009735 367.139008,313.194977 369.126984,318.098541 
	C370.365601,321.153839 370.256714,322.463379 366.594086,323.076965 
	C353.844604,325.212982 341.144928,327.646301 327.451904,330.144318 
	C331.351959,323.694366 334.706879,318.145966 338.289551,312.296448 
z"/>
<path fill="#000000" opacity="1.000000" stroke="none" 
	d="
M258.987152,385.915833 
	C257.494171,389.115814 256.341980,386.949585 255.447388,385.908112 
	C249.265640,378.711395 243.134811,371.470154 237.057068,364.185272 
	C234.774994,361.449982 232.677856,358.560394 230.223419,355.388367 
	C248.071671,355.388367 265.701935,355.388367 284.653290,355.388367 
	C275.811218,365.797729 267.416412,375.680542 258.987152,385.915833 
z"/>
<path fill="#000000" opacity="1.000000" stroke="none" 
	d="
M150.710648,302.681641 
	C153.298248,296.013702 155.658203,289.678436 158.157288,282.969666 
	C167.364960,298.870972 176.305908,314.311646 185.491119,330.174133 
	C177.328064,328.966461 169.218369,327.833069 161.133469,326.544250 
	C156.662338,325.831512 152.264053,324.539948 147.774979,324.098267 
	C143.810440,323.708191 143.538239,322.310211 144.889481,318.974335 
	C147.003525,313.755402 148.642685,308.344147 150.710648,302.681641 
z"/>
<path fill="#000000" opacity="1.000000" stroke="none" 
	d="
M332.801483,185.355850 
	C345.068451,187.663574 357.011536,189.696487 369.961823,191.900848 
	C364.868805,205.593491 360.139282,218.308823 355.219482,231.535797 
	C345.931396,215.521881 337.147339,200.377014 328.275665,185.081039 
	C329.824341,185.081039 331.150970,185.081039 332.801483,185.355850 
z"/>
<path fill="#000000" opacity="1.000000" stroke="none" 
	d="
M183.726746,187.679749 
	C175.028824,202.444489 166.546219,216.900146 158.092987,231.305710 
	C153.397079,218.686172 148.583252,205.749771 143.408981,191.844696 
	C157.395401,189.405807 170.854156,187.058914 184.611725,184.659927 
	C184.303391,185.907944 184.122711,186.639297 183.726746,187.679749 
z"/>
<path fill="#000000" opacity="1.000000" stroke="none" 
	d="
M264.729706,136.214706 
	C271.001678,143.664627 277.018829,150.858002 283.637360,158.770340 
	C265.249969,158.770340 248.065582,158.770340 229.858032,158.770340 
	C238.833954,148.027573 247.473175,137.687790 256.579651,126.788803 
	C259.289215,129.935669 261.882050,132.946915 264.729706,136.214706 
z"/>
</svg>