<svg version="1.1" id="Layer_1" xmlns="http://www.w3.org/2000/svg" xmlns:xlink="http://www.w3.org/1999/xlink" x="0px" y="0px"
	 width="100%" viewBox="0 0 2560 1381" enable-background="new 0 0 2560 1381" xml:space="preserve">
<path fill="#F89939" opacity="1.000000" stroke="none" 
	d="
M1626.000000,0.999984 
	C1660.354248,1.000000 1694.708496,1.000000 1729.220215,1.366506 
	C1730.228271,2.152515 1731.046265,2.846000 1731.933838,2.950662 
	C1746.558594,4.675205 1761.258179,5.891212 1775.806274,8.106069 
	C1792.815430,10.695600 1809.893555,13.330178 1826.577148,17.429697 
	C1845.716187,22.132551 1864.713867,27.730515 1883.294922,34.293606 
	C1901.882935,40.859222 1920.185547,48.440136 1938.065186,56.754749 
	C1965.056885,69.306709 1990.543213,84.565964 2014.831421,101.882889 
	C2036.103638,117.049469 2056.266846,133.491776 2075.026611,151.630661 
	C2083.480713,159.804855 2091.593262,168.359604 2099.477783,177.087738 
	C2107.498291,185.966766 2115.779053,194.755905 2122.649170,204.498642 
	C2136.380127,223.971283 2150.023682,243.593674 2162.195068,264.051575 
	C2172.799805,281.876099 2182.470215,300.456940 2190.478516,319.572937 
	C2199.715576,341.622589 2207.260742,364.442230 2214.430176,387.276184 
	C2219.563721,403.625549 2223.543701,420.418304 2226.800781,437.252655 
	C2230.019775,453.888977 2232.027100,470.787262 2233.931152,487.642365 
	C2235.718750,503.469574 2237.516357,519.374512 2237.819336,535.273621 
	C2238.393555,565.408630 2238.703125,595.583069 2235.045654,625.621643 
	C2233.757324,636.200378 2233.438232,646.908813 2231.878174,657.439758 
	C2229.638672,672.554443 2226.725098,687.571045 2223.997803,702.611145 
	C2218.469727,733.096069 2211.086914,763.162109 2201.038818,792.441406 
	C2191.847168,819.225159 2181.210205,845.510376 2171.560547,872.142273 
	C2170.069092,876.258972 2167.466553,876.831787 2164.180176,876.955933 
	C2159.189941,877.144287 2154.179688,877.221191 2149.194824,876.984619 
	C2145.861816,876.826416 2144.221924,878.204895 2142.689209,881.072388 
	C2133.795654,897.709900 2123.615723,913.512085 2111.018555,927.635803 
	C2094.844971,945.768921 2076.121094,959.971313 2051.860107,965.464722 
	C2048.955322,966.122498 2045.992676,966.525269 2043.746094,966.923950 
	C2048.048828,950.359070 2052.851807,934.301453 2056.198975,917.945923 
	C2057.848633,909.884827 2057.779785,901.147522 2056.724121,892.943237 
	C2055.532471,883.683044 2048.936523,877.584839 2039.729736,876.319336 
	C2032.580933,875.336731 2025.005249,875.483154 2017.884277,876.690063 
	C2003.753052,879.085083 1992.770020,887.239868 1984.589722,898.755310 
	C1972.210693,916.181580 1963.697632,935.260559 1961.234375,956.782959 
	C1959.124023,975.221924 1965.866699,989.231323 1981.557007,998.985291 
	C1984.632812,1000.897461 1987.860962,1002.564636 1991.154663,1004.421387 
	C1990.379883,1005.582886 1989.735718,1006.544983 1989.094971,1007.509399 
	C1964.513672,1044.500977 1932.917358,1075.046753 1899.765625,1104.080688 
	C1894.628784,1108.579468 1888.270874,1112.483398 1881.803101,1114.512939 
	C1862.320679,1120.626221 1852.316040,1110.258179 1851.217651,1091.931030 
	C1849.949219,1070.769897 1854.980347,1050.222412 1860.712646,1030.090332 
	C1873.918457,983.712646 1887.831543,937.536255 1901.457275,891.278076 
	C1902.922607,886.303406 1904.388306,881.328979 1905.788208,876.577332 
	C1892.607300,874.354553 1880.803345,876.198364 1870.361084,884.080078 
	C1869.965454,884.378845 1869.510254,884.601440 1869.073364,884.842468 
	C1850.896973,894.872986 1832.719482,904.901550 1814.472046,914.968994 
	C1813.952026,914.179199 1813.517212,913.662170 1813.236450,913.071960 
	C1795.200806,875.173340 1765.286377,871.630493 1734.873901,876.282471 
	C1716.147461,879.147034 1699.075073,887.425659 1682.973389,897.254333 
	C1623.425049,933.603210 1583.353638,984.087219 1569.993652,1053.832397 
	C1569.462036,1056.607910 1568.777954,1060.012695 1566.898193,1061.767456 
	C1551.684082,1075.970337 1536.659790,1090.445801 1520.622314,1103.680542 
	C1498.493408,1121.942261 1473.025513,1129.336304 1444.404175,1123.061157 
	C1415.845947,1116.800049 1390.842285,1085.901611 1390.280518,1056.137329 
	C1391.477417,1055.742065 1392.740479,1055.373657 1393.968506,1054.912476 
	C1417.765381,1045.975830 1441.911255,1037.852417 1465.250610,1027.847534 
	C1487.850708,1018.159485 1508.516235,1004.929199 1525.141846,986.299011 
	C1540.987915,968.542236 1548.461548,948.003113 1543.820923,924.256592 
	C1539.537598,902.337891 1525.239990,888.635071 1504.869141,881.116272 
	C1490.613525,875.854553 1475.830322,875.211487 1460.652344,876.768433 
	C1447.946899,878.071655 1435.790649,880.765564 1424.059570,885.586609 
	C1397.205078,896.622742 1375.885620,914.968140 1357.295898,936.757324 
	C1327.844116,971.278381 1309.363525,1010.560059 1305.974731,1056.312744 
	C1305.876831,1057.634033 1305.113159,1059.237549 1304.129028,1060.112549 
	C1285.094971,1077.036621 1266.256104,1094.197876 1246.767578,1110.585571 
	C1237.168213,1118.657349 1225.662354,1123.849854 1213.259766,1126.591431 
	C1198.375000,1129.881714 1185.062744,1127.721680 1174.893188,1115.183594 
	C1166.797485,1105.202148 1162.006470,1093.484497 1161.330933,1080.954712 
	C1160.331421,1062.415039 1160.966309,1043.783691 1161.048828,1025.192017 
	C1161.067871,1020.910583 1161.595703,1016.623840 1162.059937,1012.358032 
	C1162.165527,1011.388428 1162.834229,1010.373596 1163.491089,1009.585938 
	C1181.303833,988.228210 1200.020142,967.558228 1216.809082,945.425842 
	C1252.903320,897.843628 1282.076050,846.725159 1293.561890,787.007080 
	C1297.917603,764.360840 1300.532715,741.660522 1299.497314,718.671143 
	C1298.925415,705.972656 1297.422974,693.227783 1290.999512,681.763000 
	C1285.847900,672.568481 1279.596924,669.084290 1268.364746,673.206116 
	C1240.112671,683.573730 1211.905762,694.065491 1183.750977,704.694092 
	C1181.695312,705.470154 1179.545532,707.408752 1178.546631,709.370544 
	C1132.061646,800.678162 1096.706299,895.941162 1077.671875,996.849609 
	C1074.082153,1015.880371 1071.458984,1035.229858 1070.326538,1054.545898 
	C1069.372803,1070.815430 1068.891235,1087.296265 1071.941895,1103.621094 
	C1075.285034,1121.510864 1080.921875,1138.319702 1091.993408,1152.993408 
	C1106.974609,1172.848877 1126.961792,1183.327759 1151.768921,1183.920776 
	C1174.978760,1184.475464 1196.316406,1177.273438 1216.508057,1166.442627 
	C1244.136841,1151.622437 1268.342529,1132.042114 1291.875610,1111.568726 
	C1296.982666,1107.125732 1302.018433,1102.600952 1307.033936,1098.160889 
	C1309.484253,1105.998291 1311.265259,1113.615479 1314.201172,1120.757812 
	C1327.819458,1153.886841 1352.850342,1173.914673 1387.355957,1181.753052 
	C1400.353027,1184.705566 1413.834229,1184.633667 1427.320068,1183.260864 
	C1447.564087,1181.199951 1466.731445,1175.965942 1484.674438,1166.464722 
	C1505.702026,1155.329956 1524.329102,1140.769287 1542.178955,1125.191040 
	C1551.045898,1117.452637 1559.641968,1109.403564 1568.456055,1101.408447 
	C1569.685059,1107.114502 1570.652954,1112.589111 1572.056641,1117.949585 
	C1576.970459,1136.714844 1585.997437,1153.182739 1600.152344,1166.597412 
	C1613.796997,1179.528320 1630.171387,1185.679077 1648.853882,1183.842773 
	C1670.530396,1181.712402 1689.274170,1172.349731 1705.815063,1158.351440 
	C1730.192017,1137.721802 1749.708496,1112.875854 1768.243652,1086.828125 
	C1768.725830,1086.709839 1768.924072,1086.686401 1769.154053,1087.151855 
	C1769.813232,1101.044922 1769.632812,1114.550415 1771.298828,1127.824341 
	C1772.907715,1140.642456 1776.494629,1153.187134 1783.926270,1164.198120 
	C1792.813354,1177.365356 1805.410645,1183.802734 1821.050659,1183.923584 
	C1839.342773,1184.064941 1855.873535,1177.552979 1869.828491,1166.468628 
	C1892.103149,1148.775879 1913.816772,1130.302246 1934.900269,1111.201416 
	C1968.109131,1081.116089 1997.947388,1048.034546 2020.455566,1008.894592 
	C2021.274536,1007.470642 2023.344360,1006.401001 2025.046021,1005.908875 
	C2036.215698,1002.678101 2047.528809,999.922180 2058.621338,996.454712 
	C2065.032715,994.450562 2071.118896,991.406982 2078.333496,988.425415 
	C2076.938721,990.799133 2076.015381,992.267151 2075.191406,993.788818 
	C2064.584961,1013.374084 2053.207520,1032.594360 2043.667969,1052.687012 
	C2037.158447,1066.397705 2032.243286,1081.083618 2028.538574,1095.817139 
	C2026.640869,1103.363892 2024.857544,1110.169800 2019.591919,1115.967651 
	C2007.861938,1128.883545 1996.620361,1142.261597 1984.533081,1154.829346 
	C1972.112061,1167.744507 1959.430908,1180.502930 1945.941284,1192.272949 
	C1928.689453,1207.325562 1910.784058,1221.668335 1892.670898,1235.684692 
	C1869.018799,1253.987305 1843.284790,1269.172241 1816.778809,1282.877197 
	C1797.323975,1292.936401 1777.389526,1302.155884 1757.257935,1310.791992 
	C1739.290527,1318.499634 1720.927246,1325.382446 1702.427856,1331.722046 
	C1686.228516,1337.273438 1669.704590,1341.975342 1653.128418,1346.303589 
	C1634.001831,1351.297607 1614.713013,1355.709351 1595.395752,1359.920044 
	C1581.440430,1362.961914 1567.356567,1365.458374 1553.267944,1367.829102 
	C1543.130859,1369.534668 1532.901489,1370.712402 1522.694702,1371.975952 
	C1513.595581,1373.102295 1504.475952,1374.069336 1495.356567,1375.023682 
	C1482.317261,1376.388550 1469.283813,1377.839844 1456.221191,1378.938599 
	C1448.329102,1379.602295 1440.383423,1379.610718 1432.472046,1380.086182 
	C1431.612915,1380.137817 1430.822388,1381.334473 1430.000000,1382.000000 
	C1388.312378,1382.000000 1346.624878,1382.000000 1304.671875,1381.593994 
	C1303.222290,1380.792358 1302.057007,1380.129028 1300.850830,1380.042847 
	C1290.497925,1379.304810 1280.125122,1378.822998 1269.782715,1377.969116 
	C1255.391602,1376.781128 1241.001099,1375.525391 1226.647949,1373.954712 
	C1210.232422,1372.158447 1193.797363,1370.378662 1177.483032,1367.864502 
	C1161.434814,1365.391113 1145.538208,1361.945557 1129.555176,1359.035767 
	C1100.011963,1353.657227 1071.006958,1346.166138 1042.392212,1337.101929 
	C1017.596985,1329.247559 993.290161,1320.190186 970.654907,1307.206909 
	C957.808472,1299.838379 946.512756,1290.735474 937.670837,1278.496338 
	C927.617188,1264.579834 918.928345,1249.959595 912.111389,1234.262817 
	C906.762024,1221.945312 901.507996,1209.546875 897.068726,1196.884033 
	C891.874207,1182.066895 887.192322,1167.037720 883.053772,1151.891479 
	C878.574646,1135.498657 874.536682,1118.955322 871.119507,1102.310791 
	C867.554260,1084.944580 864.835327,1067.399170 861.978027,1049.894409 
	C859.798828,1036.543579 857.725037,1023.165344 856.075134,1009.741516 
	C854.415649,996.240356 853.014526,982.689758 852.083801,969.120850 
	C850.773926,950.022461 849.181152,930.887085 849.183044,911.767639 
	C849.186340,879.081360 850.226868,846.392578 851.062561,813.710693 
	C851.318909,803.683838 852.125061,793.657593 853.041077,783.664246 
	C854.536194,767.352966 856.142944,751.047241 858.049500,734.779846 
	C859.797791,719.862122 861.550903,704.919128 864.124268,690.130432 
	C867.350220,671.591431 870.567993,652.977661 875.307800,634.791870 
	C883.263489,604.267212 891.839661,573.874695 901.226746,543.760803 
	C911.213745,511.722687 924.733032,480.986267 939.127625,450.704529 
	C945.736938,436.800659 953.496887,423.428833 961.039429,409.986511 
	C976.979492,381.577911 994.615356,354.246338 1015.463745,329.179871 
	C1030.911377,310.606934 1046.878296,292.445953 1063.125732,274.566589 
	C1071.469238,265.384979 1080.906006,257.192932 1089.902588,248.610199 
	C1094.077271,244.627609 1098.245972,240.620422 1102.649902,236.899506 
	C1118.995117,223.089554 1135.141968,209.020630 1151.927002,195.762390 
	C1168.118774,182.972748 1184.690308,170.605545 1201.676147,158.895813 
	C1219.049316,146.919067 1236.736206,135.287460 1254.995239,124.732361 
	C1279.428711,110.608086 1304.107788,96.761482 1329.492554,84.471283 
	C1354.548706,72.340187 1380.251831,61.319031 1406.341187,51.612106 
	C1432.409424,41.913078 1459.117798,33.774891 1485.895020,26.184982 
	C1513.726318,18.296268 1542.088867,12.430000 1570.871948,8.968416 
	C1588.087402,6.897999 1605.325562,5.015579 1622.539307,2.931301 
	C1623.753052,2.784339 1624.849121,1.666404 1626.000000,0.999984 
M1744.188965,729.309814 
	C1749.472778,737.789307 1754.712891,746.296570 1760.086548,754.718689 
	C1760.907471,756.005432 1762.303589,757.769409 1763.505493,757.827576 
	C1769.900635,758.136902 1776.318848,757.973206 1783.977661,757.973206 
	C1768.344727,732.864746 1753.343262,708.770264 1737.796021,683.799255 
	C1750.329712,671.315857 1762.854492,658.841431 1775.877930,645.870239 
	C1769.826904,645.870239 1764.362061,646.053040 1758.917114,645.803772 
	C1755.480469,645.646484 1753.032227,646.705627 1750.598511,649.183228 
	C1737.638428,662.377197 1724.502197,675.398071 1711.412598,688.464722 
	C1710.211548,689.663574 1708.910400,690.762207 1706.738037,692.745056 
	C1706.738037,661.778381 1706.738037,632.200439 1706.738037,602.413330 
	C1700.709473,602.413330 1695.160889,602.413330 1689.399902,602.413330 
	C1689.399902,654.319580 1689.399902,705.883240 1689.399902,758.003723 
	C1693.784058,758.003723 1697.916626,757.799744 1702.018799,758.063904 
	C1705.747803,758.304016 1706.994385,756.916321 1706.940552,753.213562 
	C1706.771484,741.552368 1706.852783,729.887024 1706.909912,718.223633 
	C1706.917725,716.607117 1706.745728,714.434631 1707.659912,713.469299 
	C1712.870483,707.967285 1718.384888,702.753174 1724.124268,697.118958 
	C1730.981445,708.094727 1737.410156,718.384705 1744.188965,729.309814 
M1434.959351,752.568420 
	C1439.956421,755.105896 1444.709595,758.495117 1449.999512,760.009949 
	C1462.395996,763.559814 1475.209961,763.612854 1487.425903,759.565552 
	C1493.852539,757.436340 1500.468018,753.888062 1505.269653,749.207397 
	C1521.038818,733.835632 1516.016357,708.834351 1495.841675,700.260193 
	C1490.370605,697.935059 1484.441040,696.687988 1478.721313,694.948120 
	C1469.839355,692.246338 1460.541016,690.449890 1452.185059,686.605164 
	C1442.803833,682.288635 1442.808960,670.614380 1450.765015,663.904663 
	C1457.231445,658.451111 1477.136719,658.383606 1483.539185,662.542603 
	C1488.758179,665.932678 1490.410645,671.166443 1491.245239,676.754517 
	C1497.273438,676.754517 1502.878784,676.754517 1508.802734,676.754517 
	C1509.961548,665.241089 1505.822632,656.341187 1496.711548,649.883789 
	C1481.394409,639.027771 1451.723267,640.426147 1437.368408,652.564209 
	C1421.794678,665.732910 1420.555054,693.804810 1444.225098,703.109924 
	C1449.011841,704.991638 1453.920166,706.616699 1458.867676,708.025513 
	C1467.820557,710.574768 1476.943848,712.563843 1485.799194,715.401001 
	C1490.419800,716.881409 1494.441162,719.785767 1495.038818,725.461060 
	C1495.761230,732.323730 1494.080200,738.220886 1487.616211,741.504578 
	C1483.823730,743.431152 1479.641113,744.847717 1475.472290,745.729126 
	C1460.369629,748.921936 1448.418213,742.202454 1442.896729,727.973999 
	C1442.422852,726.752808 1440.832275,725.207458 1439.680176,725.137756 
	C1434.577515,724.828796 1429.445679,725.003967 1423.955444,725.003967 
	C1424.107544,735.756165 1426.921387,744.810120 1434.959351,752.568420 
M1587.015869,761.857361 
	C1610.407471,757.172424 1625.379639,739.997925 1623.926147,719.028442 
	C1620.338501,719.028442 1616.672852,719.336670 1613.081421,718.952515 
	C1608.306152,718.441711 1606.299805,719.988159 1605.099609,724.944580 
	C1601.931274,738.029358 1594.015869,744.786011 1582.158936,745.847473 
	C1569.808960,746.952942 1558.855835,741.234924 1553.690186,729.740173 
	C1551.012817,723.782410 1549.227905,717.128357 1548.544800,710.630615 
	C1547.097168,696.861877 1548.294067,683.257446 1556.123047,671.200745 
	C1562.393433,661.544617 1573.222656,657.432678 1584.884521,659.652649 
	C1596.549438,661.873230 1602.496948,669.491699 1604.963745,680.514709 
	C1605.207275,681.602722 1605.483276,682.683472 1605.800781,684.003052 
	C1610.353027,684.003052 1614.672485,683.877258 1618.980591,684.042603 
	C1622.472046,684.176514 1623.343750,682.427612 1622.974243,679.394409 
	C1621.496948,667.266479 1616.769653,657.048767 1606.163086,650.130615 
	C1582.046143,634.400330 1549.026978,643.290405 1536.817749,669.307495 
	C1528.753784,686.491455 1526.808472,704.510193 1531.764648,723.118103 
	C1534.203003,732.272888 1537.756714,740.758301 1544.228882,747.801880 
	C1555.588745,760.164612 1570.065796,763.388428 1587.015869,761.857361 
M1850.028564,630.499878 
	C1850.028564,635.447266 1850.028564,640.394592 1850.028564,645.965942 
	C1844.743286,645.965942 1840.017456,645.965942 1835.309570,645.965942 
	C1835.309570,651.011902 1835.309570,655.408447 1835.309570,660.271362 
	C1840.258179,660.271362 1844.858887,660.271362 1850.028442,660.271362 
	C1850.028442,662.683105 1850.028320,664.629517 1850.028442,666.575989 
	C1850.029785,692.392212 1849.984253,718.208618 1850.055176,744.024658 
	C1850.084351,754.601685 1855.744751,761.022522 1866.264893,761.886353 
	C1872.642944,762.410034 1879.098999,761.982910 1885.997803,761.982910 
	C1885.997803,757.141113 1886.023926,753.671997 1885.984375,750.203735 
	C1885.969604,748.904541 1885.802002,747.607056 1885.696411,746.207642 
	C1884.768433,746.290710 1884.109863,746.307861 1883.465698,746.413391 
	C1871.138672,748.433533 1867.438477,745.953735 1867.639160,734.052429 
	C1868.018066,711.573730 1867.742188,689.084045 1867.758667,666.598938 
	C1867.760010,664.842407 1867.918823,663.085999 1868.020508,660.998718 
	C1873.014160,660.998718 1877.501221,661.202271 1881.949829,660.878418 
	C1883.338135,660.777466 1885.661743,659.365173 1885.771973,658.357666 
	C1886.213867,654.321045 1885.954468,650.207703 1885.954468,645.715088 
	C1879.592896,645.715088 1873.982910,645.715088 1867.773193,645.715088 
	C1867.773193,635.407410 1867.773193,625.503540 1867.773193,615.336060 
	C1861.610962,615.336060 1856.062378,615.336060 1850.028564,615.336060 
	C1850.028564,620.253357 1850.028564,624.878662 1850.028564,630.499878 
M1798.914551,667.500122 
	C1798.914551,697.572876 1798.914551,727.645630 1798.914551,758.000000 
	C1803.200806,758.000000 1806.682739,758.007263 1810.164673,757.998413 
	C1816.635132,757.981934 1816.665894,757.971130 1816.667480,751.653992 
	C1816.676025,718.331482 1816.671631,685.009033 1816.671631,651.686523 
	C1816.671631,649.905334 1816.671631,648.124146 1816.671631,646.236145 
	C1810.427612,646.236145 1804.868164,646.236145 1798.914551,646.236145 
	C1798.914551,653.226929 1798.914551,659.863525 1798.914551,667.500122 
M1661.526733,706.500183 
	C1661.526733,686.423889 1661.526733,666.347595 1661.526733,646.312134 
	C1655.189453,646.312134 1649.641602,646.312134 1644.312256,646.312134 
	C1644.312256,683.764099 1644.312256,720.777649 1644.312256,758.000000 
	C1648.265747,758.000000 1651.778076,757.742981 1655.237183,758.062683 
	C1659.959473,758.499084 1661.710327,756.889526 1661.619507,751.947327 
	C1661.347046,737.136108 1661.524414,722.316528 1661.526733,706.500183 
M1798.043701,603.844666 
	C1798.043701,610.461182 1798.043701,617.077637 1798.043701,624.361816 
	C1803.808716,624.361816 1809.083740,624.448486 1814.349609,624.266968 
	C1815.124512,624.240234 1816.489258,622.958008 1816.507812,622.229309 
	C1816.676758,615.628723 1816.606812,609.022095 1816.606812,601.681274 
	C1809.984619,602.128784 1804.108032,602.525879 1798.043701,603.844666 
M1661.002686,611.539368 
	C1661.002686,608.464539 1661.002686,605.389771 1661.002686,602.417969 
	C1654.745117,602.417969 1649.342041,602.417969 1643.459106,602.417969 
	C1643.459106,609.047791 1643.347412,615.343201 1643.578247,621.626160 
	C1643.613159,622.577148 1645.198975,624.210693 1646.139160,624.264160 
	C1650.904663,624.535217 1655.693848,624.388977 1661.002686,624.388977 
	C1661.002686,620.082947 1661.002686,616.300964 1661.002686,611.539368 
z"/>
<path fill="#000000" opacity="1.000000" stroke="none" 
	d="
M1625.531372,0.999984 
	C1624.849121,1.666404 1623.753052,2.784339 1622.539307,2.931301 
	C1605.325562,5.015579 1588.087402,6.897999 1570.871948,8.968416 
	C1542.088867,12.430000 1513.726318,18.296268 1485.895020,26.184982 
	C1459.117798,33.774891 1432.409424,41.913078 1406.341187,51.612106 
	C1380.251831,61.319031 1354.548706,72.340187 1329.492554,84.471283 
	C1304.107788,96.761482 1279.428711,110.608086 1254.995239,124.732361 
	C1236.736206,135.287460 1219.049316,146.919067 1201.676147,158.895813 
	C1184.690308,170.605545 1168.118774,182.972748 1151.927002,195.762390 
	C1135.141968,209.020630 1118.995117,223.089554 1102.649902,236.899506 
	C1098.245972,240.620422 1094.077271,244.627609 1089.902588,248.610199 
	C1080.906006,257.192932 1071.469238,265.384979 1063.125732,274.566589 
	C1046.878296,292.445953 1030.911377,310.606934 1015.463745,329.179871 
	C994.615356,354.246338 976.979492,381.577911 961.039429,409.986511 
	C953.496887,423.428833 945.736938,436.800659 939.127625,450.704529 
	C924.733032,480.986267 911.213745,511.722687 901.226746,543.760803 
	C891.839661,573.874695 883.263489,604.267212 875.307800,634.791870 
	C870.567993,652.977661 867.350220,671.591431 864.124268,690.130432 
	C861.550903,704.919128 859.797791,719.862122 858.049500,734.779846 
	C856.142944,751.047241 854.536194,767.352966 853.041077,783.664246 
	C852.125061,793.657593 851.318909,803.683838 851.062561,813.710693 
	C850.226868,846.392578 849.186340,879.081360 849.183044,911.767639 
	C849.181152,930.887085 850.773926,950.022461 852.083801,969.120850 
	C853.014526,982.689758 854.415649,996.240356 856.075134,1009.741516 
	C857.725037,1023.165344 859.798828,1036.543579 861.978027,1049.894409 
	C864.835327,1067.399170 867.554260,1084.944580 871.119507,1102.310791 
	C874.536682,1118.955322 878.574646,1135.498657 883.053772,1151.891479 
	C887.192322,1167.037720 891.874207,1182.066895 897.068726,1196.884033 
	C901.507996,1209.546875 906.762024,1221.945312 912.111389,1234.262817 
	C918.928345,1249.959595 927.617188,1264.579834 937.670837,1278.496338 
	C946.512756,1290.735474 957.808472,1299.838379 970.654907,1307.206909 
	C993.290161,1320.190186 1017.596985,1329.247559 1042.392212,1337.101929 
	C1071.006958,1346.166138 1100.011963,1353.657227 1129.555176,1359.035767 
	C1145.538208,1361.945557 1161.434814,1365.391113 1177.483032,1367.864502 
	C1193.797363,1370.378662 1210.232422,1372.158447 1226.647949,1373.954712 
	C1241.001099,1375.525391 1255.391602,1376.781128 1269.782715,1377.969116 
	C1280.125122,1378.822998 1290.497925,1379.304810 1300.850830,1380.042847 
	C1302.057007,1380.129028 1303.222290,1380.792358 1304.203247,1381.593994 
	C869.774841,1382.000000 435.549713,1382.000000 1.000000,1382.000000 
	C1.000000,1231.312622 1.000000,1080.625000 1.393174,929.243896 
	C2.180606,929.229431 2.830556,929.872742 2.930576,930.592529 
	C4.326724,940.639587 5.022400,950.829712 7.118704,960.724304 
	C11.326254,980.584045 15.225514,1000.614136 21.232637,1019.958801 
	C27.483070,1040.087036 35.636032,1059.670288 43.745262,1079.163940 
	C53.911938,1103.603394 66.800995,1126.693237 81.376236,1148.772461 
	C90.345299,1162.359009 99.563065,1175.832153 109.501671,1188.713867 
	C119.728554,1201.968994 130.663666,1214.716431 141.861603,1227.171143 
	C150.330200,1236.590210 159.335358,1245.605103 168.761139,1254.065308 
	C180.329071,1264.447998 191.978394,1274.928467 204.669189,1283.832153 
	C229.923233,1301.549683 256.663513,1316.961548 285.557098,1328.020508 
	C305.583099,1335.685303 325.880157,1342.823120 346.455048,1348.829834 
	C376.740204,1357.671509 407.742188,1363.334351 439.230804,1366.005615 
	C455.460541,1367.382324 471.688538,1369.617310 487.933594,1369.773682 
	C511.127991,1369.997314 534.352905,1368.994995 557.534363,1367.882690 
	C571.429504,1367.216064 585.352539,1365.918701 599.109192,1363.871582 
	C618.290222,1361.017090 637.537659,1358.076416 656.375244,1353.575928 
	C682.472656,1347.341064 708.136353,1339.382446 731.577637,1325.754883 
	C742.211304,1319.573120 751.590088,1311.968384 757.975037,1301.171143 
	C767.316101,1285.375000 774.122131,1268.442993 778.480286,1250.734985 
	C784.540894,1226.109863 790.275391,1201.356445 794.762756,1176.408325 
	C798.007141,1158.370728 799.411316,1139.960449 800.865784,1121.655151 
	C802.136108,1105.667847 802.598450,1089.600342 802.902466,1073.558350 
	C803.093445,1063.480225 802.349060,1053.383545 801.995422,1043.296265 
	C801.682190,1034.363525 801.379944,1025.429810 800.971558,1016.501099 
	C800.768433,1012.058594 800.578247,1007.593201 799.967834,1003.195679 
	C797.743591,987.171936 795.317749,971.176270 793.017944,955.162903 
	C789.519714,930.804749 783.493347,907.037598 776.224487,883.570984 
	C766.998169,853.784851 754.857178,825.242920 739.557312,798.045410 
	C728.917786,779.132202 716.946228,761.075623 702.867004,744.618591 
	C692.821167,732.876221 681.888733,721.793640 670.552307,711.278870 
	C656.072998,697.848999 641.340271,684.569702 625.701965,672.545288 
	C608.799133,659.548462 591.206604,647.288086 573.022705,636.164917 
	C556.313477,625.943848 538.632568,617.218262 520.973206,608.673950 
	C507.997955,602.395935 494.525299,597.044922 480.993835,592.038818 
	C453.979187,582.044495 426.355194,574.095581 397.775574,569.963501 
	C382.406647,567.741394 367.015717,565.435364 351.552521,564.179932 
	C340.261383,563.263245 328.820007,563.618958 317.474518,564.095825 
	C303.329407,564.690308 289.199951,565.826294 275.089325,567.029114 
	C256.006714,568.655640 237.594177,573.541077 219.272858,578.886230 
	C196.950974,585.398560 175.898346,594.787903 155.610382,606.051758 
	C136.280899,616.783447 118.494179,629.723083 102.179657,644.523682 
	C83.001602,661.922119 66.285378,681.554932 52.231514,703.385376 
	C39.108307,723.770264 28.446033,745.392151 20.434401,768.234863 
	C11.507651,793.686707 5.275487,819.806091 2.916560,846.763794 
	C2.846969,847.559021 1.663905,848.256775 0.999998,849.000000 
	C1.000000,566.383240 1.000000,283.766479 1.000000,1.000000 
	C542.354248,1.000000 1083.708496,1.000000 1625.531372,0.999984 
z"/>
<path fill="#000000" opacity="1.000000" stroke="none" 
	d="
M1430.468628,1382.000000 
	C1430.822388,1381.334473 1431.612915,1380.137817 1432.472046,1380.086182 
	C1440.383423,1379.610718 1448.329102,1379.602295 1456.221191,1378.938599 
	C1469.283813,1377.839844 1482.317261,1376.388550 1495.356567,1375.023682 
	C1504.475952,1374.069336 1513.595581,1373.102295 1522.694702,1371.975952 
	C1532.901489,1370.712402 1543.130859,1369.534668 1553.267944,1367.829102 
	C1567.356567,1365.458374 1581.440430,1362.961914 1595.395752,1359.920044 
	C1614.713013,1355.709351 1634.001831,1351.297607 1653.128418,1346.303589 
	C1669.704590,1341.975342 1686.228516,1337.273438 1702.427856,1331.722046 
	C1720.927246,1325.382446 1739.290527,1318.499634 1757.257935,1310.791992 
	C1777.389526,1302.155884 1797.323975,1292.936401 1816.778809,1282.877197 
	C1843.284790,1269.172241 1869.018799,1253.987305 1892.670898,1235.684692 
	C1910.784058,1221.668335 1928.689453,1207.325562 1945.941284,1192.272949 
	C1959.430908,1180.502930 1972.112061,1167.744507 1984.533081,1154.829346 
	C1996.620361,1142.261597 2007.861938,1128.883545 2019.591919,1115.967651 
	C2024.857544,1110.169800 2026.640869,1103.363892 2028.538574,1095.817139 
	C2032.243286,1081.083618 2037.158447,1066.397705 2043.667969,1052.687012 
	C2053.207520,1032.594360 2064.584961,1013.374084 2075.191406,993.788818 
	C2076.015381,992.267151 2076.938721,990.799133 2078.333496,988.425415 
	C2071.118896,991.406982 2065.032715,994.450562 2058.621338,996.454712 
	C2047.528809,999.922180 2036.215698,1002.678101 2025.046021,1005.908875 
	C2023.344360,1006.401001 2021.274536,1007.470642 2020.455566,1008.894592 
	C1997.947388,1048.034546 1968.109131,1081.116089 1934.900269,1111.201416 
	C1913.816772,1130.302246 1892.103149,1148.775879 1869.828491,1166.468628 
	C1855.873535,1177.552979 1839.342773,1184.064941 1821.050659,1183.923584 
	C1805.410645,1183.802734 1792.813354,1177.365356 1783.926270,1164.198120 
	C1776.494629,1153.187134 1772.907715,1140.642456 1771.298828,1127.824341 
	C1769.632812,1114.550415 1769.813232,1101.044922 1769.036987,1086.949585 
	C1768.578491,1086.480103 1768.269043,1086.701538 1767.959595,1086.922974 
	C1749.708496,1112.875854 1730.192017,1137.721802 1705.815063,1158.351440 
	C1689.274170,1172.349731 1670.530396,1181.712402 1648.853882,1183.842773 
	C1630.171387,1185.679077 1613.796997,1179.528320 1600.152344,1166.597412 
	C1585.997437,1153.182739 1576.970459,1136.714844 1572.056641,1117.949585 
	C1570.652954,1112.589111 1569.685059,1107.114502 1568.456055,1101.408447 
	C1559.641968,1109.403564 1551.045898,1117.452637 1542.178955,1125.191040 
	C1524.329102,1140.769287 1505.702026,1155.329956 1484.674438,1166.464722 
	C1466.731445,1175.965942 1447.564087,1181.199951 1427.320068,1183.260864 
	C1413.834229,1184.633667 1400.353027,1184.705566 1387.355957,1181.753052 
	C1352.850342,1173.914673 1327.819458,1153.886841 1314.201172,1120.757812 
	C1311.265259,1113.615479 1309.484253,1105.998291 1307.033936,1098.160889 
	C1302.018433,1102.600952 1296.982666,1107.125732 1291.875610,1111.568726 
	C1268.342529,1132.042114 1244.136841,1151.622437 1216.508057,1166.442627 
	C1196.316406,1177.273438 1174.978760,1184.475464 1151.768921,1183.920776 
	C1126.961792,1183.327759 1106.974609,1172.848877 1091.993408,1152.993408 
	C1080.921875,1138.319702 1075.285034,1121.510864 1071.941895,1103.621094 
	C1068.891235,1087.296265 1069.372803,1070.815430 1070.326538,1054.545898 
	C1071.458984,1035.229858 1074.082153,1015.880371 1077.671875,996.849609 
	C1096.706299,895.941162 1132.061646,800.678162 1178.546631,709.370544 
	C1179.545532,707.408752 1181.695312,705.470154 1183.750977,704.694092 
	C1211.905762,694.065491 1240.112671,683.573730 1268.364746,673.206116 
	C1279.596924,669.084290 1285.847900,672.568481 1290.999512,681.763000 
	C1297.422974,693.227783 1298.925415,705.972656 1299.497314,718.671143 
	C1300.532715,741.660522 1297.917603,764.360840 1293.561890,787.007080 
	C1282.076050,846.725159 1252.903320,897.843628 1216.809082,945.425842 
	C1200.020142,967.558228 1181.303833,988.228210 1163.491089,1009.585938 
	C1162.834229,1010.373596 1162.165527,1011.388428 1162.059937,1012.358032 
	C1161.595703,1016.623840 1161.067871,1020.910583 1161.048828,1025.192017 
	C1160.966309,1043.783691 1160.331421,1062.415039 1161.330933,1080.954712 
	C1162.006470,1093.484497 1166.797485,1105.202148 1174.893188,1115.183594 
	C1185.062744,1127.721680 1198.375000,1129.881714 1213.259766,1126.591431 
	C1225.662354,1123.849854 1237.168213,1118.657349 1246.767578,1110.585571 
	C1266.256104,1094.197876 1285.094971,1077.036621 1304.129028,1060.112549 
	C1305.113159,1059.237549 1305.876831,1057.634033 1305.974731,1056.312744 
	C1309.363525,1010.560059 1327.844116,971.278381 1357.295898,936.757324 
	C1375.885620,914.968140 1397.205078,896.622742 1424.059570,885.586609 
	C1435.790649,880.765564 1447.946899,878.071655 1460.652344,876.768433 
	C1475.830322,875.211487 1490.613525,875.854553 1504.869141,881.116272 
	C1525.239990,888.635071 1539.537598,902.337891 1543.820923,924.256592 
	C1548.461548,948.003113 1540.987915,968.542236 1525.141846,986.299011 
	C1508.516235,1004.929199 1487.850708,1018.159485 1465.250610,1027.847534 
	C1441.911255,1037.852417 1417.765381,1045.975830 1393.968506,1054.912476 
	C1392.740479,1055.373657 1391.477417,1055.742065 1390.280518,1056.137329 
	C1390.842285,1085.901611 1415.845947,1116.800049 1444.404175,1123.061157 
	C1473.025513,1129.336304 1498.493408,1121.942261 1520.622314,1103.680542 
	C1536.659790,1090.445801 1551.684082,1075.970337 1566.898193,1061.767456 
	C1568.777954,1060.012695 1569.462036,1056.607910 1569.993652,1053.832397 
	C1583.353638,984.087219 1623.425049,933.603210 1682.973389,897.254333 
	C1699.075073,887.425659 1716.147461,879.147034 1734.873901,876.282471 
	C1765.286377,871.630493 1795.200806,875.173340 1813.236450,913.071960 
	C1813.517212,913.662170 1813.952026,914.179199 1814.472046,914.968994 
	C1832.719482,904.901550 1850.896973,894.872986 1869.073364,884.842468 
	C1869.510254,884.601440 1869.965454,884.378845 1870.361084,884.080078 
	C1880.803345,876.198364 1892.607300,874.354553 1905.788208,876.577332 
	C1904.388306,881.328979 1902.922607,886.303406 1901.457275,891.278076 
	C1887.831543,937.536255 1873.918457,983.712646 1860.712646,1030.090332 
	C1854.980347,1050.222412 1849.949219,1070.769897 1851.217651,1091.931030 
	C1852.316040,1110.258179 1862.320679,1120.626221 1881.803101,1114.512939 
	C1888.270874,1112.483398 1894.628784,1108.579468 1899.765625,1104.080688 
	C1932.917358,1075.046753 1964.513672,1044.500977 1989.094971,1007.509399 
	C1989.735718,1006.544983 1990.379883,1005.582886 1991.154663,1004.421387 
	C1987.860962,1002.564636 1984.632812,1000.897461 1981.557007,998.985291 
	C1965.866699,989.231323 1959.124023,975.221924 1961.234375,956.782959 
	C1963.697632,935.260559 1972.210693,916.181580 1984.589722,898.755310 
	C1992.770020,887.239868 2003.753052,879.085083 2017.884277,876.690063 
	C2025.005249,875.483154 2032.580933,875.336731 2039.729736,876.319336 
	C2048.936523,877.584839 2055.532471,883.683044 2056.724121,892.943237 
	C2057.779785,901.147522 2057.848633,909.884827 2056.198975,917.945923 
	C2052.851807,934.301453 2048.048828,950.359070 2043.746094,966.923950 
	C2045.992676,966.525269 2048.955322,966.122498 2051.860107,965.464722 
	C2076.121094,959.971313 2094.844971,945.768921 2111.018555,927.635803 
	C2123.615723,913.512085 2133.795654,897.709900 2142.689209,881.072388 
	C2144.221924,878.204895 2145.861816,876.826416 2149.194824,876.984619 
	C2154.179688,877.221191 2159.189941,877.144287 2164.180176,876.955933 
	C2167.466553,876.831787 2170.069092,876.258972 2171.560547,872.142273 
	C2181.210205,845.510376 2191.847168,819.225159 2201.038818,792.441406 
	C2211.086914,763.162109 2218.469727,733.096069 2223.997803,702.611145 
	C2226.725098,687.571045 2229.638672,672.554443 2231.878174,657.439758 
	C2233.438232,646.908813 2233.757324,636.200378 2235.045654,625.621643 
	C2238.703125,595.583069 2238.393555,565.408630 2237.819336,535.273621 
	C2237.516357,519.374512 2235.718750,503.469574 2233.931152,487.642365 
	C2232.027100,470.787262 2230.019775,453.888977 2226.800781,437.252655 
	C2223.543701,420.418304 2219.563721,403.625549 2214.430176,387.276184 
	C2207.260742,364.442230 2199.715576,341.622589 2190.478516,319.572937 
	C2182.470215,300.456940 2172.799805,281.876099 2162.195068,264.051575 
	C2150.023682,243.593674 2136.380127,223.971283 2122.649170,204.498642 
	C2115.779053,194.755905 2107.498291,185.966766 2099.477783,177.087738 
	C2091.593262,168.359604 2083.480713,159.804855 2075.026611,151.630661 
	C2056.266846,133.491776 2036.103638,117.049469 2014.831421,101.882889 
	C1990.543213,84.565964 1965.056885,69.306709 1938.065186,56.754749 
	C1920.185547,48.440136 1901.882935,40.859222 1883.294922,34.293606 
	C1864.713867,27.730515 1845.716187,22.132551 1826.577148,17.429697 
	C1809.893555,13.330178 1792.815430,10.695600 1775.806274,8.106069 
	C1761.258179,5.891212 1746.558594,4.675205 1731.933838,2.950662 
	C1731.046265,2.846000 1730.228271,2.152515 1729.688965,1.366506 
	C2006.963867,1.000000 2283.927734,1.000000 2560.945801,1.000000 
	C2560.945801,461.237122 2560.945801,921.474304 2560.945801,1382.000000 
	C2184.312500,1382.000000 1807.624878,1382.000000 1430.468628,1382.000000 
M1173.395386,957.898010 
	C1206.612183,920.635437 1232.461914,878.789734 1251.320190,832.598816 
	C1264.426025,800.497925 1274.296875,767.684998 1271.976807,732.454590 
	C1271.649292,727.482300 1270.028931,722.270081 1267.734497,717.825806 
	C1263.950073,710.494934 1257.359375,709.681702 1252.039307,715.954468 
	C1247.454590,721.360046 1243.081909,727.303101 1240.188232,733.717957 
	C1231.788208,752.338928 1223.303833,771.003296 1216.426025,790.213928 
	C1197.269043,843.722534 1184.820312,899.068542 1173.130371,954.581299 
	C1172.869385,955.820129 1173.178101,957.178955 1173.016235,958.398132 
	C1173.102051,958.368103 1173.187866,958.338074 1173.273682,958.307983 
	C1173.190186,958.373108 1173.106567,958.438171 1173.395386,957.898010 
M1769.908691,906.382568 
	C1755.832153,901.247375 1742.767822,903.687256 1730.535522,911.788269 
	C1717.912109,920.148376 1708.468384,931.582031 1700.612549,944.256287 
	C1679.787354,977.854858 1664.166504,1013.503479 1658.936768,1053.114868 
	C1657.402588,1064.735352 1656.106445,1076.178955 1658.889648,1087.947998 
	C1663.948730,1109.340820 1680.131104,1120.693481 1700.400391,1115.839600 
	C1714.479858,1112.467773 1724.885986,1103.434204 1733.989380,1092.740112 
	C1748.717896,1075.438354 1758.815674,1055.384644 1767.960938,1034.800415 
	C1775.942261,1016.835510 1782.558716,998.300049 1785.395142,978.867004 
	C1787.463013,964.700256 1788.247437,950.174805 1787.803101,935.865295 
	C1787.425171,923.695435 1782.065796,913.059387 1769.908691,906.382568 
M1428.828247,1015.348877 
	C1454.708374,1000.789429 1472.736938,980.430298 1476.510376,949.863892 
	C1477.840454,939.090576 1478.126221,928.211426 1473.911499,917.855957 
	C1471.113159,910.980530 1466.282837,905.971558 1458.643433,904.971313 
	C1445.978760,903.313110 1435.107300,907.155334 1426.002197,916.282166 
	C1411.827759,930.490234 1402.389771,947.469727 1396.005981,966.317627 
	C1390.987915,981.133728 1388.649414,996.497253 1387.109009,1011.965027 
	C1386.461304,1018.469055 1387.001221,1025.091431 1387.001221,1033.402222 
	C1401.440186,1027.220337 1414.827271,1021.488708 1428.828247,1015.348877 
z"/>
<path fill="#3499CD" opacity="1.000000" stroke="none" 
	d="
M0.999998,849.468628 
	C1.663905,848.256775 2.846969,847.559021 2.916560,846.763794 
	C5.275487,819.806091 11.507651,793.686707 20.434401,768.234863 
	C28.446033,745.392151 39.108307,723.770264 52.231514,703.385376 
	C66.285378,681.554932 83.001602,661.922119 102.179657,644.523682 
	C118.494179,629.723083 136.280899,616.783447 155.610382,606.051758 
	C175.898346,594.787903 196.950974,585.398560 219.272858,578.886230 
	C237.594177,573.541077 256.006714,568.655640 275.089325,567.029114 
	C289.199951,565.826294 303.329407,564.690308 317.474518,564.095825 
	C328.820007,563.618958 340.261383,563.263245 351.552521,564.179932 
	C367.015717,565.435364 382.406647,567.741394 397.775574,569.963501 
	C426.355194,574.095581 453.979187,582.044495 480.993835,592.038818 
	C494.525299,597.044922 507.997955,602.395935 520.973206,608.673950 
	C538.632568,617.218262 556.313477,625.943848 573.022705,636.164917 
	C591.206604,647.288086 608.799133,659.548462 625.701965,672.545288 
	C641.340271,684.569702 656.072998,697.848999 670.552307,711.278870 
	C681.888733,721.793640 692.821167,732.876221 702.867004,744.618591 
	C716.946228,761.075623 728.917786,779.132202 739.557312,798.045410 
	C754.857178,825.242920 766.998169,853.784851 776.224487,883.570984 
	C783.493347,907.037598 789.519714,930.804749 793.017944,955.162903 
	C795.317749,971.176270 797.743591,987.171936 799.967834,1003.195679 
	C800.578247,1007.593201 800.768433,1012.058594 800.971558,1016.501099 
	C801.379944,1025.429810 801.682190,1034.363525 801.995422,1043.296265 
	C802.349060,1053.383545 803.093445,1063.480225 802.902466,1073.558350 
	C802.598450,1089.600342 802.136108,1105.667847 800.865784,1121.655151 
	C799.411316,1139.960449 798.007141,1158.370728 794.762756,1176.408325 
	C790.275391,1201.356445 784.540894,1226.109863 778.480286,1250.734985 
	C774.122131,1268.442993 767.316101,1285.375000 757.975037,1301.171143 
	C751.590088,1311.968384 742.211304,1319.573120 731.577637,1325.754883 
	C708.136353,1339.382446 682.472656,1347.341064 656.375244,1353.575928 
	C637.537659,1358.076416 618.290222,1361.017090 599.109192,1363.871582 
	C585.352539,1365.918701 571.429504,1367.216064 557.534363,1367.882690 
	C534.352905,1368.994995 511.127991,1369.997314 487.933594,1369.773682 
	C471.688538,1369.617310 455.460541,1367.382324 439.230804,1366.005615 
	C407.742188,1363.334351 376.740204,1357.671509 346.455048,1348.829834 
	C325.880157,1342.823120 305.583099,1335.685303 285.557098,1328.020508 
	C256.663513,1316.961548 229.923233,1301.549683 204.669189,1283.832153 
	C191.978394,1274.928467 180.329071,1264.447998 168.761139,1254.065308 
	C159.335358,1245.605103 150.330200,1236.590210 141.861603,1227.171143 
	C130.663666,1214.716431 119.728554,1201.968994 109.501671,1188.713867 
	C99.563065,1175.832153 90.345299,1162.359009 81.376236,1148.772461 
	C66.800995,1126.693237 53.911938,1103.603394 43.745262,1079.163940 
	C35.636032,1059.670288 27.483070,1040.087036 21.232637,1019.958801 
	C15.225514,1000.614136 11.326254,980.584045 7.118704,960.724304 
	C5.022400,950.829712 4.326724,940.639587 2.930576,930.592529 
	C2.830556,929.872742 2.180606,929.229431 1.393174,928.775269 
	C1.000000,902.645752 1.000000,876.291565 0.999998,849.468628 
z"/>
<path fill="#FFFEFD" opacity="1.000000" stroke="none" 
	d="
M1744.013916,728.992188 
	C1737.410156,718.384705 1730.981445,708.094727 1724.124268,697.118958 
	C1718.384888,702.753174 1712.870483,707.967285 1707.659912,713.469299 
	C1706.745728,714.434631 1706.917725,716.607117 1706.909912,718.223633 
	C1706.852783,729.887024 1706.771484,741.552368 1706.940552,753.213562 
	C1706.994385,756.916321 1705.747803,758.304016 1702.018799,758.063904 
	C1697.916626,757.799744 1693.784058,758.003723 1689.399902,758.003723 
	C1689.399902,705.883240 1689.399902,654.319580 1689.399902,602.413330 
	C1695.160889,602.413330 1700.709473,602.413330 1706.738037,602.413330 
	C1706.738037,632.200439 1706.738037,661.778381 1706.738037,692.745056 
	C1708.910400,690.762207 1710.211548,689.663574 1711.412598,688.464722 
	C1724.502197,675.398071 1737.638428,662.377197 1750.598511,649.183228 
	C1753.032227,646.705627 1755.480469,645.646484 1758.917114,645.803772 
	C1764.362061,646.053040 1769.826904,645.870239 1775.877930,645.870239 
	C1762.854492,658.841431 1750.329712,671.315857 1737.796021,683.799255 
	C1753.343262,708.770264 1768.344727,732.864746 1783.977661,757.973206 
	C1776.318848,757.973206 1769.900635,758.136902 1763.505493,757.827576 
	C1762.303589,757.769409 1760.907471,756.005432 1760.086548,754.718689 
	C1754.712891,746.296570 1749.472778,737.789307 1744.013916,728.992188 
z"/>
<path fill="#FFFEFD" opacity="1.000000" stroke="none" 
	d="
M1434.701904,752.318665 
	C1426.921387,744.810120 1424.107544,735.756165 1423.955444,725.003967 
	C1429.445679,725.003967 1434.577515,724.828796 1439.680176,725.137756 
	C1440.832275,725.207458 1442.422852,726.752808 1442.896729,727.973999 
	C1448.418213,742.202454 1460.369629,748.921936 1475.472290,745.729126 
	C1479.641113,744.847717 1483.823730,743.431152 1487.616211,741.504578 
	C1494.080200,738.220886 1495.761230,732.323730 1495.038818,725.461060 
	C1494.441162,719.785767 1490.419800,716.881409 1485.799194,715.401001 
	C1476.943848,712.563843 1467.820557,710.574768 1458.867676,708.025513 
	C1453.920166,706.616699 1449.011841,704.991638 1444.225098,703.109924 
	C1420.555054,693.804810 1421.794678,665.732910 1437.368408,652.564209 
	C1451.723267,640.426147 1481.394409,639.027771 1496.711548,649.883789 
	C1505.822632,656.341187 1509.961548,665.241089 1508.802734,676.754517 
	C1502.878784,676.754517 1497.273438,676.754517 1491.245239,676.754517 
	C1490.410645,671.166443 1488.758179,665.932678 1483.539185,662.542603 
	C1477.136719,658.383606 1457.231445,658.451111 1450.765015,663.904663 
	C1442.808960,670.614380 1442.803833,682.288635 1452.185059,686.605164 
	C1460.541016,690.449890 1469.839355,692.246338 1478.721313,694.948120 
	C1484.441040,696.687988 1490.370605,697.935059 1495.841675,700.260193 
	C1516.016357,708.834351 1521.038818,733.835632 1505.269653,749.207397 
	C1500.468018,753.888062 1493.852539,757.436340 1487.425903,759.565552 
	C1475.209961,763.612854 1462.395996,763.559814 1449.999512,760.009949 
	C1444.709595,758.495117 1439.956421,755.105896 1434.701904,752.318665 
z"/>
<path fill="#FFFEFD" opacity="1.000000" stroke="none" 
	d="
M1586.560059,761.901855 
	C1570.065796,763.388428 1555.588745,760.164612 1544.228882,747.801880 
	C1537.756714,740.758301 1534.203003,732.272888 1531.764648,723.118103 
	C1526.808472,704.510193 1528.753784,686.491455 1536.817749,669.307495 
	C1549.026978,643.290405 1582.046143,634.400330 1606.163086,650.130615 
	C1616.769653,657.048767 1621.496948,667.266479 1622.974243,679.394409 
	C1623.343750,682.427612 1622.472046,684.176514 1618.980591,684.042603 
	C1614.672485,683.877258 1610.353027,684.003052 1605.800781,684.003052 
	C1605.483276,682.683472 1605.207275,681.602722 1604.963745,680.514709 
	C1602.496948,669.491699 1596.549438,661.873230 1584.884521,659.652649 
	C1573.222656,657.432678 1562.393433,661.544617 1556.123047,671.200745 
	C1548.294067,683.257446 1547.097168,696.861877 1548.544800,710.630615 
	C1549.227905,717.128357 1551.012817,723.782410 1553.690186,729.740173 
	C1558.855835,741.234924 1569.808960,746.952942 1582.158936,745.847473 
	C1594.015869,744.786011 1601.931274,738.029358 1605.099609,724.944580 
	C1606.299805,719.988159 1608.306152,718.441711 1613.081421,718.952515 
	C1616.672852,719.336670 1620.338501,719.028442 1623.926147,719.028442 
	C1625.379639,739.997925 1610.407471,757.172424 1586.560059,761.901855 
z"/>
<path fill="#FFFFFE" opacity="1.000000" stroke="none" 
	d="
M1850.028564,630.001953 
	C1850.028564,624.878662 1850.028564,620.253357 1850.028564,615.336060 
	C1856.062378,615.336060 1861.610962,615.336060 1867.773193,615.336060 
	C1867.773193,625.503540 1867.773193,635.407410 1867.773193,645.715088 
	C1873.982910,645.715088 1879.592896,645.715088 1885.954468,645.715088 
	C1885.954468,650.207703 1886.213867,654.321045 1885.771973,658.357666 
	C1885.661743,659.365173 1883.338135,660.777466 1881.949829,660.878418 
	C1877.501221,661.202271 1873.014160,660.998718 1868.020508,660.998718 
	C1867.918823,663.085999 1867.760010,664.842407 1867.758667,666.598938 
	C1867.742188,689.084045 1868.018066,711.573730 1867.639160,734.052429 
	C1867.438477,745.953735 1871.138672,748.433533 1883.465698,746.413391 
	C1884.109863,746.307861 1884.768433,746.290710 1885.696411,746.207642 
	C1885.802002,747.607056 1885.969604,748.904541 1885.984375,750.203735 
	C1886.023926,753.671997 1885.997803,757.141113 1885.997803,761.982910 
	C1879.098999,761.982910 1872.642944,762.410034 1866.264893,761.886353 
	C1855.744751,761.022522 1850.084351,754.601685 1850.055176,744.024658 
	C1849.984253,718.208618 1850.029785,692.392212 1850.028442,666.575989 
	C1850.028320,664.629517 1850.028442,662.683105 1850.028442,660.271362 
	C1844.858887,660.271362 1840.258179,660.271362 1835.309570,660.271362 
	C1835.309570,655.408447 1835.309570,651.011902 1835.309570,645.965942 
	C1840.017456,645.965942 1844.743286,645.965942 1850.028564,645.965942 
	C1850.028564,640.394592 1850.028564,635.447266 1850.028564,630.001953 
z"/>
<path fill="#FFFFFF" opacity="1.000000" stroke="none" 
	d="
M1798.914551,667.000122 
	C1798.914551,659.863525 1798.914551,653.226929 1798.914551,646.236145 
	C1804.868164,646.236145 1810.427612,646.236145 1816.671631,646.236145 
	C1816.671631,648.124146 1816.671631,649.905334 1816.671631,651.686523 
	C1816.671631,685.009033 1816.676025,718.331482 1816.667480,751.653992 
	C1816.665894,757.971130 1816.635132,757.981934 1810.164673,757.998413 
	C1806.682739,758.007263 1803.200806,758.000000 1798.914551,758.000000 
	C1798.914551,727.645630 1798.914551,697.572876 1798.914551,667.000122 
z"/>
<path fill="#FFFFFF" opacity="1.000000" stroke="none" 
	d="
M1661.526611,707.000244 
	C1661.524414,722.316528 1661.347046,737.136108 1661.619507,751.947327 
	C1661.710327,756.889526 1659.959473,758.499084 1655.237183,758.062683 
	C1651.778076,757.742981 1648.265747,758.000000 1644.312256,758.000000 
	C1644.312256,720.777649 1644.312256,683.764099 1644.312256,646.312134 
	C1649.641602,646.312134 1655.189453,646.312134 1661.526733,646.312134 
	C1661.526733,666.347595 1661.526733,686.423889 1661.526611,707.000244 
z"/>
<path fill="#FFFEFE" opacity="1.000000" stroke="none" 
	d="
M1798.137451,603.383789 
	C1804.108032,602.525879 1809.984619,602.128784 1816.606812,601.681274 
	C1816.606812,609.022095 1816.676758,615.628723 1816.507812,622.229309 
	C1816.489258,622.958008 1815.124512,624.240234 1814.349609,624.266968 
	C1809.083740,624.448486 1803.808716,624.361816 1798.043701,624.361816 
	C1798.043701,617.077637 1798.043701,610.461182 1798.137451,603.383789 
z"/>
<path fill="#FFFEFE" opacity="1.000000" stroke="none" 
	d="
M1661.002686,612.029175 
	C1661.002686,616.300964 1661.002686,620.082947 1661.002686,624.388977 
	C1655.693848,624.388977 1650.904663,624.535217 1646.139160,624.264160 
	C1645.198975,624.210693 1643.613159,622.577148 1643.578247,621.626160 
	C1643.347412,615.343201 1643.459106,609.047791 1643.459106,602.417969 
	C1649.342041,602.417969 1654.745117,602.417969 1661.002686,602.417969 
	C1661.002686,605.389771 1661.002686,608.464539 1661.002686,612.029175 
z"/>
<path fill="#4B2F12" opacity="1.000000" stroke="none" 
	d="
M1768.243652,1086.828125 
	C1768.269043,1086.701538 1768.578491,1086.480103 1769.005127,1086.460693 
	C1768.924072,1086.686401 1768.725830,1086.709839 1768.243652,1086.828125 
z"/>
<path fill="#F79939" opacity="1.000000" stroke="none" 
	d="
M1770.231079,906.585938 
	C1782.065796,913.059387 1787.425171,923.695435 1787.803101,935.865295 
	C1788.247437,950.174805 1787.463013,964.700256 1785.395142,978.867004 
	C1782.558716,998.300049 1775.942261,1016.835510 1767.960938,1034.800415 
	C1758.815674,1055.384644 1748.717896,1075.438354 1733.989380,1092.740112 
	C1724.885986,1103.434204 1714.479858,1112.467773 1700.400391,1115.839600 
	C1680.131104,1120.693481 1663.948730,1109.340820 1658.889648,1087.947998 
	C1656.106445,1076.178955 1657.402588,1064.735352 1658.936768,1053.114868 
	C1664.166504,1013.503479 1679.787354,977.854858 1700.612549,944.256287 
	C1708.468384,931.582031 1717.912109,920.148376 1730.535522,911.788269 
	C1742.767822,903.687256 1755.832153,901.247375 1770.231079,906.585938 
z"/>
<path fill="#F69839" opacity="1.000000" stroke="none" 
	d="
M1173.221191,958.481812 
	C1173.178101,957.178955 1172.869385,955.820129 1173.130371,954.581299 
	C1184.820312,899.068542 1197.269043,843.722534 1216.426025,790.213928 
	C1223.303833,771.003296 1231.788208,752.338928 1240.188232,733.717957 
	C1243.081909,727.303101 1247.454590,721.360046 1252.039307,715.954468 
	C1257.359375,709.681702 1263.950073,710.494934 1267.734497,717.825806 
	C1270.028931,722.270081 1271.649292,727.482300 1271.976807,732.454590 
	C1274.296875,767.684998 1264.426025,800.497925 1251.320190,832.598816 
	C1232.461914,878.789734 1206.612183,920.635437 1173.254883,958.159363 
	C1173.114258,958.420715 1173.221191,958.481812 1173.221191,958.481812 
z"/>
<path fill="#F79839" opacity="1.000000" stroke="none" 
	d="
M1428.521362,1015.552979 
	C1414.827271,1021.488708 1401.440186,1027.220337 1387.001221,1033.402222 
	C1387.001221,1025.091431 1386.461304,1018.469055 1387.109009,1011.965027 
	C1388.649414,996.497253 1390.987915,981.133728 1396.005981,966.317627 
	C1402.389771,947.469727 1411.827759,930.490234 1426.002197,916.282166 
	C1435.107300,907.155334 1445.978760,903.313110 1458.643433,904.971313 
	C1466.282837,905.971558 1471.113159,910.980530 1473.911499,917.855957 
	C1478.126221,928.211426 1477.840454,939.090576 1476.510376,949.863892 
	C1472.736938,980.430298 1454.708374,1000.789429 1428.521362,1015.552979 
z"/>
<path fill="#F69839" opacity="1.000000" stroke="none" 
	d="
M1173.068604,958.461975 
	C1173.106567,958.438171 1173.190186,958.373108 1173.273682,958.307983 
	C1173.187866,958.338074 1173.102051,958.368103 1173.118652,958.439941 
	C1173.221191,958.481812 1173.114258,958.420715 1173.068604,958.461975 
z"/>
</svg>