<svg version="1.1" id="Layer_1" xmlns="http://www.w3.org/2000/svg" xmlns:xlink="http://www.w3.org/1999/xlink" x="0px" y="0px"
	 width="100%" viewBox="0 0 320 320" enable-background="new 0 0 320 320" xml:space="preserve">
<path fill="#000000" opacity="1.000000" stroke="none" 
	d="
M147.000000,321.000000 
	C98.000008,321.000000 49.500019,321.000000 1.000020,321.000000 
	C1.000013,214.333359 1.000013,107.666725 1.000006,1.000062 
	C107.666618,1.000042 214.333237,1.000042 320.999878,1.000021 
	C320.999939,107.666603 320.999939,214.333206 320.999969,320.999908 
	C263.166656,321.000000 205.333328,321.000000 147.000000,321.000000 
M211.482376,150.929413 
	C210.646591,149.919998 209.715363,148.974579 208.989166,147.891678 
	C195.057037,127.116615 181.149109,106.325333 167.235870,85.537613 
	C163.772934,80.363678 158.235001,80.393326 154.732925,85.579346 
	C139.815735,107.669296 124.889069,129.752823 109.285835,151.745163 
	C108.202499,151.005768 107.178497,150.154495 106.026886,149.543839 
	C89.752541,140.913971 73.447891,132.341248 57.177971,123.703072 
	C46.371902,117.965805 35.652653,112.062683 24.781965,106.451912 
	C23.113918,105.590973 20.263147,105.058983 19.001213,105.913475 
	C17.680529,106.807747 17.246679,109.533096 17.115509,111.504028 
	C17.002859,113.196716 17.677946,115.026802 18.321321,116.672340 
	C32.224575,152.232468 46.195129,187.766296 60.090061,223.329681 
	C62.527916,229.569244 66.590317,234.171341 73.359261,234.872391 
	C89.208168,236.513870 105.096741,238.587494 120.991364,238.795364 
	C150.065369,239.175598 179.158051,238.475845 208.237244,237.924942 
	C218.768860,237.725418 229.342896,237.126770 239.783157,235.805847 
	C245.406967,235.094299 251.864456,236.208267 257.064819,231.106796 
	C258.301147,229.101318 259.537445,227.095840 261.130493,224.435944 
	C265.402618,213.931595 269.767822,203.463959 273.927765,192.915375 
	C282.868011,170.244965 291.776184,147.561172 300.521454,124.815178 
	C302.393036,119.947243 304.004211,114.869492 304.820892,109.742729 
	C305.402679,106.090485 301.855835,104.137169 298.520050,105.865738 
	C286.785309,111.946571 275.111694,118.145279 263.414307,124.298203 
	C246.310410,133.294998 229.206009,142.290863 211.482376,150.929413 
z"/>
<path fill="#FF4B4B" opacity="1.000000" stroke="none" 
	d="
M256.424316,231.210953 
	C251.864456,236.208267 245.406967,235.094299 239.783157,235.805847 
	C229.342896,237.126770 218.768860,237.725418 208.237244,237.924942 
	C179.158051,238.475845 150.065369,239.175598 120.991364,238.795364 
	C105.096741,238.587494 89.208168,236.513870 73.359261,234.872391 
	C66.590317,234.171341 62.527916,229.569244 60.090061,223.329681 
	C46.195129,187.766296 32.224575,152.232468 18.321321,116.672340 
	C17.677946,115.026802 17.002859,113.196716 17.115509,111.504028 
	C17.246679,109.533096 17.680529,106.807747 19.001213,105.913475 
	C20.263147,105.058983 23.113918,105.590973 24.781965,106.451912 
	C35.652653,112.062683 46.371902,117.965805 57.177971,123.703072 
	C73.447891,132.341248 89.752541,140.913971 106.026886,149.543839 
	C107.178497,150.154495 108.202499,151.005768 109.828232,152.074097 
	C117.466675,156.362411 124.490776,160.457672 131.670822,164.258347 
	C169.153519,184.099518 206.690186,203.838760 244.164459,223.695786 
	C248.391586,225.935654 252.344345,228.693359 256.424316,231.210953 
z"/>
<path fill="#BD4043" opacity="1.000000" stroke="none" 
	d="
M256.744568,231.158875 
	C252.344345,228.693359 248.391586,225.935654 244.164459,223.695786 
	C206.690186,203.838760 169.153519,184.099518 131.670822,164.258347 
	C124.490776,160.457672 117.466675,156.362411 110.168243,152.120880 
	C124.889069,129.752823 139.815735,107.669296 154.732925,85.579346 
	C158.235001,80.393326 163.772934,80.363678 167.235870,85.537613 
	C181.149109,106.325333 195.057037,127.116615 208.989166,147.891678 
	C209.715363,148.974579 210.646591,149.919998 211.774124,151.456329 
	C212.880997,153.767929 213.472977,155.700821 214.545013,157.314850 
	C228.602081,178.478516 242.711517,199.607483 256.865387,220.706543 
	C257.945740,222.317017 259.460754,223.635925 260.773743,225.090347 
	C259.537445,227.095840 258.301147,229.101318 256.744568,231.158875 
z"/>
<path fill="#7D353B" opacity="1.000000" stroke="none" 
	d="
M260.952118,224.763153 
	C259.460754,223.635925 257.945740,222.317017 256.865387,220.706543 
	C242.711517,199.607483 228.602081,178.478516 214.545013,157.314850 
	C213.472977,155.700821 212.880997,153.767929 212.083862,151.635193 
	C229.206009,142.290863 246.310410,133.294998 263.414307,124.298203 
	C275.111694,118.145279 286.785309,111.946571 298.520050,105.865738 
	C301.855835,104.137169 305.402679,106.090485 304.820892,109.742729 
	C304.004211,114.869492 302.393036,119.947243 300.521454,124.815178 
	C291.776184,147.561172 282.868011,170.244965 273.927765,192.915375 
	C269.767822,203.463959 265.402618,213.931595 260.952118,224.763153 
z"/>
</svg>